/* XPM */
static char *_32d0b0d5a364c69c77d867668677067PSmDCQsnltG6Rbn2[] = {
/* columns rows colors chars-per-pixel */
"64 64 251 2 ",
"   c #07154B",
".  c #160E56",
"X  c #0D1652",
"o  c #0B1A54",
"O  c #151354",
"+  c #181456",
"@  c #131C55",
"#  c #1B135A",
"$  c #181A59",
"%  c #0B104E",
"&  c #0C235C",
"*  c #06295A",
"=  c #16235C",
"-  c #08365D",
";  c #08334F",
":  c #162A66",
">  c #0C3B65",
",  c #093866",
"<  c #133364",
"1  c #133C6C",
"2  c #1B3A6C",
"3  c #153867",
"4  c #1C3A72",
"5  c #092B61",
"6  c #25376E",
"7  c #233B73",
"8  c #2B3C74",
"9  c #253874",
"0  c #222A67",
"q  c #1B1B61",
"w  c #05445B",
"e  c #144657",
"r  c #10484F",
"t  c #0C426B",
"y  c #084866",
"u  c #13436C",
"i  c #134B6C",
"p  c #19486A",
"a  c #0B5569",
"s  c #165869",
"d  c #0D4771",
"f  c #144C73",
"g  c #1C4C75",
"h  c #194776",
"j  c #1C537B",
"k  c #1B5B7C",
"l  c #175877",
"z  c #0D5674",
"x  c #24476B",
"c  c #234374",
"v  c #234D73",
"b  c #284A7A",
"n  c #23527B",
"m  c #235B7E",
"M  c #285478",
"N  c #335577",
"B  c #2A546F",
"V  c #1A647B",
"C  c #19717E",
"Z  c #24666E",
"A  c #266779",
"S  c #326B79",
"D  c #297477",
"F  c #34747C",
"G  c #1B5E81",
"H  c #1C4E81",
"J  c #284A83",
"K  c #3A4E88",
"L  c #255483",
"P  c #2B5483",
"I  c #255C82",
"U  c #2C5C84",
"Y  c #2A5C8A",
"T  c #315484",
"R  c #375A89",
"E  c #3E5D93",
"W  c #345B94",
"Q  c #1C6583",
"!  c #1D7486",
"~  c #2C6285",
"^  c #24648A",
"/  c #2B6C8C",
"(  c #276787",
")  c #33638C",
"_  c #366888",
"`  c #25738C",
"'  c #287889",
"]  c #357987",
"[  c #296D92",
"{  c #346C93",
"}  c #3B6A94",
"|  c #376896",
" . c #2C7595",
".. c #2C7B94",
"X. c #2D7C9A",
"o. c #277495",
"O. c #337393",
"+. c #327D95",
"@. c #34759A",
"#. c #337C9C",
"$. c #3B7C9C",
"%. c #3B7497",
"&. c #3C7DA3",
"*. c #387AA2",
"=. c #41568C",
"-. c #405A93",
";. c #437D86",
":. c #456898",
">. c #43779B",
",. c #4F719A",
"<. c #447CA4",
"1. c #487AA6",
"2. c #5679A7",
"3. c #5276AA",
"4. c #2A848D",
"5. c #278889",
"6. c #368588",
"7. c #2D8796",
"8. c #34839C",
"9. c #3B849D",
"0. c #348A9B",
"q. c #3B8A9C",
"w. c #358994",
"e. c #399599",
"r. c #329291",
"t. c #3DA19F",
"y. c #2D89A1",
"u. c #3582A1",
"i. c #3C83A3",
"p. c #3B8BA3",
"a. c #3A89A6",
"s. c #3D9CA3",
"d. c #3D95A6",
"f. c #3DA1A3",
"g. c #44848D",
"h. c #478B8A",
"j. c #46928E",
"k. c #54958C",
"l. c #458897",
"z. c #548B98",
"x. c #4B9C9D",
"c. c #479698",
"v. c #549999",
"b. c #4AA49D",
"n. c #53A49D",
"m. c #55A599",
"M. c #67A89B",
"N. c #6DB19F",
"B. c #4283A4",
"V. c #428BA4",
"C. c #4384AA",
"Z. c #4C86AA",
"A. c #448CAB",
"S. c #4C8CAB",
"D. c #4A87A5",
"F. c #5C83AC",
"G. c #548AAB",
"H. c #5686A8",
"J. c #4594A4",
"K. c #439CA4",
"L. c #4A9CA4",
"P. c #4493AB",
"I. c #4B93AC",
"U. c #459CAB",
"Y. c #4C9BAC",
"T. c #4B96A4",
"R. c #5393A4",
"E. c #5698A9",
"W. c #4B8BB2",
"Q. c #5D83B2",
"!. c #568BB3",
"~. c #4B94B1",
"^. c #4B9BB3",
"/. c #4C99B8",
"(. c #5394B4",
"). c #529BB4",
"_. c #5B93BA",
"`. c #5A9BBA",
"'. c #5797B7",
"]. c #628AAC",
"[. c #6395A8",
"{. c #6384B4",
"}. c #638BB3",
"|. c #6688BA",
" X c #6295BB",
".X c #6699BA",
"XX c #709CBF",
"oX c #44A3A4",
"OX c #4BA3A5",
"+X c #45A3AB",
"@X c #4BA4AC",
"#X c #49A9A8",
"$X c #53A4AC",
"%X c #5AAAAC",
"&X c #57A8A6",
"*X c #5DB4AD",
"=X c #4DA4B2",
"-X c #4BA6B2",
";X c #57A8B6",
":X c #5CB7B6",
">X c #65A9AA",
",X c #72ADA7",
"<X c #66B6AA",
"1X c #75B7A8",
"2X c #66A9B6",
"3X c #76A9B9",
"4X c #64B5B4",
"5X c #65B5BB",
"6X c #6BBDBC",
"7X c #68B9B7",
"8X c #73BDBB",
"9X c #78B8B6",
"0X c #629D97",
"qX c #6BC2B8",
"wX c #74C4BB",
"eX c #7BCBBD",
"rX c #77C7BA",
"tX c #599BC1",
"yX c #679BC1",
"uX c #749AC5",
"iX c #5DA6C1",
"pX c #69A8C7",
"aX c #76AAC6",
"sX c #67B8C5",
"dX c #76BAC6",
"fX c #76A8D1",
"gX c #75B7DA",
"hX c #7CCBC2",
"jX c #77C7C6",
"kX c #76C2D4",
"lX c #77CBC9",
"zX c #81B7BB",
"xX c #86C8BB",
"cX c #8ACDB7",
"vX c #82B1CB",
"bX c #84CAC8",
"nX c #87D5C8",
"mX c #9BDCCD",
"MX c #95D8C7",
"NX c #87CAD2",
"BX c #99DAD4",
"VX c #8FD2D4",
"CX c #A1DCD5",
"ZX c #A0DDCD",
"AX c #98E2D6",
"SX c #9BE0CE",
"DX c #A3E2D5",
"FX c #A1E0CF",
"GX c #B2E5EC",
"HX c #B1E2F0",
"JX c #93E3E1",
/* pixels */
"] ' ..A D.G.G.>.- D.'.G._ B ,XN.N.,X,Xk.M.1X1X1X1XM.9X,X,X,X,Xg.;.3X,X,X,X0XM.1X1X,X1XM.h.,X1XN.M.,XB -.G.I.Z.- >.H.G.D.A +.` ` ",
"V.V.I.+.I..XXXXXp .X.XaX].N BXSXDXDXDX1X1XmXmXMXFXcXcXDXCXCXCX,X0XBXBXCXDXxXcXDXMXmXmX1X1XDXCXCXDXCXB ].aX`.yXu XXpXpX(.9.I.V.J.",
"7.7.d.! p.~.'._.> Z.~.'.F.N VXmXMXMXMXN.<XMXcXcXMXcX1XmXcXMXmXk.k.mXmXcXMXxXcXMXcXcXMX1XN.mXMXMXMXMXB ].'.I.G.> }._.(.p.` P.7.7.",
"p.0.p.8.P.`. XXXu _.`..X{.B BXAXMXmXDX1X,XmXMXMXmXcXxXFXFXMXmXM.M.mXmXmXZXxXcXmXMXMXBX1X,XDXDXmXmXBXN ].2X'. X1 uXXX`.I.9.V.8.p.",
"/ O.O.%.U M R 2.< ) ~ :.,.N zX9X9X9XxXv.F ] F g.;.>X9X9X9X9X9Xk.k.9X9X,XzX3X>X;.;.] ] F v.xX9X9XxXzXN :.>.~ ) < 2.R M U %. .O./ ",
"i i y i U T R N < R U U b x z.k.k.h.j.j.>X9X2X2X3X[.;.z.E.v.v.E.E.E.v.[.z.F [.3X2X2X9X>Xv.k.h.k.k.z.x b U ~ R < b R T U f y d i ",
"d.d.P.9.pXfXfXQ.> yXpXaX:.B VXnXnXnXnX&X7XAXAXBXBXbX&X4XdXdXdXkXkXdXdXjX7Xv.bXAXBXBXAXwX&XVXAXbXnXNXN :.pXpXyXu }.vXfXpXp.^.d.d.",
"7.y.y.8.8.I.G.H.> !.A.`.) p jXrXrXrXhXm.<XnXxXxXnXxXm.&X%X;X;X=X;X;X;X%X&Xv.xXnXxXnXnX<Xm.hXrXeXrXjXv } '.S.!.u H.!.W.8.8.y.y.y.",
"y.y.d.X.P.). XH.> _.~.`.} g jXeXeXeXhXm.<XnXnXnXMXxXn.v.5X;XpX;XiX;X;X2X&Xv.nXnXnXnXnX<Xm.hXrXeXeXhXv } `.(._.> H. X(.A.8.p.u.y.",
"p.p.p.9.#.B.2.Q.u _.S..X:.p jXhXhXrXnXn.v.&X>X&X>X9XF >X5X;X2XsXsX;X2X2X>XF 8X<X&X&X&Xn.n.nXwXhXhXjXv :..XZ.!.1 }.H.>.9.i.p.p.a.",
"j k l m > 3 < c < v v v 2 v z.h.h.h.j.F s s a s s A Z g.g.g.g.] ] g.g.;.g.Z Z s s a s s D j.h.j.6.v.v 2 v g n - c < - - m l j j ",
"%.~ O.m G..X|.R 2 |. X XR N VXbXVXNXVXg.c.2X2X2X2X2XdXNXbXbXNXv.j.VXbXNXNXdX2X2X2X2X2XR.c.VXbXbXbXNX_ R .X X|.2 -.XX.XZ.( O.{ %.",
"d.a./. .I.(. X} > !.(.`.R M jXwX8X8XBXj.4XlXjXrXeXeX9XeXxXbXrXv.j.hXeXbXxX1XrXeXhXjXjX4Xj.BXjXwXwXjXM R yXS._.> )  XW.~. .`.V.V.",
"o.X.a. .a.A.G.{ > (.A.(.Y M jX6X8X8XVXj.%XhXqXeXrX<X<XeXrXeXrXx.c.wXhXwXeX<X<XrXrX7XhX<Xj.VX8X7X6XdXN T (.S._.1 ) !.A.a. .a.X.X.",
"@.@./.[ ~.!. X) , _.(.`.R M dXjX8XjXJXj.*XjXhXqXhXrX6XnXlXjXVXc.c.VXlXlXhXqXwXhXqXjXjX*Xe.JXjXjXwXjXM R _.(.tX, | yX_.W. .W.@.@.",
"f d k I ~ { } U 1 { { >.P p ] D D D j.6.c.n.n.n.n.n.n.n.c.OXx.w.w.L.L.x.x.n.n.n.n.b.&Xx.6.c.Z D D ] p b >.{ { > U } { / ^ k t f ",
"y i t u } } 1.P > } _ >.c p R.j.j.c.L.c.wXrX8XrXrXM.r >X>X>X>X<X<X4X>X>X>Xr M.xXrXwXrXwXj.x.c.j.j.R.x c >.{ :.- n >.%.%.f t f i ",
"I.I.Z.I pXpXfX) 1 XX.XyXT v NXjXhXjXlX&X<XbXbX8XnXeXZ 9XbXnXeXrXrXrXjXbX9XZ xXMX9XhXeX<X&XlXjXjXjXNXb K XX XyX> ) fXpXpXI D.I.I.",
"0.p.B.l 9.i.W.) > D.V.I.P v 5X:X7X<X6Xx.&XwX7X6XrXrXZ 2X8X7X<X7XqX<X<XwX2XZ 8XbX4X4XqX&Xx.7X4X7X:X5XM N G.B.Z.t ) G.i.i.l i.p.0.",
"p.9.B.k ~.'._.) > _.S.'.P v jXqXqXwXlXOX%XjXsXdXbXjXA 5XdX8X6XwXrXqX8X8X2XD bXbXdX6XjX*XOXjXjX6XqXkXv N _.I._.> ) _.'.~.G i.9.p.",
"+.9.<.f I I | T < 2.>.1.b v 2X&X%X%X2Xc.6.h.l.w.v.E.m .X2X2X2X%X&X>X2X2X.XA [.v.6.l.w.6.c.;X%X%X%X2Xv b 1.} 1.< T E U U f <.$.+.",
"l k I t I U P h < R U } c 3 g.6.6.6.6.6.h.j.c.c.h.g.i G.E.R.R.T.T.T.R.E.G.i l.z.c.c.c.c.6.6.6.6.6.g.2 7 } m R < c T U U t k l k ",
"U.P.S.G iXpXfX| 1 fXpXfX} v dXqX6XjX6Xx.qXnXlXlXnX8XZ ).pXpXpXsXsXsXpXpX`.s 2XVXhXhXhXqXx.6XjX6X7XdXv R fXpXaXu :.fXpXtXk A.P.Y.",
"7.p.i.G u.i.Z.) > Z.i.A.U v 5X:X:X:X5Xr.b.<X*X<X<X4XV V.I.I.P.Y.~.I.~.~.S.s >X7X<X<X*Xb.r.7X*X:X:X5Xv m ~.i.Z.> W Z.B.i.Q i.p.0.",
"0.7.~.` d.~._.) > Z.A.~.U v 5X:X:X:XsXe.&X4X4X4X7X4XV I.).^.~./.^././.'.S.V 2X8X4X<X4X#Xr.7X5X:X:X5Xv U ~.p.Z.> ) _.A.d.` ^.0.0.",
"0.q.P. .Q ( } Y 1 G.V.(.} p dX6X5X6XsXL.%X4X4X4X8X5XA A.`.(.).).).).'.`.S.k 2X8X4X4X5X%Xx.6X5X5X6XdXM U I.A.G.> ) } / Q  .P.8.0.",
"( / / ( i i b 3 - M j m p b ,.;.h.g.g.S S S S S F l.m _ _ _ _ _ S ] _ _ _ B z.F S S F F F g.g.g.;.z.x c ~ i M * 2 v g f ( / ( ( ",
"S.D.S..XfXfXuXR c uX_.yXE =.vX3X3X3X3X3X3X3XaXaX3XB ,.vXvXaXaX3X9X3XaXvXvXF.N 3X3XaXaXaXaX3X3X3X3XvX,.K yX.XuXx R uXaXfXyXD.Z.S.",
"+.#.@.$.i.$.Z.v 3 G.A.W.P =.].[.[.[.].}.}.].}.}.F.< 2.XX}.}.].[.[.[.}..X}.,.3 }.}.}.}.}. X].}.].[.].=.T (.V.G.3 b F.@.9.$.O.#. .",
" . .[ &.a.a.Z.n u D.a.A.W R Q.H.H.2.2.F.F.2.F.F.2.* :.|.2.2.].2.H.H.Q.3.{.,.* 3.F.F.2.Q.F.2.2.H.2.}.E T C.a.Z.1 P Z.i.a.*. .o. .",
"o. .[ *.u.#.<.I > Z.a.W.W J }.H.F.F.Q.Q.Q.F.F.F.,.< :.{.|.Q.F.H.H.Q.Q.|.{.:.3 ,.].F.Q.Q.F.Q.F.F.H.Q.J W W.a.C.t U 1.i.u.*.o.o. .",
"O.@.@.*.C.<.Z.P 1 !.C.W.W W |.{.{.{.|.Q.{.Q.Q.{.2.* :.{.|.{.Q.}.{.{.2.yX|.,.& 2.}.].{.{.Q.|.{.{.F.|.E W W.&.!.> P Q.1.C.*.[ @.@.",
"= & < < 4 7 7 4 5 2 1 4 3 J -.K K =.K K E :.E E R c E E :.:.E -.:.E :.:.E E c R E E E E K K K =.K =.b 3 4 3 2 & 6 6 4 4 < 5 5 & ",
"& & & & & o & & & * * * * & : % % X X o : 7 4 4 c 2 c 4 7 7 7 < : 7 7 7 2 c 2 7 4 4 4 : o X X X % = & * * * * & o & & & & & & & ",
"c p g u g h n g i j g n c : : O O @ O o 0 8 7 7 7 7 7 7 7 4 J : : J 6 7 9 9 7 7 7 9 8 6 X @ @ + O q 2 b n j j g f n h h u g h h ",
"( ^ ( l ( (  .( ..9.9.>.M = $ + O + % X 0 8 9 9 9 9 9 7 8 6 8 : : 8 6 8 8 9 8 9 7 9 8 0 % O O + . q : P <.i.9.+.(  ./ ( k ( ^ I ",
"8.#.u.` u.9.p...d.U.P.I.m < $ O O $ + @ 0 8 6 8 6 8 8 6 6 8 8 : : 8 8 6 6 8 8 6 8 6 8 0 O + + + O : < L A.P.U.P.X.p.9.8.` +.#.8.",
"X.X.u.o.8.8.p.7.d.U.U.^.) < @ % + # # O $ $ @ $ @ @ @ @ @ = = @ @ @ = @ @ $ @ $ $ @ $ $ O + + + O = 3 ) ~.U.d.d.4.0.8.8.` +.+.+.",
"&.&.B.#.i.i.p.p.P.^.^.).>.3 = + # # # # # # O O $ O O + + O % + + % O + + + O # O O O # # # . # + @ 3 >.^.=X^.U.8.p.p.9.$.$.$.$.",
"f d f f k k Q Q ( ( Q V ~ ;     X % o o         % X X X X o X X X o X X X X X %         o o % X     ; ~ V Q Q ( Q V k l f i i y ",
"9.$.O.k D.D.G.g u D.i.i.+.l E.E.R.R.R.;.E.R.g._ _ U > ) ) ) ) ) ) U } ) U > U _ _ >.z.R.;.E.R.G.R.`.k O.V.9.Z.i j !.S.C.m / l.$.",
"9.$.$.k `.(.yXP u  X'.).I.] sX5X5XjX4Xe.7XlXjXjXkX9.y  .A.i.i.9.i.i.i.i.#.y +.kXkXjXlX6Xc.4X6X7XsX5Xw.Y.).'. Xu P yX_.`.^ %.B.B.",
"..+.` z X. .<.L 1 <.$.#.9.' L.OXK.K.oX5.e.OXOX@XY.8.y  .X.o.X.X.X.X. .#.X.y +.=XY.OXOXe.5.oXK.K.OXL.' V.9.@.1.1 L 1.@.#.z / #. .",
"#.$.%.f i.C.!.P 3 3.@.i.I.` =X+X@Xs.#X5.e.oX+X@X=XP.y X.8.p.0.0.0.0.p.p.X.y Y.;XY.@X#Xe.r.-X+X@XK.$X' V.A.@.1.1 P !.i.i.f O.i.$.",
"n L n 1 Y P E b 4 3.<.a.V.` -X+X+X-X@X4.x.%X$X$X;XY.a Y.=X=XK.@X+X+X@XU.^.a Y.;X$XOX$XK.4.+X=X@X+X;X' 9.V.B.3.2 b E m U 1 n P n ",
"j n c 2 g g b 6 : L l z / ` 0.q.q.l.l.' ] ] ] ] ] l.s l.T.L.L.x.x.OXL.T.l.l l.] ] ] ] 6.] l.V.q.q.w.`  .l f P < 7 b g g p g j g ",
"tX(._.%.pXfXaXU v yX`.iX>.; i w e r e e r ; r e e e ; S s s s s s s s Z A ; e e r r ; r r e e e y w ; >.iXtX Xn P pXpXiX%.'.'.`.",
"o.o.i.Q X. .>.j t !.B.I.D.S dXdXdXvXvXVXGXGXGXHXHXz.p 3XaXdX5X6X6X5XsXaX3XB g.HXGXGXGXGXVXvXvXdXdXvX~ <.(.C.(.t j >. ...^ #. .o.",
" . .i.[ #.u.B.j t B.#.$.$.V ;X$XOX&XOX&XjXbXbXNX5X] s E.$X$XOX#XOXOX$X@XY.s ] 5XNXNXbXhX&X&XOX@X@X;XQ &.a.@.<.> f C.#.u.( &. .X.",
".. .C.^ #.u.B.h t <.#.A.i.V +XoXoX#Xb.c.b.x.x.L.e.' a 2X+X#X#XoX#X#XoX#X:Xa 4.K.x.x.x.b.c.oX#XoXf.@XQ a.a.$.<.> j &.#.u.[ &. . .",
"..` C.^ u.X.&.j t <.&.i.$.^ @XoX+X#XOXL.L.$X%X$X@X' s E.@XoX#X#XoX#X#X@XY.z ' L.$X%X$XOXx.OX#XoXoX@XV &.8.8.>.t g <.8.X.( B...` ",
"+.#.Z.^ u.i.1.g 1 1.C.B.<.m ;XoX=X@X$XY.c.T.Y.T.J.+.i 2X;X@X=X#X$X$X+X=X;Xa 8.Y.T.T.L.J.Y.$X=X@XOX$Xm <.C.B.>.u g 1.i.i.^ C.O.+.",
"i i j f ~ ) } 4 2 :.) >.1.M E.J.P.V.I.9./ ( ( ( O.O.g '.A.^.Y.J.J.U.Y.~.`.j O.O./ ( ( ' 9.P.A.S.l.E.n 1.>.) :.3 7 } Y ) f j t i ",
"~ ~ ) I j u P 2 * * * * < u s a a a z w w w w y y y i >.$.+...8.8...+.+.$.i d y y w w w w z a a a s 1 < * - * * 4 T g j I { ) ) ",
"l.S.A.tXgXgXfXv h  X_._.} n Y.K.K.L.L.6.J.Y.Y.L.;XJ.y 2XsXkXkXsXsXsXkXkXaXi I.pXI.Y.@Xe.7.L.J.L.L.Y.g } _.(._.h b uXgXgXpXC.D.D.",
"` ` ^ #.#. .1.1 t S.C.S.} m ;X+XoX#X@X4.L.;X;X;X:Xe.w ] q.7.0.7.w.w.7.q.%.w l.;X;X:X:XoXr.#X@XOXoX;XI | S.B.S.t > 1.#.8.+.` ` ` ",
"` ..o.X.X. .1.u t &.@.$.| I =Xf.oXoXoX5.e.#XoX#X@Xe.A ] 9.0.8.0.8.0.8.q.O.w q.=X+XoXoXe.5.oXoXOXoX@XI ) &.#.&.> u 1.#.X. .o.` ` ",
"' '  .#.*.@.1.u , <.&.&.| m Y.oXf.oXoX5.K.=X+XK.@XJ.A O.9.9.+.8.8.8.8.p.%.w l.@XK.#X#Xt.5.oXoXoXoXU.I | <.#.<.> 1 1.$.#.@. ./ O.",
"~ m ^ @.&.>.>.h 1 1.%.1.} m ).K.K.+XK.4.J.=X=X=X=XV.i / B.#.C.i.i.i.#.C.O.- V.;X=X=X=Xs.4.K.L.L.L.).I } 1.%.1.1 4 :.<.&.{ ^ I ~ ",
"i f f d d d h 4 , h f f L m ' ' ' ' 4.C ` ' ! ! ' ..l.A k k G l l Q Q k ( +...` ' ` ' ' C 4.' ' ' ' L L h f h * 4 n d d 1 d f i ",
"/ { { t ^ ^ { L 5 { ^  .{ l d.s.s.s.K.' 4.0.0.e.7.e.T.J.J.P.^.V z P.d.d.J.Y.d.e.e.0.0.4.' s.d.s.e.K.G {  .^ ) * P { ^ ^ > Y O./ ",
"/ { | t &.i.1.L 5 *.&.a.&.k s.f.e.K.+X4.0.@X+Xs.#Xr.q.$X+X+X-X! ! ^.-X+X@Xq.7.+Xs.+X@X0.4.+Xs.s.e.K.Q &.a.#.%.- j 1.&.&.> | { / ",
"~ ) } L @.@.1.W , 1.*.&.&.k U.s.K.U.U.' 0.U.+Xs.f.t.w.OXK.s.-X! ! =Xs.s.+Xe.s.f.s.+X+Xw.4.U.K.K.K.U.G &.<.$.1.5 R 1.| { L | ) ( ",
"> - 1 h h j L h * h j d ^ Q 7.4.7.7.p.` 7.0.7.r.r.5.w.w.r.7.7.! C 0.r.r.7.7.5.r.r.w.0.4.' 0.4.w.7.8.Q ^ f j h * h L H h h 1 , , "
};
