/* XPM */
static char *_90c114abe8e4caf8e32f564cdd2b02cSJBxgTyffO2v9BN9[] = {
/* columns rows colors chars-per-pixel */
"64 64 256 2 ",
"   c #040200",
".  c #0B0201",
"X  c #0E0A01",
"o  c #060904",
"O  c #140A02",
"+  c #0F1404",
"@  c #181607",
"#  c #191912",
"$  c #0D0811",
"%  c #280C02",
"&  c #330D03",
"*  c #3C0B03",
"=  c #380A06",
"-  c #291808",
";  c #331404",
":  c #3C1403",
">  c #3D1A05",
",  c #3B140B",
"<  c #341B0C",
"1  c #3C1B0C",
"2  c #341609",
"3  c #251D12",
"4  c #3D1512",
"5  c #3B1C13",
"6  c #371B16",
"7  c #360F10",
"8  c #1A2113",
"9  c #1E2209",
"0  c #24250E",
"q  c #28260B",
"w  c #37240C",
"e  c #2C2413",
"r  c #2B2B13",
"t  c #29281A",
"y  c #342312",
"u  c #3C2414",
"i  c #342C1B",
"p  c #392719",
"a  c #2C3217",
"s  c #39351A",
"d  c #382C22",
"f  c #2D3726",
"g  c #3B3424",
"h  c #333C25",
"j  c #3B3B26",
"k  c #3C3C2C",
"l  c #373627",
"z  c #282E27",
"x  c #430D03",
"c  c #4B0D02",
"v  c #470B08",
"b  c #570C06",
"n  c #431404",
"m  c #4B1302",
"M  c #4C1C04",
"N  c #43140C",
"B  c #4C150A",
"V  c #441C0C",
"C  c #4B1A0C",
"Z  c #431E04",
"A  c #531403",
"S  c #54140B",
"D  c #5C130C",
"F  c #531C0C",
"G  c #5D1C0C",
"H  c #551906",
"J  c #441513",
"K  c #441D14",
"L  c #4C1C13",
"P  c #4D1C1B",
"I  c #481817",
"U  c #531C13",
"Y  c #5B1C13",
"T  c #541C1B",
"R  c #581816",
"E  c #4D0F13",
"W  c #640C06",
"Q  c #67180A",
"!  c #73180A",
"~  c #661B15",
"^  c #741A0F",
"/  c #44230E",
"(  c #49240D",
")  c #53210C",
"_  c #5B240D",
"`  c #442313",
"'  c #4B2414",
"]  c #432B15",
"[  c #4C2A14",
"{  c #44231A",
"}  c #4B241C",
"|  c #452C1C",
" . c #4B2C1B",
".. c #532314",
"X. c #5D2514",
"o. c #54241B",
"O. c #5B231C",
"+. c #532B1B",
"@. c #5B2B1C",
"#. c #572A15",
"$. c #43331D",
"%. c #4C331D",
"&. c #49361A",
"*. c #53331D",
"=. c #5A351C",
"-. c #52370B",
";. c #67230D",
":. c #76240C",
">. c #632314",
",. c #6C2414",
"<. c #642914",
"1. c #64251C",
"2. c #632B1C",
"3. c #6B2C1D",
"4. c #6B2719",
"5. c #75291A",
"6. c #6B311D",
"7. c #683319",
"8. c #79351D",
"9. c #6C390E",
"0. c #571D22",
"q. c #471C23",
"w. c #691D24",
"e. c #4C2C22",
"r. c #482924",
"t. c #542522",
"y. c #5C2523",
"u. c #542B23",
"i. c #5B2B24",
"p. c #5B2C2A",
"a. c #562A2A",
"s. c #433423",
"d. c #4C3423",
"f. c #433A24",
"g. c #4C3B23",
"h. c #4C332A",
"j. c #443B2A",
"k. c #4B3A2B",
"l. c #47352A",
"z. c #533424",
"x. c #5B3423",
"c. c #543B24",
"v. c #5B3B25",
"b. c #53342A",
"n. c #5C342B",
"m. c #543A2C",
"M. c #5C3C2B",
"N. c #5B3B32",
"B. c #573932",
"V. c #4A3831",
"C. c #632622",
"Z. c #632D24",
"A. c #6B2D23",
"S. c #642C2A",
"D. c #6B2C2A",
"F. c #662528",
"G. c #722B23",
"H. c #772A27",
"J. c #643324",
"K. c #6B3324",
"L. c #633B25",
"P. c #6C3B25",
"I. c #63332B",
"U. c #6C332B",
"Y. c #643B2B",
"T. c #6B3B2C",
"R. c #713324",
"E. c #743A24",
"W. c #73342C",
"Q. c #743B2C",
"!. c #7C3828",
"~. c #692C31",
"^. c #633C33",
"/. c #6C3C34",
"(. c #6A3735",
"). c #7A3B33",
"_. c #743936",
"`. c #722F34",
"'. c #2B431E",
"]. c #3C432C",
"[. c #394527",
"{. c #3B4533",
"}. c #2F4820",
"|. c #53431D",
" X c #43442C",
".X c #494427",
"XX c #54412B",
"oX c #5B422C",
"OX c #574629",
"+X c #55512D",
"@X c #464834",
"#X c #5D4332",
"$X c #5A4737",
"%X c #5A5332",
"&X c #4B503B",
"*X c #62432D",
"=X c #694228",
"-X c #77432A",
";X c #634433",
":X c #6B4333",
">X c #68493B",
",X c #7B4333",
"<X c #774738",
"1X c #67523A",
"2X c #64522A",
"3X c #70461E",
"4X c #723B41",
"5X c #6C4742",
"6X c #774945",
"7X c #6B5444",
"8X c #745347",
"9X c #842A1B",
"0X c #87351D",
"qX c #94351E",
"wX c #84362B",
"eX c #8C3B2B",
"rX c #883827",
"tX c #943C2B",
"yX c #963926",
"uX c #843C32",
"iX c #8B3C32",
"pX c #963D33",
"aX c #8D2B23",
"sX c #A53B27",
"dX c #A93E36",
"fX c #A63D1D",
"gX c #86442C",
"hX c #9C432B",
"jX c #97452A",
"kX c #894635",
"lX c #944433",
"zX c #9B4434",
"xX c #9B453A",
"cX c #984A3A",
"vX c #9B523C",
"bX c #81533C",
"nX c #A4442C",
"mX c #A44A2D",
"MX c #A7442A",
"NX c #A34434",
"BX c #AB4533",
"VX c #A44A33",
"CX c #A44B3B",
"ZX c #A94938",
"AX c #A5533B",
"SX c #B24A3B",
"DX c #834317",
"FX c #843E40",
"GX c #874B45",
"HX c #974D44",
"JX c #8A5447",
"KX c #9A5647",
"LX c #9B5852",
"PX c #A65446",
"IX c #A65851",
"UX c #AC4C44",
/* pixels */
"v.+.J.-X7.6.O.p.P o.J r.x. .d.< c.*.%.] `  ./ ( * ).yXqX0XA &..X[.$.C lXqXsX5.O.y.K ` > =X[ *.] d.b.e. .K a.K } , T.E.8.6.@.;Xz.",
"Y.[ Y.<X<.E.i.6Xn.Y.5 ^.;XM.oXu 1Xv.oX%.M.N.v.x.N GXzXBXzXH %.[.[.s ..IXsXBXH.A.(.n.e. .<X*.oX .$X;X;Xn.e.>Xb.^.} <XE.R.K.Y.>Xz.",
";Xz.;X6XU.,XS./.x.M.p $X;XM.M. .7Xb.N.e.N.N.b.n.J JXCXVXzXY l.h ].i o.IXNXZX!.J.^.n.b.e.8Xz.;X .1X>XY.M.b.>Xn.M.{ 6X,XW.Y.^.1X*X",
"n n K } C L J } ; 2 - y ` > V : o.N L , , I x B * Y Q Q Q * 3 + # O 7 F.Q Q c C B B : * L ..B n [ ] > K < u ; : ; } T T N K C n ",
"yXrXA.u.+.' } ;X=.*.| e.z.+.[ n uXeXeX5.4.kX0XyX~ Y ~ 1.T & i a t e 6 (.Y >.c K.jX0XrXQ lXeXtX5... .[ +.{ oX*.v.] z.t.i.L 2.lXgX",
"MXyXW./.*XM.| 7Xv.*X| N.Y.Y.n.F cXNXNX9X5.CXMXBX5.`.`._.p.6 @Xh [.g u 6XI./.C kXCXMXyX:.CXpXBX9X:X;X^.u.e.7XOX#X| >X^.:X@.3.PXjX",
"nXrXU.n.} } r.8Xz.oXr.N.n.O.t.n cXtXNX9XH.HXsXdXw.~.C.Z.i.5 @X[. Xj.u 5Xi.i.J ,XCXsXpX^ HXeXVX9XJ.n.i.o.r.7Xm.XXu.>Xt.i...A.cXeX",
"W b B L L N J 6 ; ; 2 4 U S B x H b Q b c 4.W ! b v x : = O i &X Xp % 4 * , & U ! ! ! b D D b A m U B L , 5 - < & P L T N C S H ",
"4.Y I.GXK.Q.n.m.] g.; Y.cXjXzX,.A.y.C.B Z.cXyXnX4.@.%.%.d.O . d i . 6 $X| %.> -XhXnXtXQ D.O.Z.c gXlXzXkXJ.v.] %.5 >X,XW./.Z.D.1.",
"D.T (.<X3.Q.p.5Xd.c.1 T.PXVXNX,._.i.y.L J.KXhXmX6.x.c.c.d.6 3 . O 3 l.$Xg.oXZ kXVXnXcX>.(.a.I.B uXAXVXlX6.Y.v.z.{ 6X,XK.T./._.0.",
"P I a./.2.A.P a.K { N y.uXwXuX>.O.L T L O.kX0XeXO.} { { 6 - j @ + k p r.{ } N W.pXaXwXY o.o.T x Q.kXrXwX1.+.` ` 7 n.A.A.+.t.a.q.",
"r.P K ` n C K u.K ' 4 J F m B * +.L o.L N U c A * t.T O.i.&  X[.[. X2 ^.O.1.U E D b A x ..o...L V n x m n } K ` 5 e.B F N K r.r.",
"^.z.;X;XL.=. .8XoXoXd.b.z.*.%.u 7Xz.Y.x.n.^.=.L.N JXVXVXcXM s '.}.a @.IXVXCXE.J.T.I.x.} 8Xz.v. .oXm.z. .e.7X$X$X%.:XL.P.*.*X>Xm.",
"v.*.M.*XL.=.[ 6XL.*Xg.m.m.k.s.p 7Xc.v.z.N.^.v.M.V JXVXMXjXm s }.'.a @.PXMXVXE.Y.M.N.d.e.8Xn.M.d.XXl.k.$.s.7Xc.oX .:XL.L.' v.1XXX",
"Z V K } L B N O.m F , 5 < - < - | 1 ` , J P n C = y.,.5.4.* j.{.@Xj.J H.5.:.F K K K 2 , +.L K 6 p - < < 2 u.n ) n ' N L N K [ : ",
"=.[ n.(.Z.J.Y kXrXgXK.u.| y p y M.z.z.e.t.(.2.J.I S.Y F U , d t t d P Z.D G L n.n.i.a.} i.} u.{ l.s.p u ` <XrXrX3.T.i.I.u.u.Y.z.",
"*X*.T.<XJ.-X1.KXnXVXwXU.v.f..Xy 1X#X$Xd.M.<XP.,XT _.S.Z.y., s.    d e._.O.Z.K >X:XT.(.r.>XM.;X .#Xk.k.%...KXhXmXrX,XP.T.Y.Y.8Xv.",
"v.[ J.T.=.@.1.kXrXyXwX1.+.( / w 1Xc.g.] z.:X@.J.P p.o.T T & j.0 8 j.K /.L ..5 ;XY.x.n.} N.d. .( z. .` ' F kXyXjXG.Q.@.L.#.x.*Xc.",
"> > C O.C o.E 0.S Y v S ~ Q ;.m ' 1 ` 1 5 ' > V & u...Y o.% k {.{.k 5 O.Y O.} 5 1 1 , ; | u u > X.>.>.>.c O.b S E F.....( ' [ < ",
"M.[ I.6X:X<Xy.4XS.U.P _.PXzXCX5.<XM.M.d.z.M.z.z.5 6X,XQ.<X2 l {.{.d ` JXA.).n.N.M.M.e. .7X%.oX[ !.cXcXcXA._.~.`.0.6X6XQ.L.v.*Xc.",
"N.} /.<X=XP.i.4XD.`.T ).PXtXCX5.<XM.m.d.m.#XL.Y.K 6X_.Q.:X1 j h h h | JXK.Q.I.^.Y.M.b.e.7Xd.oX[ kXvXzXlXG.).`.`.0.6XQ.Q.K.T.M.m.",
"6 < L A.G <.U T S S * U 5.^ 9XW +.{ | 1 1 ..A A x t...o. .%  X].].[.y  .+...' C S m L , e.u ` : ;.:.! :.H O.E R N S._ ;.>.C ` y ",
"f.u L LXyXzX3.W.1.1.L 2.jXqXyX^ J.r.e.1 1.lXyXyX_ '  .$.p X t @X{.t - m.| | ; K.eXqXeX~ I.u.u.N wXjXyXyX<.K.O.S.E ).xXzXeXx  .&.",
"&.w @.LXxXCXG.).>.A.U Q.AXhXVX5./.N.;Xo.R.PXMXZX2.[ *.z.l..   l l   6 >X| m.: ,XAXnXNX5.).I.<XU iXCXVXjX6.Q.1.C.L GXvXPXgXm [ &.",
"_ ) C U.>.3.Y F Q D c K.gX8.kXG >.Y F m 2.kXeXlXY Y >.G ..; . O X . K Z.F X.n -XkXgX-X>.X.H S c kXuXwXgX) F D Q x @.K.<.O.n 2._ ",
"kX,Xx.[ [ ..* bXwXiXW.2.E.7.<.m gXuXgX6.2.P.6.R.x GXHXPXkX` i   . p u.LXkXHXD.D.P.7.2.m gX,XkX5.A.Q.6.7.m ,XiXiXW.n ( [ { x.KXgX",
"-X-Xv.z.c.%.V JXkXKXU.B G H G c cXkXcX!.H F m C * U.uXuXT.2 j.8 # g ` <XE.).F.Y S H S m KXkXcX8.~ Y A m * JXcXvXQ.Z OXOX$.z.<X-X",
"3X=Xv.oX.X$.| n.2.@.L O.wX9X8.G E.3.R.1.G !.8.E...o.~ D U & j @X@Xf.1 i.U Y b G.wXwX6.G ,X6.8.~ 4.wX5.wX) ) 3.<.@.` OX.X.X+X=X=X",
"|.2X%X%X%Xg.h.m.g.c., `.UXdXCX;.:Xb.M...4.PXnXZX4.U.C.D.F.J k.@X@Xg { 5Xi.D.S xXSXBXzX<.Y.M.^.T uXUXUXUXG C v.z.e.r.$X+X+X%X+X|.",
"&.s s s s y e d r i % I.HXeXrXX.c.s.j.u O.HXtXlXX.I.o.y.T , l.j..Xs.{ N.r.r.B ).zXyXkX#.m.s.l.1 T.kXeXxXY ; p i t e f.s s s s .X",
"#   t a a a 3 @ 0 a g @ %  .] w q q r 0 < | ' 1 5 u u w 2 2 l.s.s.$.; < u u p { > / ` < r q r r e g.[ & % p t t + 8 a r s 0   O ",
"$ o f {.[.].z # [. X@X@X@ X j j.j j j @Xk g f.- . 3 .X.X$.$.7X$.$.XXw &.XXXX3   - j.g  X X].j ].].s + O  X&X@X].8 z {.[. Xd . $ ",
".   l {.[.@Xz # h  X&Xg O @ g  Xk j l k k j.g @ O e j.f.i s.7Xs.$..Xw $.%.XXy X @ h j  Xj j j @X].s @ X j &X].k # z {.].@Xg . X ",
"# X 9 r 9 q # # 0 0 e - ; [ ' 2 e 3 e e e e q q < u / V ` - s.s s s ; V ..' 1 < q r e 3 i 3 e 3 w %.' 2 % e 0 0 O 3 a 0 r 3 X # ",
"@X X X.X.X$.d g s s - Y.HXtXzX;.oXg.v. .e.m.$.*.: kXCXNXxXm ] +X.X$...KXzXNX!.J.*.d.e.5 ;Xd.XX/ -XcXtXcX#.; s a d t .X.X.X.X@X].",
"+X+X%X+X+Xg.h.m.%.=.> T.PXBXBXQ P.v.J.o.i.>XM.L.B kXZXdXNXS c. X Xs.U IXdXUXwXR.T.Y.n.o.<X=.=.M eXNXSXCX_ V c.&.p s.1XOX%X+X+X+X",
"-.-..Xs g.] K Z.>.<.x o.Q.>.6.G 6.>.4.>.B T B S * D.H.H.`.* j. X].s.J FXG.H.1.F ) M m c E.;.,.G 3.G.5.!.S m <.<.) / v.g.XX&.|.-.",
"DX9.] y w / N HXeXzXW.o.+.#...* kXgXlXwX1.uXeXiX1.y.R Y U = k.@ @ V.4 F.R Y v U.gX!.wXQ lXyXzX8.T t.O.Y x cXjXtX!.* / u - / -X9.",
"MXjXJ.m.g.*.( KXZXSXH.U.<Xv.:Xn vXzXVX9X5.PXZXCX3.T.Z.2.y., p     i { 6XO.Z.B GXvXcXCXQ hXhXZX0X/.>XY.J.C HXBXZX!./ c.XXd.x.vXmX",
"nXyX@.[ ( ( n kXeXyXH.Y X.M ..x gX0XrX:.,.HXaXpX>.@...#.` ; f.a h i u n...@.x uXxXtXlXW rX0XrX5.O.} #.F x kXeXrXK.: [ [ 1 @.vXjX",
"M n C K.;.7.B P S S v S :.:.,.H M C B x N T W W x ' [ ( ` % ].{.{.k - d.' ' N S D D ~ v T n B x G 5.:.:.S U E R x X.3.4.2.x n M ",
"m.` Z.KXzXcXU.5Xi.S.I Q.AXMXCX5.:Xz.^.} p.(.H.`.L >Xv.*X#X- h f h l p 7XoXM.} (.`.`.F.0.5Xm.N.C gXAXnXzXA._.y.~.P GXcXxXlXm *.%.",
"k.{ D.IXzXzXW._.y.Z.N _.PXNXUX5.:Xz.^.} B.4X~.`.J 8XoXd.N.- f ]. Xs l.1X%.;X .I./.~.p.a.>Xm.M.L gXPXNXCXG._.y.p.P GXHXCXcXc +.d.",
"y 2 N A.;.Q S S S H c S 4.,.5.D K 5 1 2 5 } I I , r.} K r.% k k g g < b.V ' 2 } V V K , ` 1 < & X.3.~ ,.S Y S S x O.4.,.~ * > w ",
"%.] %.%.Z M H kXqXqXH.Y [ / V , M.z.+.[ d.m.z.z.5 r.T y.P 7 V.+ + V.6 ~.0.T I B.z.%.x.} M.z.d.| { ` V C S uXaXrXH.2.F H F +.XXs ",
":X%.c.oXOX=XF KXMXBXeXU.m.f.l.p 7Xv.Y.+.N.>X#X$X{ 5XF.F.F.J - X o @ r.4Xw.D.P 6X1X#XM.+.<Xx.;X| $Xm.m. .) IXhXVXwX!.P.:X+.v.1XOX",
"^.u.N.M. .+.T LXxXcX).I.m.s.s.y 1Xz.Y.} n.;Xm.#XK I.1.1.S.&   h k   5 /.O.C.L >X#XM.n.o.:X+.oX] XXl.h.e...LXjXcXuX_.+.b. .n.5Xb.",
"1 1 J L V C v R A M N 2 2 - - ; ' C F B 4 5 < 5 , S Q b S % i &X&Xd % ..H H C N 1 1 , N Y F M > < - 2 , & ..A A c L V ` , 4 r.4 ",
"OX*.L.<X6.-Xx.n.[ %.2 m.M.*.m.> kXjXzXwXp.B.| z.K uXNXnXlXH s.[.h j.P KXtXVX5.6.x.M.e.L HXyXhX8.L.M.z.v.| z.( +.V <X-XT.Y.M.;XM.",
"oXx.T.GX6.-Xx.#Xg.g.p N.^.x.M.V lXnXBXrXI.>XY.L.N HXNXBXlXm $.[.[.g o.IXnXmXrXK.Y.;Xb.U PXBXmX5.-X:XY.x.r.$Xg.c.` 6X,XP.J.^.>Xv.",
"n.o.S._.1.K.t.b.y p 3 r.o.Y ..x gXrXpX9XO.+.M ) x ).wXlXuX: j [.[.s ' HXeXtX3.O.@...T S lXwXrX8.@.#.....u l.w u 5 (.K.A.Z.S./.x.",
"T v 0.0.T T J K < y - | 1.~ 1.m H b Q b S 3.;.;.C x H x n %  Xh h j.& U c A = #.>.;.4.c ~ D D c >.1.,.1.` p - w - u.U Y R v L 1 ",
"@.#./.6XT.:Xp.5Xz.c.u T.PXVXVX:.Q.Z.1.D R.PXVXmX3.Y.+.z.s.- @Xo X l s.oX%.=.1 <XAXVXVX^ `.F.C.A iXUXZXxXU.#XXX.Xp 7X:XQ.U.D.Y.+.",
"[ / Y.<XY.Y.t./.#.=.V P.AXnXmX;.U.o.O.S H.CXsXmX>.x.d.g.g 3 @     # g $X$.g.1 ,XmXfXyX^ D.y.y.S iXCXBXzXK.M.&.&.y >X=XP.A.U.Y.[ ",
"%.1 M.T.P.6.1.uX5.!.X.K.gX8.!._ i.a.n.B 5.CXsXyX4.M.%.f.l +   t t   t @Xs g.5 <XhXsXsX^ C.t.i.: -XgXrXwXI.N.%.c.p >Xx.Y.i.@.+.' ",
"x.} ^.<X7.E.G.PXCXvXQ.K.P.@.J.L 5XN.N.L !.PXnXVX3.^.x.z.l.O + {.@XX e $X%.M., GXAXnXhXH./.n.M.' :X=XR.1.p.8XoX;Xh.5XY.T.n.n.x.+.",
"S S L ..) M F 1.;.>.O.L L L J , r.5 5 : C 2.;.;.B U A c B % j @X@Xs % ( m S v O.4.Q >.F } 6 u - ] / C C P t.V L 4 t.U C V C Y c ",
"pXH.K.T.7.P...Y.) @.J a.^.u.n.{ ^.z.z.[ [ @.) #.x ).pXtXiXC XX].].$.' GXeXpXC.Z.>.X.#.L >Xl.m.| XXv.*.+.} ^.} +.J /.K.P.x.Z.kXpX",
"SXyX-X,XE.-Xi.>XM.;X{ >X7Xv.;X` 1XM.M.z.m.;Xv.Y.N HXCXNXzXG g.j [.i ` IXzXCX!.U.P.L.x.e.8Xm.#X%.;X1XOXXXb.5XM.;X{ 8X,X-XP.R.UXdX",
"yX9XE.P.7.6.i.N.| | 6 h.#X%.v.] *X+.+.' e.m. .+.J ).lXyXiXS < 9 9 - K HXpXpXG.Z.x. .|  .Y.[ x./ ;Xm.m.d.r.b.'  .1 :X2.6.J.A.xXyX",
"Q A C [ F F C } > ` 5 { ` , 1 * @.F X.C K } > V = T H A S & y r r q 2 O.b D v T P 1 1 > @.) _ M ` 4 K , 4 a.K [ , i.Y X.U x D D ",
"1.U ^.<XP.,XS.6XM.;Xh.N.^.n.I.L <XE.Q.K.^.>XY.:X} (.@.=.o., @X]. Xf.{ _.A.`.0.6X>X^.#X[ JXE.E.6./.(.I.a.a.8XY.;Xi.6X,XQ./.I.U.C.",
"Z.T /.GXW.).i.6XY.;Xe.m.;Xx.n.C bXE.W.Z.N.>XoX*XL (.u.x.t.4 $X].@Xg { GXW.W.P 5X:X*XoX' GXW.!.A./.^.M.z.l.7XXXoX .<X,XR.U./.(.O.",
"T J p.~.1.1.T p./ [ u p ` V L n =.#.2.o.e.d./ [ , t.K K P 7 d z f e 4 y.S T 4 b.[ [ / Z U.~ G.F o.5 ` 1 p l.w ] 1 J.3.<.y...o.L "
};
