/* XPM */
static char *_9487931f7d94bb485b7bb0427083ca6rALYQmHaY4R33bWq[] = {
/* columns rows colors chars-per-pixel */
"64 64 256 2 ",
"   c #31001B",
".  c #1C002C",
"X  c #15003C",
"o  c #1B023C",
"O  c #180135",
"+  c #2B0023",
"@  c #2C002A",
"#  c #24012B",
"$  c #340025",
"%  c #390024",
"&  c #33012A",
"*  c #3B022B",
"=  c #38092D",
"-  c #220234",
";  c #24033C",
":  c #2B033A",
">  c #2C0A3C",
",  c #270637",
"<  c #380438",
"1  c #2A103C",
"2  c #6C0217",
"3  c #780719",
"4  c #6F1014",
"5  c #570526",
"6  c #460238",
"7  c #5A1438",
"8  c #500931",
"9  c #660623",
"0  c #770827",
"q  c #7D1529",
"w  c #67183A",
"e  c #771839",
"r  c #700F33",
"t  c #782236",
"y  c #57001E",
"u  c #1B0243",
"i  c #1A0544",
"p  c #1F1049",
"a  c #250B44",
"s  c #240C4C",
"d  c #280748",
"f  c #360946",
"g  c #2A1149",
"h  c #36114A",
"j  c #250353",
"k  c #2A0455",
"l  c #2C045C",
"z  c #2E0B5B",
"x  c #290A55",
"c  c #320C5D",
"v  c #370A5A",
"b  c #2D1555",
"n  c #32145B",
"m  c #37175A",
"M  c #2D0561",
"N  c #320664",
"B  c #340C64",
"V  c #3A0D65",
"C  c #360C69",
"Z  c #3A0E6B",
"A  c #36016D",
"S  c #351263",
"D  c #3A1365",
"F  c #371169",
"G  c #3C136C",
"H  c #3D196C",
"J  c #371A64",
"K  c #3D0E71",
"L  c #3E1371",
"P  c #3F1973",
"I  c #3D2469",
"U  c #34205F",
"Y  c #450848",
"T  c #5A0743",
"R  c #481257",
"E  c #571859",
"W  c #520E51",
"Q  c #691B48",
"!  c #721A52",
"~  c #4D215E",
"^  c #6C2245",
"/  c #782649",
"(  c #6B2B55",
")  c #41136D",
"_  c #421A6E",
"`  c #481767",
"'  c #581C66",
"]  c #421673",
"[  c #431B73",
"{  c #461C7A",
"}  c #4A1E7B",
"|  c #481A75",
" . c #4C1675",
".. c #46246A",
"X. c #59286A",
"o. c #462273",
"O. c #4A2375",
"+. c #4C247C",
"@. c #4B297B",
"#. c #52237C",
"$. c #562A7B",
"%. c #513579",
"&. c #652869",
"*. c #663278",
"=. c #77377A",
"-. c #6F3071",
";. c #86071C",
":. c #89151C",
">. c #96171B",
",. c #970D1D",
"<. c #A01C1D",
"1. c #95271E",
"2. c #890B27",
"3. c #950C25",
"4. c #8C132B",
"5. c #84192C",
"6. c #881627",
"7. c #9B1B25",
"8. c #94142C",
"9. c #931B2C",
"0. c #9C1B2B",
"q. c #971626",
"w. c #881C36",
"e. c #931C33",
"r. c #991835",
"t. c #8C0C30",
"y. c #A31B28",
"u. c #A51C35",
"i. c #B31E2E",
"p. c #9A2628",
"a. c #8A2438",
"s. c #9B2335",
"d. c #982639",
"f. c #993935",
"g. c #973027",
"h. c #A3242C",
"j. c #A82729",
"k. c #B6262E",
"l. c #A93426",
"z. c #A42435",
"x. c #AB2433",
"c. c #AC2A34",
"v. c #A3243B",
"b. c #AB2C3A",
"n. c #A6293A",
"m. c #B32434",
"M. c #B32B3B",
"N. c #B72B36",
"B. c #AB3539",
"V. c #B4343C",
"C. c #BB343B",
"Z. c #BA3738",
"A. c #C4383D",
"S. c #C52D38",
"D. c #BB413E",
"F. c #CC463D",
"G. c #8A1B44",
"H. c #892848",
"J. c #992845",
"K. c #8A354D",
"L. c #8A3757",
"P. c #953956",
"I. c #942E50",
"U. c #A72A45",
"Y. c #B72C45",
"T. c #AC3244",
"R. c #A9364A",
"E. c #BD3442",
"W. c #BB3A45",
"Q. c #BC354B",
"!. c #B73848",
"~. c #A83956",
"^. c #B73957",
"/. c #AD2D54",
"(. c #8B3A6B",
"). c #AF3A61",
"_. c #C72C43",
"`. c #C43B43",
"'. c #C73748",
"]. c #C43B53",
"[. c #D4394C",
"{. c #984458",
"}. c #904157",
"|. c #B94349",
" X c #B74356",
".X c #AE4B57",
"XX c #994763",
"oX c #9F516E",
"OX c #A94867",
"+X c #BA4866",
"@X c #BB5673",
"#X c #B6536B",
"$X c #B56476",
"%X c #C8464B",
"&X c #D6484B",
"*X c #C94655",
"=X c #D64A55",
"-X c #CA5455",
";X c #D85659",
":X c #D6594C",
">X c #E8554B",
",X c #E75758",
"<X c #EB5051",
"1X c #E9685A",
"2X c #ED6A4D",
"3X c #C55467",
"4X c #D95865",
"5X c #C74D6D",
"6X c #E55C65",
"7X c #F45A66",
"8X c #D87877",
"9X c #CF696E",
"0X c #E76967",
"qX c #ED726C",
"wX c #D7675A",
"eX c #E3827B",
"rX c #4D1E81",
"tX c #4E2382",
"yX c #4F2887",
"uX c #522584",
"iX c #532B84",
"pX c #5A2C86",
"aX c #552C8A",
"sX c #5A2D8C",
"dX c #572785",
"fX c #5C338C",
"gX c #5A3489",
"hX c #592C94",
"jX c #5D3392",
"kX c #5B3694",
"lX c #61358D",
"zX c #62398D",
"xX c #673788",
"cX c #793B86",
"vX c #613593",
"bX c #633A94",
"nX c #6A3D95",
"mX c #65399A",
"MX c #693E9A",
"NX c #64329D",
"BX c #652F83",
"VX c #683BA3",
"CX c #5D31A0",
"ZX c #694199",
"AX c #604789",
"SX c #7448AB",
"DX c #5F458E",
"FX c #8658BA",
"GX c #945598",
"HX c #D57884",
"JX c #8959C4",
"KX c #9568CE",
"LX c #AA78E4",
"PX c #BA8AF4",
"IX c #BD91F5",
"UX c #C393F9",
/* pixels */
"i o @ P.<X<XR.8 X.o.m b m m J J J I o.%.s X X X X s s s s p s I b i m s a s a i O o o u ..%...J J J n U b U I X.8 R.<X>XP.@ ; u ",
"DXd @ w =X,X^.w : d X u u O u u u u u @.I X X X X X X X X X u u i X p X X o X O o O X s %.s u u u u u X i u x : w R.<X&Xw & d AX",
"bXzX# 7 5.*X*XI.T Y c p X o o a u u i I ..X u X X X u o X u i X u X u o X X o X o o X n %.s u u a o X u x c f T I.^.;X5.7 . xXZX",
"B m < Q e 4.Q.^.G.6 f a . - . . u i s i s X X X X X o u o u u u u u u i u X u X X u X s u s s o . # - O u f 6 G.^.!.9.5.Q < m c ",
"g d 6 ! r.u.;.!.U.0 % @ * % * < o u u u u o X i u u o u i u X u u u X u u X u u u X u u u u u O < * * * @ $ e v.!.;.v.r.! 6 : d ",
"; f 6 L./._.n.q.*X!.e 8 w / ^ ( h J x J m x b m n m n n m x x m n b s n n n n n n b n n J n b h ( ^ / w 8 e R.=Xq.x.'./.P.* h , ",
"O # = / ^.[.m.%XC.c.-Xe.5 Q w ( f n x n x j z z z z z n z j j n n z j n S S c S z S z z c c x f ( w w 5 5.3Xb.V.*Xm._.]./ = # . ",
"- # + }. XS.m.=X;X<.&XQ.0 H.H./ h c D S V S c S S x z c c z z k k k k z k j j M S S V D D c ` f / a.H.0 Q.%Xy.;X*Xx.'.W.}.+ # - ",
"o : + L.0XF.p.!.;XA.j.!.J.+X X#X' nXlXnXlXbXnXlXZX] +.nXvXfXvXfXfXgXfXfXfXbX] tXnXvXlXnXlXbXlXE #X X+XU.W.x.A.,XV.p.F.0XK.+ , - ",
"o ; + L.;X1Xc.7.A.%X=Xh.2.u.0.J.W ] | [ ] ] ] { { N Z { ] [ [ ] [ [ [ } ] P C ] { ] | | ] ) _ Y J.y.u.2.h.-X%XA.7.c.>X:XP.+ - a ",
"u ; @ L.;X<XS.%X`.<.%X%X3.Y.x.R.&.} uXC ] uXrXrX} tXtXtXtX] Z uXuX] N tXuXtXrX} } uX] N uX+.+.&.U.k.Y.8.%X&X<.`.=Xk.<X6XL.+ o u ",
"%.g @ 7 ].7Xk.=X0Xj.Z.%Xu.^.V.3X=.sXfXL tXmXvXjXvXvXjXjXjX+.[ bXjX+.] bXsXjXvXvXsXbX#.G vXfXfX=.3XE.].u.`.Z.h.0X=Xi.<X'.w @ g gX",
"m ..< w 4.'.n.!.4XA.%Xh.2 e.8.G.Y V G N C Z C Z L C Z F C l l F Z N C ] C C Z l Z F V B Z B F Y w.3.4.3 n.%XW.4X!.T.`.4.w < ~ n ",
"a ; Y (.6.q.4.;.E.A.-X|.d..XR.OX' fXfXfXfXfXfXfXfXjXsXaXfX+._ fXfXaXvXiXfXfXpXB fXfXfXfXfXfXpXE #X!..Xd.|.*XE.`.2 6.7.9.L.6 d a ",
", f $ P.0XA.0.0._.,.V.|.q J.J.P.R $.O.+.+.+.iX+.+.iX+.@.iXD z iX+.+.iX+.iX@.+.B @.@.+.+.@.@.+.R P.d.J.q |.B.,.E.0.h.Z.wXXX$ > 1 ",
"a > % K.4X7XV.,.'.k.&Xp.6.d.d.H.f H D H G l F H H z F _ D H ] G P H l H H H B z _ S _ _ S F [ f H.d.d.q p.*Xm.'.,.c.1X4XK.% 1 1 ",
"X f & P.6X<X%XV.j.j.;X%Xv.*X].@X' nXzXbXlXG MXlXnX] iXZXbXmXVXvXMXmXZ MXfXMX| iXbXnXlXnXbXzXbXE 5X].*Xz.*X;Xj.x.V.`.=X4XP.% > . ",
"J - & / *X6XC.;X;X>.C.=X;.r.q.J.Y H ] ] ) k ) ) H B B Z K K A ] N L N ] ) [ l Z ] G ) G [ ) ) Y G.y.r.;.*X`.>.;X=X`.6X*X/ $ - m ",
"....< 8 q U.E.=X,XA.7.9.s.T.n.~.&.{ +.N [ } +.} +.+.C uXVXNXNXNXVXjXM { } +.} +.} +.tXN { +.} X.~.v.R.e.0.7.A.,X=XE.b.5.7 < ~ ..",
"x d < ^ w.8.3.i.,X`.V.s.4. X!.@XcXfXjXC dXmXvXfXaXbX{ SXIXPXUXPXIXJXZ jXjXjXvXsXsXmXjXL dXbXfX=.@XT. X4.s.E.`.,Xm.,.q.5.Q < h b ",
"m f < / U.'.u.u.u.q.b.z.2.e.q.a.Y B ] l Z G C G P M l fXSXFXKXJXSXsXl Z G Z Z G Z L Z N C G F Y H.q.9.2.z.M.q.u.r.u.'.T./ 6 f g ",
"d h < XX%XN.m.U.^.q.4XE.e.^.W..XE gXfXjXfXjXsXfXaXP j fXjXjXjXjXjXkXC +.fXfXfXfXfXsXjXbXaXfXfXE OX!. Xe.W.;X8.^.U.b.k.%X{.* h g ",
"k d + {.0X>XC.x.Q.y.&X*X4.J.d.P.R +.+.+.+.+.iX+.@.F j iX+.] } ] [ +.j O.+.+.+.+.+.+.tX+.+.#.#.Y P.n.J.e.*X=X7.Q.v.E.>X1X{.$ > d ",
"x f & K.:X>X%X%X=Xy.%XZ.6.J.e.I.E [ | ] [ l [ [ ] [ H c l j k l l l D o.D c [ ] ] [ H l O.[ _ E I.e.J.2.W.%Xy.=X=X&X>X:XK.$ f d ",
"a > $ P.;X<X[.[.7X`.Z.:.d.^.Q.5XcXgXbXvXpXG nXvXfXbXzXlXvX+.] bXfXfXfXvXpXV ZXvXlXbXsXG nXlXlX=.5XQ.^.s.7.V.`.7X[.S.>X,XP.% d s ",
"O - $ e b.&X_.=X;X%X-X%X;.v.y.U.W ) Z ) G l P C F C Z G G Z C G F H F P B B G Z G C Z l ) V ) W U.y.v.4.|.-X`.,X=XS.&Xj.e $ ; X ",
"u - & H.9.7.2.s.|.c.%X%Xz.].'. XE pXdXsXjXaXsXsXjXZ { vXfXsXfXsXjX] B sXsXfXZ } jXaXjXsXpXpXpXW +X`.].z.%X%XB.W.9.:.>.:.K.& - u ",
"i ; @ oX3X;Xn.9.B.>.j.>.q.b.b.~.E dXsXuXaXsXaXsXaXL { dXuXaXaXtXaX{ { sXuXaXL } aXaXdXaXuXpX#.W ~.c.T.q.>.h.>.B.4.s.;X-XoX+ - a ",
"i d & XX4X7Xx.c.6XZ.&XC.;.d.6.H.W V G V N M C C Z C C F Z N l F C N l G N G C N G Z N l G V V W a.6.a.:.Z.&XZ.0XY.u.6X4XXX@ > ; ",
"@ +   K.W.&Xy.q.;XC.&X%Xs. X X@X=.xXzXbXfXP bXfXvXvXfXvXvX+.P bXbXiXG nXvXvXvXvXjXvXfXF bXlXxX=.@X XR.9.&X&XZ.;X0.y.=X|.K.    + ",
"r e 9 q 3 ;.5.6.p.1.p.9.4.n.z.~.&.` ` ..J j o.[ [ O.o._ o.D n o._ H S o._ o.H o.[ o.[ k ....` &.~.h.n.4.9.p.1.g.:.5.;.3 5.9 e 0 ",
"'.].T.R.!.T.R.8XqXwXn.9.s.*X*X5X(.v R D D D D D D z c D D c k D D G G S S J k c D B D ` v m v (.5X%X%Xb.8.B.wXqX8X|.V.W.!.T.].].",
"_._.Y.u.'.N.Z.1X2X2XC.U.v.]._.5XGXxXxXxXzXbXnXvXMX] +.ZXbXiX[ ZXbXvXbXbXbXZX[ uXMXmXnXzXxXnX*.GX5XS.*Xv.v.E.2X2X1XZ.S.S.u.Y._._.",
"_.'.Q.U.].'.A.qX2X2XN.u.8.Y.Y.^.(.R ` `  .) ] ] P M N P ] Z l ] ] ] ] [ L L N ] { ] ]  .` ` R (.^.Y.Q.8.0.N.2X2XqXA.'.[.M.Y._._.",
"].^./.G.J.w.a.f.g.1.1.6.2 0 0 r E `  .`  .V N { ] [ [ [ ] | ] [ } G l [ { { ] ] { { ] k  . .` W r 0 0 2 9.1.1.g.B.s.4.J.G./.^.'.",
"9 9 5 e 3 J.w.w. XB.-X Xw.H.w.L.-.nXBXnXnX+.] MXkXkXbXbXfXbXMXvXbXiX[ ZXvXkXvXbXmXvXfX) nXBXxX-.L.w.G.5.-X-XB.-Xs.a.R.0 r y 2 9 ",
"+ & % OX-X0X`.7.4XC.-X|.q H.5.H.E v V V D B B G F F B D D B B G G B B H B B D B G L B c ) V D E H.w.d.2.|.;XC.4Xh.W.,X;X#X  * + ",
"g : * P.;X>XN.x.6XN.h.s.d.~.R.OX&.O.zXD [ fXfXiXiXfXiXiXgX] H fXsXiXfXiXaXgX@.B iXfXpX$.pXpX$.X.OXR.^.e.z.x.M.6Xx.c.<X;X{.% > g ",
"d f $ OX4X=Xs.3 e.4.V.W.r.U.T.OX-.$.iXB +.aXtXaXiXpXpXiXpXH F gXyXaXfXiXpXiX+.B aXiXpX$.iX#.pX&.OXU.J.e.W.W.9.e.3 z.=X;XXX$ h a ",
"j f * / 2.u.v.s.e.8.4X*X2.J.v.H.Y D F H C P P Z ] l B F H S F H L L l F G H V z P F F H C P V Y H.s.U.2.*X4X8.e.r.v.q.4./ < d s ",
"u ; + 7 t._.[._.[.3.].s.d.5X%X#XE bXjXbXmXmXmXvXMXG uXMXbXvXjXbXmXvXZ vXbXnX] +.MXbXvXMXvXvXvXE #XW.5XU.z.|.0.].'.'.E.4.7 @ ; ; ",
"u ; @ ^ U.'._.S.i.m.q.U.4.r.7.J.W ] ] { L { ] { ] V G ] ] [ ] ] { L M | ] [ B H { P } H ] ] [ Y J.y.u.2.T.q.y.m.S.'.E.U.Q @ ; o ",
"u ; @ L. XB.>.j.=X`.W.v.t.Y.x.R.&.[ tXC { tXuX} uX} } #.tXG Z uXtX] Z #.+.+.+.+.tX} } M uXtX+.&./.M.T.2.U.C.'.=Xc.q.c. XL.& ; u ",
"i ; + ^ :.F.V.p.4XC.c.z.e. XV.3X=.fXjXZ aXjXmXsXfXvXvXfXfX+.{ vXjXuX] fXvXfXvXfXjXjXiXC bXvXfX=.5XM. X9.x.c.A.6Xh.V.%Xq.e + - s ",
"u ; $ {.;X,XE.z.4Xd.B.|.6.9.9.a.Y ] G N Z G Z ] P B Z F H B l P G G B H G G c V L ] G l ] Z G Y a.7.e.;.%XV.p.4Xz.N.7X;X{.% , o ",
"g > * P.;X>XN.8.U.9.|.%Xd. X|.OXE lXfXfXfXlXfXfXvXF | fXvX+.P vXfXfXzXgXpXvXH +.vXsXlXbXfXpXgXW OX|. Xv.%X|.p.B.8.m.<X,XP.* f g ",
", f < L.4X&X0.0.-XZ.V.*X2.J.d.K.W O.+.+.o.+.iX[ +.B H +.o.D B +.+.o.o.O.[ iXB H yX{ +.O.O.O.o.Y K.a.U.2.%XZ.|.-X0.0.&X4XL.& h , ",
"> > < (.T.h.0.;X;XZ.y.0.r.U.s.I.E _ ) } l H ] [ [ ] _ ] [ ] ] [ ] F l [ [ ] _ [ ] ] _ z ] [ _ E P.J.J.t.z.y.Z.;X4Xq.h.T.(.< > a ",
"d f & w w.T.n.%X;Xj.j.%XU.+XQ.5XcXfXbXMXZ jXbXbXbXlXvXbXbXvXMXvXMX+.{ MXbXbXbXvXkXbXiXH nXvXlXcX5XQ.^.u.*Xj.j.4X*Xx.V.e.w & > a ",
"a ; + w 5.4X].W.b.q.;X%X;.v.3.J.W ] ] L N Z L ] G G H B G L K ] ] C C ] Z ) B P G G F l P G ] E J.q.u.;.*X;X7.V.`.'.4X6.7 + ; a ",
"o . + K.0X&XY.3.x.N.%XB.9.!.`.^.W dXdXuXjXaXaXaXsXZ { sXfX] K vXuXdXaXaXiXpXG P sXdXdXpXaXdXiXY ^.`.W.0.B.-XN.x.;.M.&X0XL.+ . O ",
"O > $ }.;X7XM.3.E.y.B.B.s.T.c..X' fXfXfXsXsXsXaXjXG } fXfX{ [ fXsXsXsXfXpXfX] { sXjXsXvXsXfXfXE  Xj.T.p.B.B.x.E.3.c.,X;X{.$ > O ",
"a > & L.4X[.m.C.W.q.C.;X;.d.s.a.Y c S z N V Z Z G C C V F k z S S c l F c c B G C G C l G V m Y a.p.d.;.=XC.p.W.E.m.'.4XP.$ > ; ",
"g > & L.U.m._.C.%XW.A.*Xd.+X X@X=.gXkXH iXbXvXvXfXbXlXlXbXo.o.zXgXO._ zXzXzXlXfXvXjXiXF ZXgXzX-.@X X+Xd.%X`.`.%XC.`.m.T.L.% > g ",
"d : * / d.!.c.c.7XN.V.T.6.J.w.P.X.o.@.l F } { { } } tX+.+.S S o.@.J S +.O.$.| } { { P l +.O...&.P.a.J.5.B.Z.N.7XB.c.!.e./ * > a ",
"d f & ^ d.E.b.0.,XA.q.6.4.J.d.H.f j @.fXfXjXsXvXvXN C ] ] H H J J F H D d k C sXjXhXhXsXjXpXk < H.d.J.6.9.>.S.,Xp.s.W.d.t $ > a ",
"d -   XX|.,XW.0.4X0.c.0.s. X|.#XY j FXUXPXPXPXUXLXZ aXMXMXnXvXnXbXbXMXiXk D G KXUXPXPXIXIXKXj Y #X|. Xs.h.c.h.4X0.!.1XD.XX  > o ",
"O , & K.;X,XV.9.b.z.*X%X3.0.7.a.< z pXFXJXLXKXJXSXK L ] ] ] G ] ] ] ] B j j N SXJXKXLXJXJXfXj < d.7.0.2.*X*Xz.B.e.n.>X1X{.* - O ",
"d > * K.,X<Xn.3 *Xm.4XY.3.Q.E.P.Y k fXjXyXVXhXhXvXZ ] iXiX] Z uXuX{ M +.$.@.G kXhXCXVXhXkXkXj Y ~.V.Q.3.Q.4XM.*X2 B.<X&XP.* , a ",
"f f & P.4X&X6.!.E.m.Q.;.r.^.!.@XQ : $.| #.#.#.#.BXv X.*.*.` ' xXBX$.` *.&.&.R $.#.#.#.#.| $.: T @X!.].r.;.Q.m.E. X6.&X6XP.* f g ",
"FX*.& (.R.z.E.M.'.i.;.2.t.t.t.w.9 8 6 6 6 T * 6 % 8 / ^ ( 7 T Q Q T T ( e e 7 % 6 6 6 * 6 6 5 9 w.4.r.t.2.;.i.`.c.T.c.R.XX& X.GX",
"$.h & L.5.;XQ.M.E.m.Q.U./.^.R.q 3X8X$XL.e I./ / r 9X9X9XHX{.H.).).I.H.HX9X8X9Xt w / H.e K.$X8X3Xq R.^.^.U.Y.x.C.M.].;Xa.L.< h %.",
"s h # w 6X,Xn.U.Y.].^.5X/.~.5.3XqX9X8Xa.^.).OXt .XeX0XqX8Xf.J.^.^.R.d.HX0XqX8X.Xt OX^.~.a.9X8X8X9Xt ~./.5X^.Q.b.U.v.,X6Xw # a b ",
"p o # oX;X>XU.2 8.3.8.t.2.3 4 f.g.l.q 4 8.8.q 2 f.g.l.l.f.4 4.8.8.9.3 f.l.l.g.f.2 5.2.4.2 q l.1.f.4 0 2.2.8.3.4.2 U.<X,XXX# o i "
};
