/* XPM */
static char *xpm_[] = {
/* columns rows colors chars-per-pixel */
"64 64 253 2 ",
"   c #64193A",
".  c #682537",
"X  c #7B3939",
"o  c #722F3B",
"O  c #5D2736",
"+  c #5A3757",
"@  c #583048",
"#  c #693749",
"$  c #763847",
"%  c #693C55",
"&  c #783A57",
"*  c #6C2E45",
"=  c #723D63",
"-  c #7A444B",
";  c #6A4357",
":  c #734453",
">  c #7B4353",
",  c #7C435B",
"<  c #774A59",
"1  c #7A535A",
"2  c #6E4F4A",
"3  c #6B4A67",
"4  c #744B6B",
"5  c #794966",
"6  c #6C516C",
"7  c #7B536D",
"8  c #785669",
"9  c #774B72",
"0  c #7B5473",
"q  c #775474",
"w  c #6F5272",
"e  c #6F5669",
"r  c #87373D",
"t  c #873A47",
"y  c #853957",
"u  c #842F4E",
"i  c #853C61",
"p  c #88474B",
"a  c #94464B",
"s  c #864759",
"d  c #964956",
"f  c #88565B",
"g  c #98585A",
"h  c #8D504B",
"j  c #A75B5A",
"k  c #AE5E57",
"l  c #9B665B",
"z  c #8A615F",
"x  c #A9665C",
"c  c #B2695C",
"v  c #874A67",
"b  c #954B68",
"n  c #83536B",
"m  c #885768",
"M  c #965868",
"N  c #885875",
"B  c #965976",
"V  c #904C73",
"C  c #A85C67",
"Z  c #A85A77",
"A  c #AC5673",
"S  c #89646C",
"D  c #986669",
"F  c #9B756B",
"G  c #8A6776",
"H  c #976976",
"J  c #98757A",
"K  c #8B7377",
"L  c #AC6B63",
"P  c #A86868",
"I  c #B56866",
"U  c #A77669",
"Y  c #B57769",
"T  c #A76877",
"R  c #B66977",
"E  c #A77778",
"W  c #B77977",
"Q  c #C66B6A",
"!  c #C6766B",
"~  c #C77A77",
"^  c #D27C79",
"/  c #D47B68",
"(  c #9B827E",
")  c #B8846A",
"_  c #A9857A",
"`  c #B88578",
"'  c #B9937D",
"]  c #C78678",
"[  c #D48378",
"{  c #D59779",
"}  c #CA8E72",
"|  c #F9967A",
" . c #E98F76",
".. c #D5A27B",
"X. c #E0A57D",
"o. c #7C6C85",
"O. c #AE5B86",
"+. c #866A85",
"@. c #956B84",
"#. c #887888",
"$. c #977988",
"%. c #8A7C93",
"&. c #977B95",
"*. c #B86A87",
"=. c #A37C82",
"-. c #A97A86",
";. c #B97786",
":. c #AE748D",
">. c #985F82",
",. c #C26B87",
"<. c #C67984",
"1. c #CA7493",
"2. c #988589",
"3. c #988895",
"4. c #99969A",
"5. c #8D888F",
"6. c #AC8484",
"7. c #A3838B",
"8. c #AC848C",
"9. c #A88989",
"0. c #B38383",
"q. c #B38B85",
"w. c #BB8B84",
"e. c #B7878A",
"r. c #AC968A",
"t. c #B8978A",
"y. c #A38C93",
"u. c #AC8C94",
"i. c #A78798",
"p. c #B78A95",
"a. c #A99699",
"s. c #B39B9C",
"d. c #B79697",
"f. c #B8A69C",
"g. c #B7B49E",
"h. c #9B94A8",
"j. c #A68BA6",
"k. c #AC9BA3",
"l. c #A699A7",
"z. c #B49CAB",
"x. c #B79AA6",
"c. c #A99AB6",
"v. c #B89CB4",
"b. c #B58EA1",
"n. c #ABA4AD",
"m. c #AAA7A8",
"M. c #B3A3A3",
"N. c #BCA4A4",
"B. c #B4A4AB",
"V. c #BAA8A8",
"C. c #B9B4AA",
"Z. c #ACA4B3",
"A. c #ACAAB4",
"S. c #A9A8BA",
"D. c #BBABB4",
"F. c #B3ABBC",
"G. c #B7A6B7",
"H. c #ABB4BC",
"J. c #B3B2BD",
"K. c #BBB3BB",
"L. c #BBB4B5",
"P. c #9BA2AB",
"I. c #C88887",
"U. c #D48888",
"Y. c #C79589",
"T. c #D59788",
"R. c #C88B96",
"E. c #D88B94",
"W. c #C89895",
"Q. c #D79897",
"!. c #E3988A",
"~. c #F49988",
"^. c #E79996",
"/. c #F79B99",
"(. c #E48F8B",
"). c #D9A28A",
"_. c #C6A49A",
"`. c #D8A699",
"'. c #DDB198",
"]. c #E7A799",
"[. c #F5A895",
"{. c #E9B798",
"}. c #F6B89A",
"|. c #F0A289",
" X c #C59DA6",
".X c #D79EA4",
"XX c #EB9CA5",
"oX c #C4AAA5",
"OX c #C4ACAB",
"+X c #C7A6A8",
"@X c #D6A7A6",
"#X c #C5B2AE",
"$X c #D9B2AA",
"%X c #C2ACB3",
"&X c #C7A9B6",
"*X c #C7B7B9",
"=X c #D6B6BA",
"-X c #D4AAB7",
";X c #EAAAA6",
":X c #E8B8A6",
">X c #FAB9A7",
",X c #FABBB2",
"<X c #EDACB2",
"1X c #BEC1BD",
"2X c #FAC79A",
"3X c #E8C69C",
"4X c #CBC3BB",
"5X c #D3CCBC",
"6X c #FEC4A4",
"7X c #FDCBA3",
"8X c #FEC5AB",
"9X c #FECBAC",
"0X c #F4C6A5",
"qX c #FCD3AC",
"wX c #FEC5B4",
"eX c #FECCB3",
"rX c #FECABB",
"tX c #FED3B3",
"yX c #FFD2BB",
"uX c #FFD8B2",
"iX c #EBC5AE",
"pX c #A9AAC2",
"aX c #B6ADC3",
"sX c #ACB3C4",
"dX c #AAB8C1",
"fX c #B4B2C2",
"gX c #BAB7C8",
"hX c #BBBBD4",
"jX c #C6B8C5",
"kX c #D6B9C6",
"lX c #CAB5CB",
"zX c #E9BAC2",
"xX c #BBC3D2",
"cX c #CBC5C9",
"vX c #D7C7C9",
"bX c #CBC7D4",
"nX c #D6CBD6",
"mX c #D7D4D8",
"MX c #D2D2CC",
"NX c #E5C8CA",
"BX c #FDCCC6",
"VX c #FBD4C6",
"CX c #E6CCD5",
"ZX c #E7D6D9",
"AX c #F8D9D6",
"SX c #F5CFCF",
"DX c #FFE5DB",
"FX c #FEE7D9",
"GX c #EFE6D4",
"HX c #DCD4E0",
"JX c #E8D9E6",
"KX c #F4DAE2",
"LX c #FEE8E4",
/* pixels */
"g.GXbXxX3.A.4X*XA.K.bXnX:.v @.N G N 9 q & R.-., N & W { { _ A.sXsXJ.t.{ !.Y # 4 < 8.;.& 0 w 7 @.>.@.V  XvXvXD.x.*X4XD.3.gXmXGX1X",
"4X5XL.J.a.lXMXmXjXmXHXJXR.* v v s > < 5 $ e.H % 9 $ T.yXwX`.oX*XK.V.`.wXrX~ . 4 ; :.*.$ 1 1 & v v s * &XJXmXvX%XmXcXjX3.lXK.4X5X",
"W.r.r.a.=.kXcXMXC.K.1XbXp.  ;.;X^.Q.:X].;Xg m S N m W ! W W } U ) w.W <.^ c f G N M g ].`.].T.(.<XW O  XbXcXV.B.MXbX*X$.p.u.r.t.",
"I.:X'.=X=.d.K.m.m.5.4.4.@.* M C k >X2XqX[.g +XOX&Xe.E.(.~ L VX{.{.eXP Q (.U.T +X-X X~ >X7X9X[.j j f # @.5.5.5.A.A.J.a.p.$X'.3X_ ",
"{ 9X3XqXF f.J.dXfXJ.S.hXj.+ w = p ;X7X7X|.c f.V.oXe.^./.U.L 8X0X0X7XC E./.^.E N.D.+XY }.6X6X].r v 5 + c.hXpXgXF.dX1Xa.' uX2X7X) ",
"X.7X2XqX) q.k.n.n.F.aXgXj.@ 3 ; p ].}.{.!.g oXm.+Xe.R Q I L eXqXqXeXj I ! P T D.N.f.) '.{.6XQ.X - 8 + c.sXpXF.n.P.m.r.' 7X7X7X) ",
"} >X'.{.L l U K G % 3 % % i.W.W.U.L l _ U F k.a.z.f I Q Q I I ].].L k Q Q P : x.a.d._ F F F x Y.T.W.:.& 3 3 ; H F U l } {.].}.Y ",
"U U F x Y wXwXBXR.& 9 0 % @XyXeX>XL '._.@Xu.r.d.d.M ~ XXXXQ I I P L ^ /.;XI.% d.r.r.t.+XoX_.] 8X8XVXQ.* 9 3 ; @XrXeX,XL P U U L ",
"oX&X#X-XW.:XiXrXp.* 5 4 $ `.8X6X}.c Y.t.d.q.w.' Y.g P *.*.M 0.t.0.w.P R *.M f I.' ` ` W.d.I.] }.>XwXU.o 5 ; # @XwX8X;X0.-X+X-X+X",
"$.#.$.$.H 9._ 6.E b.v.x.e.P L U x x I.w.I.Y.9X}.wXC * & = % J J -.H & & & # E rX}.7XW I.I.Y.U Y Y U j ;.x.z.s.=.E 9.-.8 3.$.$.$.",
"q w 9 3 6 x.D.K.c.nXZXAX@Xl t.) 0.0.E.Y.I.{ qX2X,Xx , N q 0 K K K K 0 N N 5 I.6X2XeX! <.Y.W.0.E _ w.U $XAXmXcXk.gXjXj.3 w w 4 4 ",
"= 9 9 3 3 %XF.S.n.lXmXmXW.D 0.0.0.W R.E.I.I.[.{.>Xj % 4 3 w 0 G G 0 w w 3 # W >X[.[.Q E.U.Y.;.e.0.0.U '.MXMXJ.l.S.aXc.+ 3 9 5 5 ",
">.i V V % &X*XjXm.5.4.l.$.H I.~ I.j A A A u a r u d p.y.3.2.S & % N 2.3.y.u.M r r p u O.C C j <.] ` J u.4.P.5.l.jXaXv.% V v b b ",
",.,.*.1.y kXmXmXK.n.fXgX3.-.Q.T.E.C R ,.O.y R W R ;.kXV.#XV.i.i.i.y.B.OXV.=Xp.R W *.i O.*.R y E.U.Q.0.a.gXJ.l.L.HXmX-Xs 1.*.*.;.",
"P Z Z B & =XmXmXG.l.G.aXy.J E.I.Q.b b O.A & *.H B -.=Xs.V.s.7.u.u.3.s.+X+X=X;.T Z *.& B T B d ^.U.Y.:.b.G.G.k.B.mXZX+X& M C C Z ",
"L ~ W ` D x.A.J.n.l.v.G.$.D I.~ ;.s & i & V p.8.e.8.zX+X$Xd.E 6._ _ W.-X@XkXe.;.e.p.B & & & y <.~ I.D :.G.G.j.k.J.B.s.D ;.<.W j ",
"{ tX9XyXE b.fXH.m.bXmXZXW.l ^.^.E.y O.B B :.OXOX&Xu.8.e.` Y.>X) ) >XW W p.8.=.=XoX-X:.N B Z d E.~./.M @XZXJXbXl.H.sXa.t.yX9XeX} ",
"{ 9X7XuXJ u.lXgXV.*XvXNXd.g [ <.*.$ v N 7 $.OXM.oXu.J P L ! >X8X9X}.k C T E u.V.f.oX&.N V V s *.Q <.d  XNXcX#Xn.gXgXd.9.tX2X8X} ",
"] T.{ W.f n +.+.N d.t.Y.E $ f v v G i.i.6.7.8.8.8.m P ~ ^ k  . . ./ ! ^ [ P > 8.9.6.E 7.i.j.H n m f - 0.t.W.d.N 0 +.m E `.{ T.c ",
"W ) ) ` H % 9 = 5 BXVXBXQ.M -X&X&Xk.%X%X#Xu.-.8.u.v I.XX^.~ ~.| | [.U.^.^.R.# 8.8.8.u.+X*XG.k.%X&X&XE @XBXBX<X& 0 w ; E ` E W Y ",
"t.#XV.#Xu.8 q 0 n R.E..XT N &XM.f.a.V.x.x.$.7.&.&.1 G H H l  .| |  .P G T m ; i.i.&.-.N.M.M.s.m.n.V.J 0..XQ.R.y q q 0 i.*XOXOXd.",
"r.V.f.C.u.4 w q n & s s , -.oXg.f.r.vXvXvXJ G.G.aX3.z.&Xv.f [  . ./ m G.v.x.%.gXF.G.$.CXNXvX( g.V.#X=.p p y & n q w 3 i.OXM.oXd.",
"t.Y.W.W.E : 4 4 5 B B B v E t.r.' _.SXCXNX#.aXaXfX#.G.G.aXN <././.<.H lX%Xh.%.aXaXS.#.CXvXAXq._ r.f.R b Z B B 4 w w & -._.t._.` ",
"T.7X8XwXT m @.#.@.9 B n s Q.:X3X{._ J y.&.#.A.A.B.5.j.a.j.N $ T I $ N d.a.a.#.S.S.Z.3.y.2.J q.iX3X:X~ y m 7 0 +.#.@.S w.0X0X8X} ",
"..3X2X7XY w.OX%XG.q 8 n p Q.qX3X9XF k.F.Z.F.bXcX*Xy.LXAXLX8.H 8 3 @.d.DXAXDX2.*XMXbXA.Z.F.a._ rX0X7X<.& n 9 q B.%XOXt...0X2X2X) ",
"..uX2XqXU q.V.f.x.8 4 7 > Y.yX9XwXU k.aXF.F.MXMX*Xr.FXAXLX_ l.lXgXD.d.FXFXFXu.*XbXMXn.sXJ.n.0.rX6XeX;.$ +.0 w k.m.f.t.} uX0XqX) ",
"6.9.q.8.N u.C.A.B.0 7 5 m I.Q.Q.^.T d.G.Z.l.1XJ.#X7.OXoX+XJ n.sXfXA.r._.oXf._ &XK.cXl.n.F.a.;.XXQ.Q.R , = 9 8 n.C.C.r.=.e.6.' F ",
"B.z.B.&X+.v.K.G.M.1 1 f s t t t * M CXcXcXA.MXbXNXS ( y.7.i.bXmXbXnXu.u.9.$.H SXcXmXB.vXvXCXN * t $ $ s m v n x.A.L.x.-.G.z.B.N.",
"fXxXpXbX+.o.$.J F $X:X>XU.k d s v @.ZXMXMX#XHXHXCX@.B.*XgXG.mXnXMXmXZ.jXjXz.$.AXHXbXK.MXMXJXS 5 < g I !.{.;X@XM @.$.N j.lXgXgXgX",
"5.#.%.&.9 = v p g 0XeX8X~.^ R P H N s.4.M.5.h.3.i.N l.l.m.3.f.f.f.V.3.l.l.l.G i.3.h.5.B.m.k.n H T W U.[.9XyX;Xp f < 4 N 3.%.#.%.",
", , v & * zXBXyX`.U _ ` U I.[.^./.j ; jXn.Z.P.P.c.3.bXnXcXa.'.2X}.{.2.vXbXnX3.l.h.P.l.v.aX; g [.~.|.! L ` _ U {.VXNXzX  & i 5 v ",
"<.,.1.A   zXAXFX$XD q.9.0.Y  .| ~.(.5 %.gXaXsXhXsXh.nXcXvXt.7X2X2X2XE CXHXlXl.aXsXhXsXhX%.5 (.| |  .x 0.6.q.U {.FXFX<X  O.1.*.,.",
",.Q 1.A . zXAXFX$XJ 9.9.q.W  .| | ^.% o.gXsXsXH.F.3.nXvXMXt.2X2X2X{._ vXnXnXj.S.dXpXsXgXo.; ~.~.|  .L 0.u.q.U :XFXVXzX  O.1.,.,.",
"V B V s o iXDXLX$Xm t._ ` ] |.~./.j + jXaXH.S.H.F.h.nXvXvXr.{.3X3X'.E nXvXnXl.A.S.H.dXZ.gX; j /.~.^.~ ` _ _ U :XFXLXzX  i V v v ",
"o.+.o.+.5 0.e.E E ] Y.T.[ ~ ~ I P M a.L.D.3.S.S.G.+.Z.A.B.3.u.6._ 9.2.G.Z.n.#.V.A.n.a.M.%Xa.B Z R Q ^ ] T...I.U 6.;.-.7 +.+.+.G ",
"hXhXxXlX@.S E E P rXyXBX/.Q r $ o -.LXMXCXa.mXnXHXG n.jX*X%XvXnXNXkX&XjXjXn.J ZXnXmXM.AXvXLXH & u d ~ [.yXyX:Xl -.-.B i.lXhXhXhX",
"pXpXpXaXK K r._ E T.Q.XXE.r h g p E kX*XlX$.kXvXkXG 2.a.u.7.nXmXHXmXa.u.a.2.K 5XcXcXs.*X*XkXH s g p a Q.Q.Q.R.T e.8.E 2.G.Z.S.c.",
"%.%.+.#.8 y.a.t.q.- # & . E.,X:X,XF 2.l.3.l.cX*X*X7.*X*X=X7.F.sXpXfXp.=X*X*X7.$X*XjXk.3.4.$.0.>X;X>X~ o & # > -.d.s.9.K 5.#.%.%.",
"V.*XL.D.M.D.V.C.N.8 7 m p W.rX9X8XD n.fXgXA.MXMX4Xy.LXFXDX9.l.hXgXm.d.FXDXLXy.*XnXnXZ.fXbXm._ 9X2X9X~ $ N N 8  XD.#XV.a.1XC.A.#X",
"d.t.r.r.u.M.B.V.x.8 q 0 : `.yX9XrXF 3.S.P.n.MXcX*X4.GXSXDX7.&.+.K y.t.AXSXAX3.lXbXbXS.l.m.5._ tX7XtXe.& 7 9 4 z.D.B.f.r.r.r.t.t.",
"{ 0X{.iXE -.d.b.u.8 w 4 m 0.T.T.T.E b.l.j.K A.S.c.#.2.7.7.n , R T $ S 8.2.2.#.c.Z.Z.#.l.a.u.Y.T.Y.`.P & q w 0 i.a.s.6.t.iX{.7X! ",
"..2X2XeXE E b.d.a.1 0 7 : D ` U U p.AXAXZX#.gXpXlX3.z.=XjXm <././.I.N kX-Xz.#.hXaXaX&.ZXAXAX6.E _ E D 5 7 8 n i.d.a.` Y.9X}.6X/ ",
"X.2X2XwXR T p.-._ 1 1 1 s 8.$X#X_.oXvX=XkXG v.G.S.5.b.u.x.f /  . .! S x.x.y.%.G.G.z.J kX*X5Xu.+X#X=X8.< 2 1 - 0.8.6.E } 8X2X6X/ ",
"c ) L ] b s n 1 1 @X;X<Xp.m OXa.oX9.a.a.s.$.$.%.%.3 J E E j ~.| | ~.C -.E D ; &.$.$.J s.a.a.3.N.k.OX@.W.:X;X@Xp n 8 - U ) L W P ",
"+Xs.+X+Xp.= 4 < 2 iXtXVXY.f #XV.N.s.jX%X+Xr.8.i.u.1 Y.].]./ ~.|  .~.^ ^.XXY.@ a.:.i.p.OXL.#Xx.&X%XOXF ].eXeX<Xo 5 3 ; 2.C.g.+X&X",
"7.7.=.:.H @.%.#.K ( _ q.T D d.r.d.7.i.i.u.E 6.0.8.f M I I k  .~.|  .Q I I C : 7.8.6.E p.y.i.7.p.p.s.H F ' ' E H @.&.@.S ( ( -.&.",
"M *.Z R y kXCXJXjXm.B.jX&.@.W.} I.T v n v -.W.t.d._ T R j ! eX2X6XwXL C P P e.W.Y.Y.-.m m v H R.I.W.=.a.D.A.v.lXJXJX-Xs T T T v ",
"Z :.,.1.s kXnXmX*X4.c.G.&.T U.] T.T B B V -.Q.T.Q.w.p.p.I.Y._.F U `.W R.R.p.6.W.Y.`.:.V >.M P U.} I.E i.Z.l.k.gXbXHX-Xs 1.,.*.A ",
"9 = = 5 % v.aXD.a.k.x.+X6.W ).!.^.d y V y B <.` W 0.iX*X=Xt.F e.r.J W.=X$X=Xw.W W I.Z = V s g ].|.T.] e.N.N.d.y.J.fXc.% v = = = ",
"4 9 9 9 3 lXpXF.$.NXLXLX;XY.tX8X,Xt *.*.Z u ,.R R W -Xa.V.x.r.u.u.u.d.oXx.#XW Y W *.y O.O.Z a ,X6XeXT.>XFXLXkX$.fXpXpX+ 9 9 v = ",
"5 4 5 5 4 &XaXhX3.CXLXDX'.] 9XwX,Xt A ,.O.i O.Q A ;.kXD.&XN.8.$.$.i.s.*XD.kX<.Z R R i O.*.Z d wX6XtX{ :XFXFXNX&.gXsXc.3 5 5 5 v ",
"D D D D m j.P.h.#.a.M.f.6.U ] ] ~ d b d b u d a a M j.3.3.2.8 ; ; n $.3.3.u.H a a d y b A d d ~ ~ ] U w._.f.3.#.S.n.3.8 S D D D ",
").9XqXrXE i.S.S.H.4.5.h.#.@ # % % D U.U.^ T.8X}.,XP ; 6 3 3 8 K K N 3 6 6 ; E 8X>X>X] ] { I.E # : @ @ &.l.3.h.A.S.A.u.t.yX9X9X] ",
"X.7X}.6XE  XhXpXS.1XH.hXj.+ +.q 0 H Y.T.} { 7X2X8Xl % N w N J S G G N n q < ` 9X2X8XY { { Y.=.4 7 G = v.gXgXgXA.sXjXu.` 7X}.6X} ",
"|.9X7XwXW R.aXgXsXsXsXlX&.@ < < < H Y.] ] T.>X>X,Xj % 9 & , @.-.:.H v & 5 # ` >X}.wXW ] ] W.J : 2 1 + v.hXpXsXgXsXJ.d.Y.rX8X8X] ",
"Y ) ) ` g H 2.5.5.+.+.+.N p.+X`.Q.T I.Y.Y.E E E W d g ;.1.T ;.0.e.e.R ,.I.s f ;.W Y L I.I.Y.E W.@X+X-.G +.o.G %.5.2.H U ` ) ) x ",
"r.r.r.d._ F F E -.V V N & ;XVXBX>XL oXOXOXa.V.V.OXH C XXXX~ P ` E Y <.[.<Xd S #XV.+Xd.@X+XoX' eXyXVXR.$ v V v -.F _ U 6.f.r.r.r.",
"f.g.m.V.t.3X{.3X<.& >.N v W.`.].!.x t.t.r.r.m.m.%XH a Q Q I T.0X:XT.k Q Q p S D.m.V.u.w.t.t._ ).`.;X;.s B b s Q.:X{.'._ s.m.M.g.",
"2.=X*X*Xt.0X2XqX` E z.v.&.@ % $ X {.}.>X[.l f.C.N.e.~ ^ k Q tX3X3XqXx Q ~ ! F V.M.V.) }.}.>X).X $ : + i.G.x.-.T.qX2X3X' =XcX*XJ ",
"7.LXZXCX@X8X0XtXw.-.jXaXj.+ n f h ;XwX>X[.l _.M.+Xp.(./.U.x tXuXqXqXk <./.E.E N.M.OXY }.6X8X^.t b 7 % c.gXjX6.).qX7X0XW.ZXmXKXK ",
"i.kXlXkXW.W.T.).F J aXpXj.* v y h >XrX8X>Xx  X%X+Xe.E.Q.;.R >XT.T.,XC ~ ^.R.H +X+Xf.Y 7X8XrX/.t d v % j.aXc.6._ W.Q.W.;.kXjXkX$.",
"B.G.Z.G.$.6.q.6.=.D.lXnXj.@ ;.;XE.R L R k g M 8 7 < - X X g 0.E E W g r X t v n 8 m L L U I A ^.;X:.@ z.bXjX*X7._ 0.-.J F.A.B.B.",
"4X4XK.gXj.kXZXmXvXcXnXKXb.* N H B * < : o R.;.: 5 m R.Y.' w.*X1XjX#Xd.Y.R. X5 , & p.;.o : : # B M m @  XZXCXcX4XZXZXkX4.H.1X4XcX",
"g.GXMXgX5.L.cX1XV.*XvXvXb.& N n N n 0 0 5 ;.O.= v B SXFXFXf.4.dX1Xm.`.DXAXSX5 v s *.;.> 7 q 7 N m n v  XvXcXgXA.1X4XL.5.1X1XGX1X"
};
