/* XPM */
static char *_83f6aa24f0a45039bec5204bf332c2d45swtUHoqGFBPkjY[] = {
/* columns rows colors chars-per-pixel */
"64 64 256 2 ",
"   c #1B0013",
".  c #2A000A",
"X  c #350108",
"o  c #2A0218",
"O  c #37021A",
"+  c #2D111C",
"@  c #17072F",
"#  c #2C0828",
"$  c #370628",
"%  c #3A172A",
"&  c #2B0935",
"*  c #370935",
"=  c #37163A",
"-  c #2B1832",
";  c #38243A",
":  c #4B0107",
">  c #580306",
",  c #570617",
"<  c #4A0819",
"1  c #670107",
"2  c #770208",
"3  c #6A0517",
"4  c #780817",
"5  c #721715",
"6  c #470927",
"7  c #560826",
"8  c #4A1827",
"9  c #491836",
"0  c #521332",
"q  c #690926",
"w  c #760B25",
"e  c #691829",
"r  c #751827",
"t  c #681837",
"y  c #771735",
"u  c #650735",
"i  c #4A243A",
"p  c #572737",
"a  c #552E2E",
"s  c #682438",
"d  c #792739",
"f  c #6D2F30",
"g  c #5F221C",
"h  c #734737",
"j  c #161848",
"k  c #11184E",
"l  c #391947",
"z  c #2B1646",
"x  c #172955",
"c  c #392548",
"v  c #382954",
"b  c #302F53",
"n  c #1D3865",
"m  c #27386B",
"M  c #333669",
"N  c #4B1D4C",
"B  c #701745",
"V  c #472A46",
"C  c #562946",
"Z  c #4B3649",
"A  c #482857",
"S  c #48395A",
"D  c #563857",
"F  c #56334E",
"G  c #792747",
"H  c #643754",
"J  c #71344C",
"K  c #493A6B",
"L  c #763B6B",
"P  c #344874",
"I  c #1D4068",
"U  c #58455B",
"Y  c #504353",
"T  c #71484F",
"R  c #474766",
"E  c #584967",
"W  c #484877",
"Q  c #564A75",
"!  c #575877",
"~  c #4E556F",
"^  c #6D536E",
"/  c #59657A",
"(  c #716378",
")  c #840508",
"_  c #850818",
"`  c #861614",
"'  c #911114",
"]  c #AB1919",
"[  c #8E2E14",
"{  c #971627",
"}  c #88152D",
"|  c #AE1B27",
" . c #862838",
".. c #962738",
"X. c #8F3231",
"o. c #B52626",
"O. c #A93429",
"+. c #A82938",
"@. c #B72B37",
"#. c #A9353A",
"$. c #B83439",
"%. c #B02A28",
"&. c #B52E19",
"*. c #C93739",
"=. c #D93C38",
"-. c #CE362C",
";. c #E43D39",
":. c #8E4733",
">. c #AD4B31",
",. c #A34D1A",
"<. c #D24B34",
"1. c #ED4C3C",
"2. c #E74939",
"3. c #F64C39",
"4. c #E95539",
"5. c #F4543A",
"6. c #E84F2D",
"7. c #DD6536",
"8. c #E96639",
"9. c #C3451F",
"0. c #8B324B",
"q. c #A73647",
"w. c #B73946",
"e. c #B0354F",
"r. c #873564",
"t. c #C73B45",
"y. c #D53C46",
"u. c #934D50",
"i. c #A84855",
"p. c #B64757",
"a. c #B85757",
"s. c #AF504C",
"d. c #B36A58",
"f. c #93536B",
"g. c #B85A68",
"h. c #AC546D",
"j. c #8C6772",
"k. c #A86667",
"l. c #B76967",
"z. c #B56F75",
"x. c #8F625D",
"c. c #C74749",
"v. c #D84949",
"b. c #DA5449",
"n. c #C84857",
"m. c #D74B57",
"M. c #C85758",
"N. c #DA5657",
"B. c #C65648",
"V. c #E94C46",
"C. c #F64D46",
"Z. c #EC5344",
"A. c #E85749",
"S. c #F45344",
"D. c #F3534B",
"F. c #F95548",
"G. c #E75757",
"H. c #F45654",
"J. c #E84C55",
"K. c #C86659",
"L. c #D86559",
"P. c #DD6650",
"I. c #E86547",
"U. c #F56548",
"Y. c #E66757",
"T. c #F66858",
"R. c #EE7958",
"E. c #CA5867",
"W. c #D95765",
"Q. c #CB5570",
"!. c #E75762",
"~. c #F55360",
"^. c #D76966",
"/. c #DA7668",
"(. c #CD7170",
"). c #E46664",
"_. c #E77868",
"`. c #F26E6E",
"'. c #F7AF3B",
"]. c #F08C58",
"[. c #F9AB48",
"{. c #FBB346",
"}. c #FAB257",
"|. c #D88867",
" X c #D38F6E",
".X c #EF8C6B",
"XX c #FCB567",
"oX c #F6AB6E",
"OX c #D39158",
"+X c #3A5182",
"@X c #3E6488",
"#X c #475689",
"$X c #575A88",
"%X c #53528D",
"&X c #665987",
"*X c #6D598A",
"=X c #586689",
"-X c #596797",
";X c #597598",
":X c #4C6A8E",
">X c #676888",
",X c #777898",
"<X c #6D738E",
"1X c #5276A5",
"2X c #687BA7",
"3X c #7479A4",
"4X c #7175AE",
"5X c #8B778F",
"6X c #A96790",
"7X c #F14C90",
"8X c #D0798B",
"9X c #E56096",
"0X c #6F8699",
"qX c #5B92B4",
"wX c #6688A9",
"eX c #7689AA",
"rX c #7794A9",
"tX c #6889B6",
"yX c #758AB7",
"uX c #6898BA",
"iX c #7697BA",
"pX c #6993A9",
"aX c #69A1BC",
"sX c #75A2BB",
"dX c #7BA3AB",
"fX c #6C9CC3",
"gX c #699AC5",
"hX c #739BC5",
"jX c #7799C7",
"kX c #7193C6",
"lX c #6BA3C6",
"zX c #73A2C4",
"xX c #78A4C9",
"cX c #79A7D2",
"vX c #6BA9D0",
"bX c #888798",
"nX c #B78D97",
"mX c #8787A8",
"MX c #8697B9",
"NX c #9499B6",
"BX c #8B90B2",
"VX c #87A6BC",
"CX c #96A2BA",
"ZX c #A5A0B4",
"AX c #D1858F",
"SX c #E79488",
"DX c #E2A191",
"FX c #FEC58E",
"GX c #869AC6",
"HX c #8F98C7",
"JX c #86A5C5",
"KX c #87A8D6",
"LX c #8FAED1",
"PX c #A1B0CD",
"IX c #96BAE4",
"UX c #ABCAE9",
/* pixels */
"vXcX=X  s.<.9.9.9.&.o.%.O.O.O.[ ` 5 ` 5 g . 3XIX#X#XJX0Xh ,.[ [ [ [ [ X.( LX;XP LXeX+ g 5 ` ` ` [ O.O.O.o.o.&.9.9.9.<.s.o $XKXlX",
"uXuX-Xo M.A.A.Z.4.A.G.G.N.I.P.P.P.L.L.^.(.i P 1XjXkXJX/ DXoX.X.X.X.X.X X^ iXiXiXkXM % z.^.L.Y.P.P.b.).N.G.G.A.A.4.A.A.K.o $XiXqX",
"uXwX$X$ M.S.3.3.1.Z.N.N.A.Z.5.1.4.4.Z.b.E.0 R 1XhXiXiXY |.7.2.2.-.4.Z.^.V ;XsXxX1Xb 9 g.b.Z.2.S.6.5.V.G.G.b.A.1.1.1.S.M.$ $XhXqX",
"uXwX&X$ W.H.D.D.Z.<.{ { | V.D.C.1.S.D.y.q.O 3XjXuXfXeXZ .X4.3.F.3.3.C.m.$ 2XzXuXtX&X0 q.t.Z.D.S.5.5.D.| ' ' *.D.D.D.D.W.$ &XiXqX",
"iXMX&X$ E.N.n.N.G.w.q.w ..W.N.v.N.N.m.n.u.$ 3XKXhXxXGXZ K.&.1.C.3.C.-.{ * 2XxXlXKX4X* h.n.N.m.N.b.N.m.{ } q.c.N.N.n.m.E.$ &XGXiX",
"U E F 6 3 2 _ ) ) ' } w _ 4 w  .d y q < # @ =X;X:X;X-XV |.<.D.C.3.3.H.w.* $X;X1X-X%X@ $ 7 , e d r r _ _ 4 { ' ) ) ' ) 3 6 F U U ",
"a.g.G t M.<.b.A.Z.2.A.v.o.q.9 NXNXmXc E ,XP j j k j @ % _.U.F.C.3.F.D.w.$ j k k k k b ! ^ c 5XNXNXV i.%.v.J.A.Z.A.b.<.B.r 0.a.M.",
"A.c.w  .L.A.H.Z.1.5.5.Z.V.p.c yXjXiXx <XLXiX;X-X-X$Xv o .X-.&.;.3.1.H.p.o b %X-X-X;XwXJXeXx wXxXhXv a.G.D.C.D.Z.S.Z.A.N.} ..c.A.",
"~.m.} } c.o.-.=.V.A.Z.Z.H.p.l jX1X1Xj $XhXgXfXxXjXyXb o SX*.o.V.H.G.G.p.o M GXjXjXxXiXiX;Xk 1X1XjXv a.A.J.H.V.V.=.*.o.t.{ q.v.H.",
"w.q.d t g.q.q.#.+.+.%.] o.q.% BX2X3XS E MXiXjXiXJXeXc o a.s.e.e.e...q. .  R PXiXiXiXrXCX/ b MX-XNX; s.<.' | @.+.q.q.e.p.q 0.#.w.",
"s p V S E ^ ( ( J , [ ` [ [ g T ^ x.g g T Z U S Z F $ . X X 9 * * 9 O . . % U Z S U Z a a 8 ^ j.T g ` [ ` r , J ( ( ^ ^ U Z C p ",
"ZX,X~ UXJXJXJXPX^ O (./.^.^._./.s.l././.(.(.J 6 f.k.g.z.k.9 K K K K = j.z.k.s.k.6 J l.K./.(.l.s.|./.Y.Y._.(.O E PXLXJXiXUX=X>XPX",
";X:XwXzXuXuXiXeXQ 9 (.N.A.1.1.Z.>.O.A.1.V.G.i.> Y.T.G.).(.0 ,X2X2XeXp (.L.U.U.L.,  .L.Z.1.Z.B.O.2.1.5.Z.G.E.$ R yXtXuXuXfXfX:X1X",
"fXxXlXaXgXfXuXn z 6 ..=.5.3.3.F.v.] F.3.3.D.#.1 Z.6.3.H.E.8 BXzXgXJXp K.A.3.6.A.1 ..A.3.3.3.o.*.F.3.3.F.=.{ $ b x wXlXgXgXgXcXlX",
"fXuXuXlXgXcXtXn W 6 c.4.3.5.1.2.$.t.S.3.3.H.0.> Z.3.1.<.i.9 MXgXgXMXp d.<.1.S.v.,  .G.3.3.F.y.@.=.F.3.3.F.$.o W -XqXlXfXgXuXuXuX",
"fXfXzXlXgXgXqXtX$X$ ^.Z.Z.D.H.o.) t.H.1.Z.b.0.q ).G.N.>.h.i eXzXzXMXY k.>.N.G.E.7 0.G.V.S.V.v.' | G.D.Z.H.n.$ W KXgXgXxXhXhXhXiX",
"kXtXkXkXkXgXgXxX$X* g.m.m.!.m.m.W.W.G.!.G.).r.7 0.d d J T c 0XwXwXeXR U u. .G G 6 r.W.G.G.G.!.W.W.W.m.W.W.i.& W jXjXkXiXyXyXyXkX",
"v z v M ! ! ~ / E O , 3 q q q q w ` ` ) ) ` , X X X . j.mXeX0XwXwX;XeXmX^ . . X X , ` ) ) ) _ w q q q 3 3 , o R >X~ ~ ~ K v v v ",
"y y B 0 u.u.h h f g : O C A A N N < :.,.,.,.>.>.,.:.% mXJXzXlXxXcXzXJXHX*XC u.,.>.,.,.,.,.:.< N A A A 9 : : , f h h u.u.0 t y y ",
"y.m.n...B._.R.R.R._.(.s Q -X#X%X%X$ |.XXXXXXXXXXXXoXi mXyX1XxXfXgXxX2X4X*XH oXXXXXXXXXXXXX X% K %X#X$X! u././._.R._._.E...p.m.m.",
"2.=.*.o.-.S.1.1.2.2.N., ! KXfXGX4X= |.}.[.}.[.[.}.OX8 5XW +X4X2XtX4X%XK ^ s oX[.{.{.[.[.}.OX# 4XGXjXKX<X:.Y.<.2.V.V.C.v.o.*.=.V.",
"S.S.H.H.F.3.C.F.F.F.G.3 R zXuXhX4X- OX{.{.{.{.'.[.].8 & j k k k k k b z & f XX{.'.'.{.{.}.OX# 4XcXgXlX~ X.T.1.F.F.C.F.C.H.D.S.C.",
"D.V.V.V.S.2.V.;.V.v.m.7 Q JXuXiXeX- OX{.'.'.'.'.{.OX8 & 4XtX:Xn x P 3X*X  T XX'.{.'.'.{.[.OX% <XjXuXcX! X.T.=.2.2.V.V.1.V.V.S.C.",
"| $.c.w.t.@.t.t.t.w.Q.u ( HXrXVX0XY FXXX}.}.}.XXXXSX0 D &X~ ,XBXNXbXE Z i x.FXXXXXXXXXXXXXoXp ,XNXrXJX>XX.`.$.t.t.t.$.t.t.y.@.o.",
"0.0.0.G G G B y y w q , H 5X5XbXj.f l.s.u.u.:.:.u.0.9 $ . X < a p < X X . T u.:.:.:.u.s.>.s.s j.bXbXbX^ 3 4 4 y y G G G 0.0.0.0.",
"N N l l A N N 6 <  . .q.l.k.k.k.k.X.1 3 , O % $ $ * $ J SX/.K.^.^.^.(.AXJ O $ $ # $ O , 3 2  .k.k.k.k.k.#...q.7 o V A N A 9 = N ",
"eXeXeXyXtXGX5X= r _.Y.A.A.A.G.A.b.G.v.@.q.s >X=X=X<X- x.K.B.Y.A.H.T.G.M.G * >X=X=X>Xp i.@.v.G.G.A.H.Y.A.A.A.). .- MXiXyXeXeXyXtX",
"zXuXsXsXxXjX4X& :.Y.<.Z.S.S.V.Z.V.G.G.m.Q.C MXcXfXVXZ x.>.] *.V.V.=.o.+.r.l GXhXhXHXT g.W.G.A.2.C.D.Z.Z.S.V.G. .- JXfXcXuXhXzXlX",
"yXyXiXiXyXMX3X& X._.$.$.t.n.w.+.{ { e.p.h.C GXvXlXJXU 6Xa.$.+.+.+.+.w.Q.h.c jXlXlXJXD h.h.q.+.{ +.w.c.c.+.@.`. .- JXiXiXjXiXtXkX",
"+X:X~ b E U H 0 X.[ 2 4 2 4 e t t t 0 7 7 6 <X>X<XbXH e s t B t t B y e 7 9 bX0X<X5Xi 7 0 t 7 s t e 1 2 ` ) {  .8 ^ Y E P +X#X+X",
"vXIX>X% SX|..X.X].].R.R..Xu.V >XW W $XD d K.s.a.s.a.s.e = ,X>X=X=X=XQ $  .s.d.s.s.s.(.d A &X~ ~ $XY d.].R.R.R..X.X|..X(.# $XIXxX",
"gXiXK p ).4.6.8.7.7.I.Y.L.e K KXhXhXKX~ u.].4.4.4.A.).d S yXfXcXlXcXyX& a.Y.7.8.A.A._.X.S KXjXhXcX/ d.].7.I.I.8.8.7.8.>.$ W iXgX",
"KX#Xj 0 ).1.3.5.A.I.N.w.+.u v jXgXvXzXR s.T.6.5.6.Z.G.y = m qXaXaXwXm & s.U.1.3.3.2.Y.X.S jXgXgXxXb d.>.O.G.A.S.1.5.5.c.$ j +XKX",
"+Xx K 9 W.H.F.V.o.| { { e.t z jXgXuXxX~ u.T.4.3.3.S.J.} & #XxXuXlX1Xk * p.A.3.3.3.Z.Y. .S GXuXqXhXb d.B.' { | @.H.D.Z.w.$ K n P ",
"m W ! C (.m.!.t._ e.e.q.p.t b hXgXgXcXR i.`.4.F.F.D.!.} l KXkXgXfX1X-XN p.T.Z.F.F.D.`. .S KXfXlXcXP l.K.#.e.e.} e.W.!.p.* &X%Xm ",
"tX3X~ # s q q u u B } ` 5 < U MXrXrXCXU f #.+.#.w.w.p.e = HXMXMXMXMXNX9  .B.w.p.w.+...e Z BXMXrXVXY f ` 4 } B u u u e 7 & %XeXeX",
"=X=X<X^ S c l l l O : > > : g T h h T f 8 6 * * 9 9 O . + F Z V V V Z % X . * l l * $ 8 a T h h T a : > > : o = l A c v M W =X;X",
"sXVXPX/ ~ JXGXHXA H (.K.^./.l.l.|.|.|.SXAX^ $X%X%XW = nXAX8X8Xf.f.8X8XAX6X# K HXyXBX5XnX X|.|. X(.l././.^.(.H v HXGXKX#X+XIXLXVX",
"aXaXpXwXpXiX;XP A J _.<.Z.A.+.w.T.4.4.P.i.H BXkXjX;X% AXQ.9X9X9X9X9X7X9X6X$ R yXjXMX5Xk.L.4.4.P.p._ G.2.b.^.T S >X#XxXuXwXuXuXuX",
"lXuXaXaXuXaXuXeXA 0.Y.2.3.F.@.@.D.F.S.b.g.H MXgXlX2X8 8X7X7X7X7X7X7X7X7Xh.$ Q ;XwXiXbXf.G.F.S.H.@.{ C.5.1.N.0.Z BXwXuXaXuXzXuXlX",
"lXgXxXzXvXuXgXGXA r.c.<.F.C.y.] ] | ] +.0.D yXhXfX,X8 8X7X7X7X7X7X7X7X7X6X$ ! ;XqXsXmXH ..| | ] ' -.D.F.2.@.0.Z VXuXqXlXxXxXzXlX",
"iX2X=X:X;XxXzXJXA f.g.p.m.N.N.E.p.i.p.0.f.D GXuXhX,X9 DX9X9X9X7X7X9X9X9X6X# Q JXzXiXBX5XG 0.p.p.E.M.N.c.n.g.J E JXsXJX;X=X=X;XyX",
"D = - - - ^ <X<XM @ & * 0 0 9 i F F 9 * A &XMXzXJXmX9 f.r.L r.B B r.L r.L & Q BXeXeXBX*X* 9 H H C i 9 9 $ & & b ,X>X( - - - = K ",
"6XJ u.z.g.k.j.i b MXGX$Xb mXHXMXCXS o O 6 T E E U U O . o $ * l l * $ . o O i 9 c V C 9 $   E HXMXHXmXM $X4XyXM V j.k.k.l.f.J 6X",
"8XX.#.Y.T.I..XT v 2XJXJXeXiXiXiXGXS i._.Y.L.g.l.(.K.L.K.h.9 &X$X$X*Xi z.K.K.^./.(.g.L.L./.u.Q KXkXhXJXwXjXLX-Xb u.SXP.T.G.n...8X",
"{ 2 -.S.3.6.R.X.v #XtXuXsXuXlXgXP c a.I.U.S.o.] &.U.T.).q.9 NXiXiXNXp l./.Y.U.-.] ] 4.U.Y.i.= +XqXlXuXzXuXuXm c :..X6.3.C.=.) | ",
"o.] ;.F.3.4.R.f R IXtXlXuXlXlX1Xx c i.%.2.F.2.=.6.4.J.+.0.C MXgXfXrXF l.#.b.2.6.-.Z.5.2.%. .c P 1XgXfXuXzXgXtXR :.].6.3.C.2.] | ",
"G.H.D.S.D.A._.g R xXhXxXgXhXhX2X4XS d +.=.C.S.D.Z.A.y.q.0.9 yXfXgXMXp l.#.*.H.1.F.Z.Z.v.+.y c GXuXlXfXhXhXhXKXS f .X2.S.1.Z.H.G.",
"W.W.N.N.N.W.8X7 W jXyXyXyXyXyXjXHXA i.E.W.N.G.G.!.N.W.^.i.% MXxXxXMXH (.^.N.G.G.G.G.N.W.Q.G c GXjXkXyXyXyXyXGXS d .XN.N.b.G.m.!.",
"_ 4 4 3 2 2 2 : 9 D V F E E D V Z 6 > 2 2 2 ) _ w y r e 6 = =X:X:X=X; s , r w } _ ) 2 2 2 , 6 E Q E E U V = 9 8 > 4 1 2 4 4 4 _ ",
"w.i.s < #.O.%.<.L.B.M.K.s.s.B.B.a.p.%.| ' ' ' w O # Q Q &XBXrXpXrXrXCX,XQ D * O w ' { ' | %.#.a.s.a.a.a.K.K.B.b.<.O.#.} X G p.q.",
"N.q.J 0 ^.A.T.S.5.5.U.U.U.U.U.T.G.b.G.H.G.G.!.q.o =XLX:XP :XVXsXdXVXGX+Xx 2Xv $ p.G.G.A.H.D.b.b.T.U.U.U.S.5.5.5.T.G.!.p.$ H q.L.",
"V.+.r.0 L.4.V.Z.3.3.3.1.1.D.G.v._ @.D.1.C.C.H.q.o >XLXlXwXwXiXsXzXuX@XI #XMXz 6 G.C.5.3.1.Z.y.' v.V.S.5.5.3.5.5.2.H.G.e.$ f.s.<.",
"G.W.f.6 ^.-.*.J.Z.Z.V.H.J.t.+.{ } n.G.D.D.D.~.e.O / LXuXiXJXyX:X:XuXJXiXJXBX- 6 G.C.D.D.Z.G.m.{ { +.y.V.J.G.v.A.J.c.w.0.$ 6X^.b.",
"h.h.^ % i.}  . .....w w y q q e.Q.E.n.n.n.n.n. .o ! JXwXyXyXyXm m 4XyXeXBX,X@ 6 a.c.n.n.n.W.W.E.p.w w y w y ....}  . .s # ^ k.k.",
"s H S ; ^ ^ H C C 0 7 t q w 3 w _ 4 3 > 1 1 2 q 8 V S c b z z & z & c c ; C 9 7 3 1 1 1 3 3 4 _ 4 4 3 q t 6 9 C C H ^ ^ - D T f ",
"l.x.~ JXUXLXGXGXGXK J g.v.v.G.m.m.E.d : s.n.n.E.g.z.h.h.f.6 d e.e. .J j.h.h.g.Q.E.E.n.i.,  .M.b.v.J.v.M.i.C ,XLXMXJXLXIXLX~ x.d.",
"u.f CXJXuXlXfXhXcXM J (.b.H.G.W.W.i.J X e r r e s t y 3 , > O.b.v.$.1 , , G t t d e e e < 0.a.B.G.G.G.N.g.C iXcXuXaXuXuXLXPXf u.",
"T j.<X<X0X0XrXMXeXb a i.q... .d t e J j.( 5XbXNXNXNX*XO  XoX.X].R.R..Xd.# ,XPXNXNXbX<X( j.J e e d  . ...i.i ,XVXrXrX0XrX2X,X( T ",
"~ 0X0X<X<X0X~ ! bXj.g i.q.w r d J < J nX! xXsXaXhXGX$X+  X].7.I.8.8.8.:.  1XKXuXaXsXVX>X5XJ O G s r 3 0.i.s ( bX~ ~ 0X;X;X3X3XQ ",
"rXiXzXzXsXsXwX~ >XT  ./.n.$.T.Y.(.e u.nX=XuXuXlXkX4XQ o .X7.6.6.6.6.8.O.# -X-XjXzXuXsX;X5Xp f (.Y.T.$.n.^. .T <X~ wXaXuXxXxXiXyX",
"zXuXxXkXfXhXGXMX! o r #.w.o.Z.<.(.g T nXNXiXuXhXP k K % |.I.<.V.D.S.Z.L.* M k P iXsXrXCXnX0 e (.<.2.*.t.w.r O E MXiXfXgXfXfXhXxX",
"kXkXyXyXyXtXyXGXyXc 0.#.e.w.).M.(.8 u.nX5XNXNX,Xk %X4X& SX<.) v.m.$.v.(.* 4X-Xj <XNXBXbX6XJ p z.L.W.n.q.q.0.D HXiXyXyXtXtXuXkXyX",
"P m m m m m m P +Xz e ..w ..#.X.G < f T U ^ >X! x M #Xz l.) { { { ) ) p.= K K j E ( / E ^ t 6 J ..#...} ..q l #XP n m M n I n m "
};
