/* XPM */
static char *e752b0ab6d834e57b144f84812ff088dBzRBsrgs7nP59ISU[] = {
/* columns rows colors chars-per-pixel */
"64 64 256 2 ",
"   c #050100",
".  c #0C0100",
"X  c #090900",
"o  c #130100",
"O  c #1B0200",
"+  c #1C0B00",
"@  c #1C1404",
"#  c #1F1B10",
"$  c #240200",
"%  c #2C0200",
"&  c #240B00",
"*  c #2D0C00",
"=  c #330400",
"-  c #340B00",
";  c #3B0D00",
":  c #390500",
">  c #2C1200",
",  c #271705",
"<  c #341301",
"1  c #3C1300",
"2  c #361B03",
"3  c #3C1B01",
"4  c #3C1D0B",
"5  c #341B0B",
"6  c #371E13",
"7  c #3C2303",
"8  c #3B230C",
"9  c #372716",
"0  c #322B17",
"q  c #382D25",
"w  c #431400",
"e  c #431C01",
"r  c #4B1C01",
"t  c #461B08",
"y  c #531C00",
"u  c #591C00",
"i  c #421408",
"p  c #432204",
"a  c #4B2302",
"s  c #49280A",
"d  c #532401",
"f  c #5A2402",
"g  c #542A03",
"h  c #5C2B02",
"j  c #552B0B",
"k  c #5C2C0C",
"l  c #55250B",
"z  c #5A330A",
"x  c #462815",
"c  c #572B14",
"v  c #493618",
"b  c #583418",
"n  c #4B310E",
"m  c #632C03",
"M  c #6A2E02",
"N  c #632D0B",
"B  c #652705",
"V  c #643202",
"C  c #6B3304",
"Z  c #64330C",
"A  c #6B340B",
"S  c #6C3B0C",
"D  c #683A05",
"F  c #733604",
"G  c #73350C",
"H  c #743B0C",
"J  c #7A3C0D",
"K  c #763B06",
"L  c #632D13",
"P  c #643313",
"I  c #6B3512",
"U  c #6C3A13",
"Y  c #6C3C1A",
"T  c #653A1A",
"R  c #733C13",
"E  c #7B3C13",
"W  c #733E1C",
"Q  c #783A18",
"!  c #453A27",
"~  c #573924",
"^  c #412D26",
"/  c #683C23",
"(  c #753D23",
")  c #57451B",
"_  c #4C461B",
"`  c #7B420D",
"'  c #774308",
"]  c #6A431A",
"[  c #754214",
"{  c #7B4314",
"}  c #7C4B14",
"|  c #75421B",
" . c #7C431C",
".. c #7C4A1C",
"X. c #734A18",
"o. c #7F5618",
"O. c #594326",
"+. c #594834",
"@. c #59533B",
"#. c #484431",
"$. c #6D4323",
"%. c #684729",
"&. c #744423",
"*. c #7C4523",
"=. c #7C4B24",
"-. c #73452B",
";. c #7A462A",
":. c #744B2B",
">. c #7C4C2C",
",. c #734A24",
"<. c #7B5329",
"1. c #6B4A33",
"2. c #7B4D34",
"3. c #764B33",
"4. c #695237",
"5. c #795537",
"6. c #6B562C",
"7. c #786334",
"8. c #575343",
"9. c #6D5444",
"0. c #71684F",
"q. c #777467",
"w. c #813D0F",
"e. c #813E23",
"r. c #82440B",
"t. c #824414",
"y. c #854A14",
"u. c #8B4C16",
"i. c #82451C",
"p. c #844B1C",
"a. c #8B4C1B",
"s. c #894416",
"d. c #924C1B",
"f. c #8D521C",
"g. c #875318",
"h. c #93541E",
"j. c #98571D",
"k. c #A25C1E",
"l. c #A3621A",
"z. c #834C24",
"x. c #8B4D22",
"c. c #854927",
"v. c #934E24",
"b. c #8B5323",
"n. c #84532C",
"m. c #8C542B",
"M. c #885727",
"N. c #935423",
"B. c #9A5423",
"V. c #945B24",
"C. c #9B5C25",
"Z. c #92552C",
"A. c #945C2C",
"S. c #9A5C2C",
"D. c #9C562C",
"F. c #844C35",
"G. c #8D5A33",
"H. c #855A3B",
"J. c #875635",
"K. c #935B33",
"L. c #9B5D33",
"P. c #935D3A",
"I. c #955733",
"U. c #A35C27",
"Y. c #A45D32",
"T. c #9C622D",
"R. c #97642A",
"E. c #8C6138",
"W. c #956334",
"Q. c #9B6334",
"!. c #95623B",
"~. c #9B633B",
"^. c #9C6A3B",
"/. c #996A36",
"(. c #93682C",
"). c #A36224",
"_. c #A4632C",
"`. c #A9692B",
"'. c #A36334",
"]. c #A36B33",
"[. c #AB6C34",
"{. c #A36B3C",
"}. c #AC6D3B",
"|. c #A76539",
" X c #B26D35",
".X c #B26C3C",
"XX c #B96936",
"oX c #AC723C",
"OX c #A87439",
"+X c #B37333",
"@X c #B2733C",
"#X c #B6773A",
"$X c #B46E2B",
"%X c #92621C",
"&X c #C87C29",
"*X c #CA7E2C",
"=X c #885B44",
"-X c #925F40",
";X c #876347",
":X c #996846",
">X c #9C764A",
",X c #9C7554",
"<X c #8F7252",
"1X c #A46C44",
"2X c #A96C46",
"3X c #AC7343",
"4X c #AD7943",
"5X c #AC734B",
"6X c #A67748",
"7X c #B37443",
"8X c #BA7443",
"9X c #B37B44",
"0X c #BA7B45",
"qX c #B4754B",
"wX c #B47A4C",
"eX c #BB7B4B",
"rX c #BE7548",
"tX c #AC7A53",
"yX c #A87756",
"uX c #B37B53",
"iX c #B87B53",
"pX c #A86E4C",
"aX c #C17947",
"sX c #B9823D",
"dX c #C9822C",
"fX c #C9863A",
"gX c #D28835",
"hX c #BB844C",
"jX c #B78447",
"kX c #BB8353",
"lX c #B78556",
"zX c #B18D5C",
"xX c #989679",
"cX c #9D986E",
"vX c #B98A63",
"bX c #B3986C",
"nX c #ACAA6A",
"mX c #B2AB6B",
"MX c #ACAA75",
"NX c #B5AB79",
"BX c #BBB37B",
"VX c #9D9662",
"CX c #C88848",
"ZX c #C58959",
"AX c #C89557",
"SX c #D3934D",
"DX c #C49467",
"FX c #C7AD75",
"GX c #979382",
"HX c #AD9D89",
"JX c #BBB485",
"KX c #B4AC8C",
"LX c #C5B986",
"PX c #C8B78F",
"IX c #C3B8A2",
"UX c #DAC6A3",
/* pixels */
"%XsX+X#X6X- e k f d k k < n Q.u.V.K r.+X`.].W.z.y Q b.R.V.h.A.V V %Xj.B.m.=.k Z V.).$X`.{.H s.C.b.G.p < z g j c k e p jX+X#X9XF ",
"R.jX$X[.6X- b &.;.n.&.>.3 :.ZX}.eXf.R.jX+X7XW.G.B n.Q.3X0X}.kXH } hX.XrX~.G.&. .T.+X+X_.wX{ @X@X7XuXn 3 :.&.3.2.2.k p AX].$X9XC ",
"OXjX+XwXyX- L F.;.F.&.5.p 5.ZX@XqXp.S.hX.X7Xm.| I R G A.eX7XZX{ ..lX3XeXm.| I N S T.0X0XiX[ 7X@X8XiXb s <.&.>.3.2.c a vX@X8XwXI ",
"' g.r.{ / - w l l j l c > c z.E z.C C f.t.x.A f A B m R a.t.i.m h p. .i.C m Z Z V C p.p.i.m ` t.r.i.3 > j d l l c w 1 J.{ w.i.u ",
"V ' {  .%.* : w 1 1 1 3 & p ..J R V C ` H { C [ { { | r V M G m V D A m f { { ..[ V K F F H K K J W < + e ; w w t % * <.H t.i.B ",
"jXhXwXlX,X- c F.>.5.-.5.8 %.tXT.|.m.4XhXwXwXQ.AX7XeXtXX.hX9XeXQ.hXjXwXQ.b.AXwXeX^.^.hX0X0X9X9XT.L.pXx 9 5.-.>.>.2.c s bX9XeXeXc.",
"OX9XoX5X,X- k *.| >.$.5.2 $.3Xh.S.t.oX4X}.}.C.CX@X@X1XS oX_..XS.}.}.3XL.s.ZX}.3XW.Q.0X[.}.}.[.f.B.~.4 6 5.&.*.*.;.j p bX].[.7Xp.",
"R.T.V.K.=X- l ;.W *.] %.2 %.A.s.v.E /.OXQ.Q.V._.j.N.K.A R.C.S.x.'.L.L.x.` _.N.S.z.b.}.'.'.}.T.u.u.m.x 5 -.W W | ;.j p >XV.C.S.E ",
"r h B f s $ ; w w w w 3 + 8 U G G A d D A A m F F C Z r S C J M h U A C V V C A V m R G Z h K K F U 5 O 3 1 w w w 1 & s f f f y ",
"<.lX3XuX<X< / -.&.>.&.1.5 4.vX7XiXP.M.^.K.K.A.ZXoXwX:XG.lX3XiXP.6X!.P.A.jXjX4XtX^.:X~.P.P.| lXoX9XtXv 9 1.$.-.>.-.T p zX5XuXpX;.",
"z.kX[.7X:X- ( ;.W n.*.J.3 3.ZX|.iXZ.M.].A.Z.N.ZX}.qX1Xm.ZX}.qXZ.:XK.L.N.9X9X{.qX~.L.'.Z.I.Q hXoXoXuXs s n.=.>.&.>.Y e vX{.2X2X*.",
"D V.h.N.z.: k I U U m A 1 Z Q.N.Z.i.{ a.t.i.y.Q.b.N.b.R C.f.N.{ p.y.t.J h.C.b.N.b.p.a.s.i.G T.f.N.K.a 1 Z A Y U Z h e W.f.N.x.A ",
"} u.h.a.[ d Z A d w C C h D H C A V ` h.f.a.H [ { R [ } u.y.a.K ' g.a.t.M u.t.f.H K C.u.d.a.F H A U k k A m ; g V C V g.u.u.p.' ",
"hX9X@X7XQ.Q.qXuXH.T kX7XoX4X{.W.~.z.{.jX@X7XR.6XK.Q.A.hX0X@XeXV.9X9X4X{.g.AX@X7X/.{.eX#X0X}.Q.W.Q.P.P.uXwX1Xg yX5X9X].hX@X.X9X{.",
"0X9X7XeXL.S.7XuXH.T iX.X[.@X{.G.!.z.3X0X@X7XG.5XK.~.b.hX7X@XqXZ.oX4X5X~.g.CX[.eX/.:XeX@X8X.XA.K.A.A.Z.qX7X|.h yX4X7X].hX8X8X7X'.",
"u.y.t.i.R R i. .b e c.J t.f.i.R W A p.p.` t.J  .R | A f.t.x.z.Y =.<.>.U C f.J p.R [ t.t.t.a.{ [ { E  .i.s.Q w $.| p. .x.s.s.w.i.",
"K V.u...:.% e r e s r f ; d W.p.Z.G f } ` r.w.t.a S } y. .w O ~ O.o 1 >.p.t.V d i.w.K K  .y i.b.p.A.w - N r p e a w = n.x.u.b.V ",
"[.hX@XwX,X< P <.2.5.;.>.a ,.ZX7XaXZ.M.lX4X0XaXeXU >XlX4XlX5.HX#.! HX;XvXuXZX<.<.ZX8X0X9XlXR 7X0X@XeXk a >.&.2.2.>.T a vX7X8X3Xp.",
"R.#X`. X:X= N *.( ;. .>.3 $.kX_.[.h.D /.A.Z.Z.P.a ] z.=.5.! 8.X X @.v 6.=.n.z z E.A.V.V.G.V OX`.[.3Xl e z. . .*.=.N w ZX_. X}.I ",
"h.0X$XXX:X: I  .Q z.{ =.e ,.hX$X#Xh.[ ^.Q.Q.m | &.Y A Z & 9 8.    #.0 & U C X.X.U U ].C.^.S #X+X X3Xs e z.{ i. .*.N r kX$XXXqXN ",
"%XjX$X.X:X- P *.Q c.{ =.p b oX)._.t.b.kX X0X{ 3XwXqX0XwX< 0.0 ! +.9 0.* kX8X8XeX^.p.aX#XqXJ U.l.).{.s 4 >.Q i.i.*.Z a jX X.XpXk ",
"g.].B.Y.-X= N *.Q c.E  .p b ].j._.d.t.'.a.N.S {.2X}.}.~.7 + . HXKX+ . 5 2X.X}.|.I.[ h.d.v.w.).).k.{.s 4 ;.Q Q Q W Z 3 OXC.S.P.P ",
"} Q.x.Z.H.- P *.Q c.Q c.t :.ZX+X#XB.d.2X2X:X>.:XpX1XpXyX5 . 4.LXKX0.  8 ,X^.5XpX;XH.1X|..Xu.CX+X XqXc i ;.Q i.i.c.I 3 6Xb.m.m.W ",
"..^.K.P.H.- k c.*.c.e.F.t 3.ZX_.@XB.a.ZXF.% % % = : = - O + MXNXNXKX, o 1 = = = % $ = G.wXu.0X[. XqXc t 2.*.z.c.c.P 3 >XJ.P.G.U ",
"a k r d a - a g g k L L < p [ F R m ` ^.%.$ R ` r.r.' } 3 v JXMXNXJX@.> } r.r.` ` [ $ &.~.{ U R H R 1 5 b f h f l r > n r y h d ",
":X:Xd &.Y ,.&.$.] $.;.-.8 s {.Z.G.n.4XlX%.O /.SXfXgXfXAXh <XJXMXMXLX<Xs AXfXSXCXSX/.$ 5.lXQ.n.!.Z.!.2 6 -.| R R &.-.%.%.L f 1XW.",
"P.P.B z.Q |  .| =.X.*.;.7 s {.v.Z.i.t.z.b $ T.gXdXdX*XfXm ,XJXnXMXNX<Xa CX&X*XfXfXV.$ b n.{ p.A.b.W.2 x >. .{ z.W ;.b ,.( M Q.Z.",
"J.yX2X2Xm.I z.*.| n.| ,.7 n :Xm.Z.m.'.1X1.$ T.gX&XdXfXAXZ $.PXKXKXJX4.a SXdXdX&XfXR.$ 1.>X{.A.M.M.E.4 6 >.Q x.i.z.>.z :XpX2X5X .",
"3.H.J.!.-.l P N N =.| =.s x ,X=X!.G.3XtX=X% ].SXfXCX9X| * . 0.xXGXq.. & S hXCXCXSXOX- ;XtX1XG.:XE.<X5 x F.( *.N N P p 5.:XJ.H./ ",
"s n a p 7 3 J.Q.n.w y r < * 6 * % a d a 2 O D g.g.%X,.O 9 o   @ @ . . 9 O [ V.g.g.V O 3 a d a % > 5 & < y y ; m.G.G.3 3 a s n s ",
"PXFXLXLXMX_ jXAX2Xf #X#X/.5.x q 8.+.& o o n 6.>XzXzX1., + 5 s a e n 8 + > ) zXzX>X6.v O o & +.9.q x 5.>X#X+Xd 6XDXhX%.LXLXLXLXLX",
"mXmXnXnXcX_ (.' i.C fXfXsX/.v 0 q.# 0 0.xXKXLXBXBXNXIX+.. O.H.z.b.J.~ . +.UXNXBXJXJXJXcX0.0 # q.q ! E.jXfXfXV } ' A.] JXnXnXmXnX",
"mXnXnXMXMX_ X.% [ ' #XdXsXS ,   X # xXJXJXMXMXMXmXMXKX! o b z.E E &.b o %.PXnXMXMXMXNXJXIXxX# X   > ] #XfX#X' X.% ] ) LXmXnXMXMX",
"NXBXBXNXcX) >X/.M.h SXCXjX>X+.8.GXq @ 0 0.cXNXBXBXLXKX#.. O.>.z.>.5.~ . ~ PXJXBXJXNXMX0.v @ q GX@.+.,XkXCXCXh E.!.:X6.NXNXBXNXNX",
"_ O.v v ! 5 6XkXG.w W W T n & + & x > o o + 7 ] 5.4.9   . 0 9 < < 9 # . O 8 6.7.%.7 + o o > x + + @ x / W R w /.lX:X7 v n v v v ",
") 5.>.5.+.> R J U W P b < 4 4.%.:.$.2.;X+.& U } ..,.%.+ 0 o . + @ . . q O %.<.X.X.] O 1.;X>.$.:.%.4.* < / L A X.A U < ;X3.3.5.4 ",
"(.hX@XeX;Xw *. . .m.| H.s / tXL.L.L.7XuX=X% ].SXfXSXsXg < O 5.NXNX;XO $ h CXCXCXSX`.% ;XuXqXS.L.I.1Xx x =X*.c. .z.z.r lXeXqXyX( ",
"h.#X X}.n.- I R R  .R ] < T |.s.x.N._.}.2.% ).gXdX&XdXAXj ~ PXmXFXPX%.e AXfX*X*XdXl.% 2.2X}.d.d.B.m.t 4 / R | [ R C y 9X[.}.2XB ",
"U  .f | U f C f r w h D 3 a b.t.p.[ ` b.b $ `.dX*XdXdXCXg <XLXnXnXBX<Xj jX*X*X*XdX`.% b =.H { y.r.b.3 < h h e a h C f R U k *.B ",
"!.J.a H.G.3X3XuXH./ lX4X] ] kX}.wXM.A.lX4.$ Q.SXCXCXCXAXj <XBXnXmXBX<Xn AXCXCXCXSX/.$ 9.zXM.4XoX@X4Xn %.kX{.g 6X3XqX{.P.3.s E.~.",
"*.| P &.U {.eXqXH.Y hXeXY =.ZX[.7XS.T.lX5.o -.>.>.=...<.2 +.JXmXnXJX+.> n...=.>.>.1.O 9.vXW.oX#X@XwXc / iX3Xh tX3XqX~.( %.~ W  .",
"m V h N k I Q  .k d H t.g j ..J i.G F m.b o % % = = - 1 O , MXMXNXMX, + - = - % % O $ / n.H K r.` ..t c e.G y I  .( Y k P k N m ",
"g.].C.Q.H.= r k h h B N ; ~ :XZ.Z.E r.T.V.W.K.Q.Z.A.b.:X6 . @.JXKX0.. , ~.j.V.A.m.~.'.S.S.J N.h.f.G.t - L u h d l w w 6XV.C.{.m ",
"T.CX+X0XyX% P n.z.n.c.2.4 1.yXG.~.z.[.hX#X9X'._.B.B.S.K.5 , @ xXHX@ # 5 Q.k.j.S.s.ZX8X XeXb.7XS.A.:Xx t H.*.n.n.J.T e DX+X+X9XA ",
"m.].).V.H.= B i.R  .| >.e b /...b.R m.Q.V.S.N.'.B.v.D.I.* 0.0 ! +.# 0.2 I.d.B.B.v.Y.Y.S.W.[ A.y.b.n.p 4 3.W | R *.f w 6XV.T.L.A ",
"V._.).T.;X- B Q Q *.Y &.3 b {.V.T.V.b.m.x.x.t.@X|.|..X2X< , 8.  . +.# , 1X[..X|.Y.x.Z.b.g.g.A.L.T./.s 4 -.W  . . .L ; :XA._.L.m.",
"fXfX X7X,X* Y c.c.c.>.2.p :.SXXXXX8XA.L.L.L.f.hX@X8X XuX* ! KX0 9 HX! , uX X8XrX.X|.'.A.W.R.@XaXXXeXc 4 2.*. . .c.P e FXoX#X0XU.",
"`.)._.L.;X% l Y Y ( I ] < ] 8XU._._.p.{ Q  .S (.f.j.h.m.* O , 4.4.4 + & m.N.d.v.x.a.y.{ } t.'.U.U..Xr < &.Z R R R f 1 yXA.Y._.C.",
"h R A U P j N L s 1 Z V m V { J { C H M.{ z.S V V m h N h g c p s s l k h m m A h U g.r.g.V  .{ ` p.d j N h 1 k V V h S S U U h ",
"n.:Xm.K.n.!.tXyX5.T lX7XoX4X1XI.~.b.4XjX4XeX!.1XQ.A.G.lXkX3XtX$.&.zX5X5XkX{.!.!.>.tXjX@XjXM.6X/.Q.Q.Y pX5X:Xj ,X3XoXOX4XG.K.J.] ",
"z.^.A.L.z.W.3XuXH.Y kX7XoXoX|.b.K.p.9X9XoX7XZ.1Xb.A.b.wX0X3XuX&.=.lX5X|.CX].m.!.z.wX7X.X0Xb.3XA.T.Q.| 1X5X2Xk tX4X9X].OXZ.m.K.U ",
"D g.t.a. .[  ...Z w p.E H b.a.t.a.J y.f.a.a.J a.t.t.a.N.s.s.c.f m b.E u.j.u.t.y.H a.a.d.x.F N.y.y.i.h &.z.I w | { ` } b.t.a. .A ",
"g.4X}..X~.w y f g h u m w U 9X_.[.f.' g.` y.u.oX[.oXQ.C h.u.p.J ` } N.` K #X_.@XA.b.u.t.t.M [._.T.{.k ; B f f f f f r 4X}.}.1Xd ",
"/.kX'.}.pX; &.>.:.J.=.m.w :.ZX].8XV.M.^.A.V.N.ZX[.oX6XU eX[.wXS.9X9X3XR.y.hX[.}.Q.Q.'.S.K.H ZXoX7XuXl t F.*.>.>.>.Y a DX[.}.5Xd ",
"(.jX7XqX:X1 T &.$.2.( 2.p 3.vX}.wXZ.J.!.J.G.I.ZX3XwXyX$.uXQ.5XL.iX3X1XA.<.vX{.iX:X:X~.Z.K.| kX3X3XtXb 8 3.-.-.-.-./ a vX3X3XtXd ",
"V D F G b * 1 e e w r t $ s A C G h Z ] H R Z W C V T r R G Q N A G H C d | M I P U R J R m G A A Y 5 & e w w w t ; < U C F A 1 ",
"g.OXU.Y.-X= l -.Y &.Y -.2 b /.f.Z.[ V.#X XoXQ.m.f ..^.].).U.'.C C ].C.'.N.b.A U /.4X}.[. X@XA.a.a.K.x 5 -.Y | ( ( l 1 6X_.U.^.U ",
"OXjX X8XpX- c >.&.n.&.2.6 5.{.f.W...].sX`.[.Q.=.h =.b.@X#X+XwX{ } kX[..XY.x.I Y <.OX[. X$X#XoXA.N.~.x 9 :.| >.;.2.c a DX].@XwX=.",
"OXjX}.qX,X* b -.&.-.-.3.5 4.6XA.!.&.{.jXoXwXJ.$.T T Y K.eX}.uX| ..lX3XqXZ.( / T ] ^.9X@X$XeX5Xn.L.:Xx 5 1.$.-.-.-.c p bX3X}.tX| ",
"D ' H I / * - e w r ; t > s U M I h h H M M f k P T k N J F Q f h ..F E N P P T j d C M M F A A G I 2 , 3 1 e 1 t = * X.H H S h ",
"' OXU.|.P.1 k &.W | W &.3 b 7X_.}.{ f.]._.@XG i.{.W.n.A @Xj._.u.C.C.).[.A n.1X{. .{ [.).`.)._.Y.Y.|.s 3 &.R R W ( k e 6X[._.'.C ",
"g.9X}.qX>X- l >.&.n.&.;.e >.ZX_.8Xy.T.hX[.7XE Q C ..Z ] kX[.@XC.7X@X+X@XR z.Q G d M.hX[.[.[.CXY.Y.5Xs 7 <.[ =.;.F.l e DX'.8X3XG ",
"M.lX1XtX<X- b 3.-.3.-.3.2 3.lX|.qX*.^.6X{.iX*.Y z $.b %.vX1XwXZ.5X3X4X5XU -.Y P z J.tX5X3X{.iX|.1XyXx 5 5.%.:.-.3.c 7 bX:X5XpXI ",
"a Z h k b & - - - < - 1 & 2 Z B N d g D N P d e e s s e Y h I m Z D m Z r j s p 3 g T P Z V A f B c > O < < < - 1 * & b k N k r "
};
