/* XPM */
static char *xpm_[] = {
/* columns rows colors chars-per-pixel */
"64 64 256 2 ",
"   c #02030D",
".  c #0B000D",
"X  c #000A0C",
"o  c #070204",
"O  c #1B000D",
"+  c #120109",
"@  c #020314",
"#  c #0B0113",
"$  c #000A13",
"%  c #04031A",
"&  c #0C021A",
"*  c #060A1A",
"=  c #130114",
"-  c #1C0013",
";  c #13011A",
":  c #1B031B",
">  c #001618",
",  c #0B1612",
"<  c #24010D",
"1  c #230013",
"2  c #26011A",
"3  c #340E15",
"4  c #0D0F21",
"5  c #381930",
"6  c #032928",
"7  c #0B332E",
"8  c #372A34",
"9  c #14231C",
"0  c #57081B",
"q  c #4C0D1D",
"w  c #670A17",
"e  c #7A191A",
"r  c #6C111A",
"t  c #7C231B",
"y  c #4B0D23",
"u  c #490A28",
"i  c #570727",
"p  c #4B1329",
"a  c #53132B",
"s  c #551327",
"d  c #590838",
"f  c #541333",
"g  c #481239",
"h  c #670A27",
"j  c #760C2A",
"k  c #6A1527",
"l  c #771828",
"z  c #630734",
"x  c #68143A",
"c  c #771535",
"v  c #7E0D34",
"b  c #502B31",
"n  c #792228",
"m  c #792538",
"M  c #064436",
"N  c #371B48",
"B  c #392C52",
"V  c #5D1B48",
"C  c #681A45",
"Z  c #741E4D",
"A  c #452848",
"S  c #4E3256",
"D  c #7A2548",
"F  c #792654",
"G  c #73375A",
"H  c #6B2E4E",
"J  c #633963",
"K  c #144C48",
"L  c #255554",
"P  c #33746E",
"I  c #24665D",
"U  c #4E4B4D",
"Y  c #5B4E73",
"T  c #554867",
"R  c #7A5059",
"E  c #734138",
"W  c #821B1B",
"Q  c #85251E",
"!  c #8C381E",
"~  c #851C28",
"^  c #851539",
"/  c #8F143C",
"(  c #842324",
")  c #852A25",
"_  c #8C2B24",
"`  c #8C2C2B",
"'  c #882528",
"]  c #932C2D",
"[  c #952A28",
"{  c #8A322A",
"}  c #93332C",
"|  c #9A362C",
" . c #872937",
".. c #952B38",
"X. c #8C3536",
"o. c #9C3B34",
"O. c #9B3D3B",
"+. c #963636",
"@. c #A13A34",
"#. c #A33C3B",
"$. c #A83A38",
"%. c #A3362E",
"&. c #9D433A",
"*. c #A3433C",
"=. c #AB433B",
"-. c #AA4739",
";. c #B2483C",
":. c #AD533D",
">. c #8A1A45",
",. c #892646",
"<. c #962846",
"1. c #983845",
"2. c #972955",
"3. c #993757",
"4. c #883350",
"5. c #A73946",
"6. c #A73757",
"7. c #AC3150",
"8. c #8B3D68",
"9. c #A83562",
"0. c #9A4447",
"q. c #9B4D50",
"w. c #A34443",
"e. c #AB4443",
"r. c #A54A44",
"t. c #AC4B43",
"y. c #AB4C4A",
"u. c #A8464B",
"i. c #B34C43",
"p. c #B34D4B",
"a. c #B84945",
"s. c #AB524B",
"d. c #B4534B",
"f. c #BB544C",
"g. c #BC5A4C",
"h. c #B65546",
"j. c #A54A55",
"k. c #B64A55",
"l. c #AB5555",
"z. c #B35453",
"x. c #BC5553",
"c. c #BB5B5B",
"v. c #B65857",
"b. c #BC625A",
"n. c #8E4A6E",
"m. c #A64A66",
"M. c #B85866",
"N. c #B65C77",
"B. c #AC5571",
"V. c #BC6364",
"C. c #B66774",
"Z. c #9F7374",
"A. c #C3584C",
"S. c #C35C53",
"D. c #C75B57",
"F. c #C9534C",
"G. c #C4645C",
"H. c #CA645C",
"J. c #CD6A5D",
"K. c #C76355",
"L. c #D26B5D",
"P. c #D5655B",
"I. c #D1705F",
"U. c #C65A65",
"Y. c #CD536B",
"T. c #C36462",
"R. c #CB6563",
"E. c #CC6B64",
"W. c #C66969",
"Q. c #D36C64",
"!. c #DA6C6B",
"~. c #D76A67",
"^. c #D5736B",
"/. c #DB736C",
"(. c #D87567",
"). c #C86974",
"_. c #CE7273",
"`. c #DB7574",
"'. c #D87977",
"]. c #CF716A",
"[. c #E67969",
"{. c #F97E6B",
"}. c #E47C73",
"|. c #E67B77",
" X c #F67E75",
".X c #E16D6B",
"XX c #3B8B79",
"oX c #48857A",
"OX c #7A847B",
"+X c #DB857C",
"@X c #D5937C",
"#X c #EB8375",
"$X c #EC847C",
"%X c #E7867B",
"&X c #F38474",
"*X c #FC8474",
"=X c #F4847B",
"-X c #FD857A",
";X c #F48B7D",
":X c #FB8B7C",
">X c #F88A75",
",X c #FC917C",
"<X c #EF8771",
"1X c #AC9C78",
"2X c #9E6187",
"3X c #A46188",
"4X c #B86588",
"5X c #B56D93",
"6X c #A35E87",
"7X c #DB7781",
"8X c #C46C88",
"9X c #E77B82",
"0X c #50958D",
"qX c #58AC9A",
"wX c #71AF98",
"eX c #5AB2A4",
"rX c #71BAAB",
"tX c #7A9E9A",
"yX c #71C49B",
"uX c #4BC8A9",
"iX c #57C9AB",
"pX c #58CCB3",
"aX c #4ED2B2",
"sX c #57D1B5",
"dX c #51CFB0",
"fX c #67CAB7",
"gX c #67D2BA",
"hX c #70C8B0",
"jX c #56C69D",
"kX c #6DD3C2",
"lX c #87B998",
"zX c #99B48E",
"xX c #AEAC93",
"cX c #89B5AC",
"vX c #A79A8E",
"bX c #D39089",
"nX c #E48583",
"mX c #EB8583",
"MX c #ED8B83",
"NX c #EC8B8A",
"BX c #E68988",
"VX c #F48B84",
"CX c #FB8C82",
"ZX c #F38D8B",
"AX c #FC8D8B",
"SX c #F68587",
"DX c #EA9288",
"FX c #F4938B",
"GX c #F89287",
"HX c #F88C94",
"JX c #EB9495",
"KX c #F79396",
"LX c #EC8A94",
"PX c #CCA194",
"IX c #ED999B",
"UX c #82C8B6",
/* pixels */
"B B S N V z z i >.>.c  .5.#.~ w.h.:.! :.:.:.) b.K.A.[ z.x.O.l q.s.} } z.x.{ i.G.G.{ :.h.:.{ a.A.u.~ 1.#.~ ^ >.,.z x x d N B S N ",
"T T Y S C ,.Z C 6.6.,.M.LXZXU.W.DX;Xg.@X%X;Xw.mXGX[.p.JXNXW.0.JXFXG.b.DXFXx.E.FXNXr.+X;X@Xl.VXZX'.v.ZXHXM.<.6.9.c Z Z V S Y Y S ",
"S T T B d x C z 2.<. .m.'.|.v.V.|.'.v.!.`.`.w.'.|.R.y.7X9Xc.+.7X'.T.M.nX9Xk.D.|.'.5.(./.].z.|.%XT.c.%X'.k.,.2.2.x C C f A T B S ",
"8 A A A i z z i ^ j j ' #.%.Q _ @.+.~ ] =.$.e u.e.=.) r.a...e 5.e.' l 0.w.] $.5.u.W %.=.+.e o.+._ ( o.#.~ h v v i z h i g A B N ",
"n.2X2Xn.<.9.9.^ 7.7...k.=X=XS.g.|. X5..X=X Xi.;X=X.X:.;X#XP.K.:XAXa.r.+X%XD..X-XCX;.[.*X[.-.}.#XK.g.<X=XS./ 7.7./ 9.9.,.n.3X2Xn.",
"n.N.3Xn.2.6.2.>.7.6./ Y.ZXCXJ.H.CXCX;.}.=X;Xh.%X<X[.h.;X&X(.~.VXVXe.t.MXZXL.[.&X#X:.<X>X#X;.>X:XI.K.;XCXP...7.7.^ 9.9.2.n.6X6X8.",
"H J J V x c c j j ~ r l O.&.) +.=.t.Q *.f.h.{ -.;.;.} g.S.$.o.v.x.` +.D.G.&.-.h.&.{ h.h.r.) a.$.} ) *.o.l k v j z v c k V G H V ",
"G n.n.G D ,.D c 8XU.C.X.G.b.&.l.Q.(.*.s.].G.&._.[.D.$./.!.p.1.'.'.k.c.`./.*.h.`.+X&.b.].l.&..X~.v.0.c.E.1.v.).).>.D ,.m G n.n.R ",
"B.4X5X8.<.k.1.<.AXSX7XU.AXAXR.!.GX;Xg.^.GX;Xd.ZX-X.XA.FXAX~.D.FXAX~.~.AX:Xf.P.CXFXd.%XKX'.z.AXSX}.R.CXCXc.`.SXAX5.3.k.,.m.5X5Xn.",
"8.n.m.D c ~ ~ [ Y.~.D.#.P.P.e.v.I.I.&.t.S.S.O.D.F.F.$.(.!.f.O.T.D.a.F.~.(.-.;.K.D.O.K.g.w.O..X~.c.=.P.P.$.F.!.Y...~ ' j ,.8.8.8.",
"m ,.4.x +.#.o.~ ;.-.*.} ;.i.+.n &.} t p.-.#.e d.A.-.| E.P.;.} K.A._ | E.Q.-.%.S.s.t *.h.s._ | @.~ ] f.;.] &.a.a.Q +.$...c <.,.c ",
"m.N.N.4.'.NXBXy.;XGX^.b.GXGXV.v.FX%XT.mXSXVX&.NXVX#Xg.DX%X(.^.FXAX=.c.DXMXQ.}.ZXNX5.}.VXnXT.;XVXW.W.GXVXb.].FX$Xa.mXZX7X0.N.N.m.",
"m.C.4XD C.BXnXr.'.%XW.v.$X$XM.b.|.9XR.|.AX9X..LX9X'.y.BX#XD./.mXSX5.s.BX7XT.`.9XHX<.`.AX9XY.=XmXU.v.|.$Xb.V.DX}.u.nXmX).4.N.4X8.",
"k k m k X.} ` e ! _ ) ) @.@.( ( $.$.~ .... .l 4.1.<.k n l l ..1.1. .k l n l ..1.1.c ......] [ @.( ( $.%.t t ! [ W ] ] ..l k k h ",
"5.7X'.k.H.}.`.%.[.(.K.g.[.[.d.G.mXw.0 w 0 0 a p s y p f s 0 y s u a y p a y y s p i y 0 y w  .9XG.a.[.[.h.K.|.[.@.!.|.D.k.7X7Xu.",
"k.HXHXW.}.VXSX$.&X:X'.K.,XGXK.W.JXV.0 3 p 8 4 # - 1 O - < 1 1 1 = 1 - 1 O < 1 - # 4 8 5 3 s q.KX_.G.,X:XK.^.CX=X=.SXCX.XR.HXAXY.",
"$.U.U.e.e.c.k.] D.~.x.u.x.D.w.j.W.1.p : lXcXrXK   # . + . # ; . # = ; = # = & % > 0XkXcXb p  .C.s.w.D.c.#.v.R.D.+.k.F.e.5.W.Y.5.",
"~ ..+.[ ~ ] ' ' [ %.] ' [ @.' ' O.l p # K kXkXrXL @   . @ & % # & # % & * @   7 eXkXkXoX@ a r O.' ' ] #.~ ` $.[ _ ' ..~ ..] ..~ ",
"D.$X|.a.D.VX XF.&X*X~.D.=X=XH.D.AXz.a # $ 0XpXsXkXI $ % * % % % @ @ # #   X M eXkXeXhX7 . y u.ZXR.S.=X=XA.~.*X&Xf.;XVXP.e.=X9X~.",
"R.CXAXf.J.ZX=Xf.*X:X/.K.:X:XL.Q.CXx.y = @ K fXdXsXkXP @ * % % % % @ * $ X K fXgXaXkXP @ : 3 0.AX~.K.GX:XH.Q.=X*XA.<X=XP.a.AXCX~.",
"` O.*.l ` *.O.} i.f.w.} :.t.X.&.x.<.s 2 + X XXdXuXiXkX0X> $ * @ * % @ X I gXiXiXdXeX>   - a n V.*.+.t.h.+.O.f.i.} O.1.] W o.O.] ",
"u.V.D.} z.).W.r././.b.y.R.R.r.l.7Xj.z 1 = X M iXsXdXuXkX0X> $ o @ @ $ P gXuXsXiXgXI X = = u 1.7Xv.&.H.E.r.v.}.(.r.].].D.{ V.c.u.",
"_.ZXHXS.'.ZXZXD.:XCX!.J.CXCXG.R.KXM.s < + X , oXpXdXaXuXkXqX, b R + oXkXiXaXaXiXeX> X # - y j.HX].x.AXAXT.`.CX=XD.NXZX|.D.KXHX!.",
"e.U.D...S.Q.R.$.A.F.t.i.D.J.@.&.b.&.s < = X X M pXaXsXdXiXUXvX@X@XvXcXiXsXsXdXgXI X * # = p  .U.5.=.D.K.e.$.F.F.=.G.R.F.o.D.H.e.",
"} y.r._ } r.*.Q ;.-.-.) :.-.} &.z.X.s - = % @ $ XXsXiXdXuXyXPX%X<XPXlXjXjXsXsXeX> $ % = + p  .c.*.{ =.:.) *.;.;.n &.t.[ ) *.r.| ",
"T.NXFXz.).NXDXs.;XGX+Xs.GXVXW.+XFXV.p O ; & & @ K rXrXyXyXzX@X<X<X@XzXlXlXyXhXXX$ * % & ; u 0.KX'.T.VXFXl._.GX$Xd.DXDXE.g.JXDXT.",
"M.NXBXy.c.BX'.y.^.#XE.r.%X`.M.W.7Xj.f 2 ; @ @ @ , tXxXvXbX@X$X:X&X;XbXbXbXxXcX7 $ % @ # : p 4.nXW.b.`.%Xy.T.|.(.s.+X%XG.y.%XnXT.",
"W +.] ' [ +.+._ $.$.O._ =.-.` ` 5. .f - & & % * X U PX%X>X-X*X-X-X*X<X>X#XJXOXX @ % & & - a n 0.} ` =.-.] +.$.=.) } [ [ Q } ] W ",
"$.#X#XS.[.#X$X;.&X&X(.L.;X:Xx.G.FXz.s - # % % @ $ 9 PX@X>X*X-X*X*X{.*X<X#XPXU , * @ % ; = p 0.NXR.f.;X&XQ.!.&X*X-.#X|.[.K.#X|.;.",
";.;X;X(.#XmXFXg.;X:X/.].;XCXg.E.KXl.p 1 ; @ * @ o O q.>X<X*XCX X{.*X*X<X>Xb.3 + & ; @ = - u 0.JX].f.;X;X^./.:X=Xg.VXCX#X/.;X=XF.",
"} V.W.0.X.0.0.) O.*.X.&.r.y. . .1.D s < . # & = q l.%X<X*X*X{.*X*X*X*X*X<X#XE.b o X # . O p n 0.X.{ w.r.+.X.*.&.) 0.w.o.0.V.T.} ",
"r.u.r.X.r.l.s.{ -.t.+.0.G.b.s.X.l.k p - # ; . p bXLX<X*X{.*X*X>X-X X-X*X*X>XGXDXH . @ # O p s q.&.r.b.T.0.X.s.-.{ l.d.s.{ s.w.w.",
"#X:XGXh.%X;X;XA.>X,XI.K.,X;X(._.FX1.u ; % * = Z.KX|.-X>X X:X>X:X-X*X-X*X*X*XSXBXPX3 . & - p n JX+XI.>X,XJ.J.,X-XA.;X:X;XS.<X;X;X",
"[.}.[.;.[.#X#Xa.[.[.g.K.#X<XI.I.MX{ g : % # + 3 C.KX:X<X-X:X*X*X X-X-X X*X>XDXbXb o # & ; f m +XI.J.<X<XA.g.[.[.:.+X#X[.A.#X=X}.",
"{ } +.e { +.X.' -.;.{ ) *.*.n { *.n p : = # = + < E ].;X-X{.*X*X*X*X{.-X>X(.E 8 + + = = 1 u r 1.{ _ &.o.` { =.*._ } o.| t X.[ _ ",
"v.+XBX0.l.BXnXv.%X;XE.v.'.'.b.b.nXl.y 2 ; & & # o + V.VX-X-X*X*X*X-X*X{.,X@X3 o * & # = 1 a 0.LXV.l.'.+Xv.V.MX|.v.BX+Xc.w.BX'.v.",
"].NXNXc.T.DXBXG.VXVXE.G.FXZXT.T.DXv.u 2 & & & % > 8 IX;X<X>X*X*X>X<X*X*X{.JXY , % % % = O y 0.JXW.b.FXFXG.T.CXVXG.MXMXQ.d.MXNX^.",
"| t.p._ | -.y.} -.;.&.} d.f.&.*.b.O.i 2 ; & & % X oXxXxX@X;X>X<X*X<X;X@X@XPXlX6 % % % . O a m V.*.&.d.h.O.o.=.;.} s.i.o._ t.i.| ",
"o.d.a.} :.g.g._ J.L.g.-.g.K.&.&.b.0.f 1 & % @ $ 7 hXcXlXlXxX@X*X>X@X1XzXlXwXcXL @ % @ # - p  .V.w.} b.K.*.h.L.J.} h.h.;.o.d.f.| ",
"J.VXZXK.`.MX;X*.&X,X(.J.VX<XK.].DXv.s 2 ; % @ X I gXjXhXjXlX@XVX;X@XzXyXjXsXgX0X> $ % = = y 0.JX].K.;X;XJ.(.CX&X:.%X;X#XK.ZXVXP.",
"A.#X|.S.L.;X#X-.[.<XI.g.<X<Xb.K.;Xl.s 2 = # $ > eXdXpXdXuXrXxXbXBXPXcXhXiXdXdXfXM X * = = y 0.nXI.g.}.<XK.L.<X[.h.+X<XL.K.}.#XA.",
":.+X%XE.Q.(.^.;.[.[.(.I.[.[.K.J.mXy.s O = & X K fXaXaXuXgXcXU Z.PXb wXgXuXaXdXgXoX$   # = y 0.%XG.K.[.#XJ.L.[.<X:.(.[.(.J.%X|.f.",
"_ y.w.y.s.d.s.*.h.;.r.:.h.h.&.s.s.X.s < . $ > qXgXuXdXgXhXL o 3 p + 6 wXkXaXuXpXrX7 X = - q m x.s.r.h.t.-.s.;.;.*.s.h.s.t.0.=.` ",
"O.c.d.+.s.b.b.*.L.I.d.r.K.G.w.0.V.0.y O . X I hXpXpXpXhXM $   . X * $ > qXgXsXpXgXXXX . O a X.R.r.&.G.K.r.h.L.J.&.G.G.h.O.v.c.O.",
"].ZXKXy.`.FXFXg.,X,X(.J.,XGXJ.E.KXv.s 1 = X qXgXuXgXeXM $ % * % * % $ $ > 0XgXuXuXgX7 X = q 1.KXE.K.GXGXJ.J.:X;Xg.FXCX|.d.ZXVX!.",
"p.W.!.#.f.E.E.e.P.P.g.;.(.Q.t.p.^.1.s -   L gXdXfXqX6 X @ % @ @ % % % @ X > 0XkXuXfXoX# = y <.`.d.-.L.L.h.g..XP.r.E.~.A.*._.~.k.",
"' 5.<.~ ( +.] W =.;.o._ f.f.#.&.p.X.f = 4 qXsXgXqX6 X   @ % @ % @ % @ @   X $ P gXsXfX7 . p  .p.#.o.A.g._ +.a.=.Q ` ] ( ( <.1.' ",
").JXLXc.W.NXNXe.$XVX'.z.VXVX_._.ZXM.d : I kXsX0X> $   # & & & # & @ @ @ # . @ $ P gXkX0X. y 0.KX_.).ZXAXx.^.ZX$Xy.BXHXR.l.KXHX).",
").LXIXM.R.mXmX;.$X%X+Xq.%XMXW._.LXM.u 2 tXhX0X> @   # - & & # & & # & . . . &   @ P cXcX8 3 4.KX'.).mXmXs.C.VX#Xp.%X9XR.M.LXLX).",
"^ ..<.j ] | ..W | *.&.t | | ' O.u. .h 2 9 8 % : : 1 < 2 1 2 1 - 2 - < < 2 < 1 1 = * 9 9 3 q  .5...` %.| t &.:.$.Q | %...~ <...^ ",
"1.6.6.' U..X~.a.<X(.b.h.[.<Xd.t.|.u.w w 0 q a i 0 h w 0 i s s s i i h i y 0 h w h z i 0 w w ..|.d.A.<X[.s.g.[..X-.~.[.D...5.u.<.",
"j.).N.1.'.SXSXa.<X;X(.b.,X;XJ.R.AX.X<.U.U.M.,.M.M.k.6.Y.M.j.1.M.M.3.2.M.M.j.6.Y.Y.<.M.M.M.O.!.GXE.L.>X>XK.].CX=Xa.VXHX7X3.).N.0.",
"G 4.G D M.M.U.1.c.l.0.0.G.T.j.0.b.b.y.W._.).m C.C.z.0.).).j.j.8X7Xj.j.).C.l.l.).)...C.).W.u.E.c.w.j.R.K.0.0.x.c.1.V.).B.m 4.4.H ",
"x D F x h l j j +.O.X.n t.=.` ) &.*.Q +.O.&.r X.X.+.) p.s.X.n `  .e ` l.l.{ X.O.1.w X.*.O.( | *.{ ' ;.i.n  .5...r j j j x D D x ",
"B.4X5Xm...k.$.$.SXAX`.x.,X,XK.I.:X>XA.#X:X#X&.@XVX[.P.:X,X[.~.;XCXF.D.CXAXL.(.;XMX| +X;X<XS.>X&X^.K.>X>XS.`.AXSX5.5.k.<.m.8X8XB.",
"B.4X4Xj.<.7.<...SXmX}.A.<X<XK.K.<X<XK.%X:X[.} BX=X[.F.-X*X(.(.>XCX;.S.=X;XK.(.;XVX| +X%X<Xf.=X&XL.K.>X<Xg.`.9XSX$.5.7. .9.4X4Xn.",
"C F H V h h j h <... .n { { n { &.*.) &.&.} e 0.$.$.| :.t.#.@.t.e._ _ :.r.{ &.-.=.t { &.&.t &.*.X.l ` [ c  ...<.j j z h C H V x ",
"G n.Y F D 2.2.x ,...c 3.)._.l.l.nX%Xq.l.H.E.O._.!.D.*.'.`.d.e.(.~.p.v.].'.r.g.I.].&.G.G.b.&.%X%XV.q._.).j.c <...c ,.2.F F n.n.J ",
"n.3X2XG 3.9.9.>.7.7...U.HXZX).W.CXVXb.+X;X;Xg.mXCX|.K.DXVXL.F.CXCX.X~.mXZXS.(.,X$Xx.%XVX@Xg.VXVX`.R.CXAX)...7.7.^ 6.9.2.n.2X2Xn.",
"R n.2XF ,.2.>.v <./ ^ 5.~.P.d.#.D.S.o.z.J.S.*.!..XK.t.J.Q.F.$.}..XF.S.!.Q.i.S.(.!.a.A.P.g.$.D.H.#.p.R.~.5./ <./ ^ 2.2.Z G n.R G ",
"8 N A 5 u d i i v ^ j j ' W r e ~ W w X.&.O.n 5.$.$.Q &.7.%.] w.e.~ ' y.5.' %.$.5.( @.$.[ r ' ~ ( r Q ' j j j j i z d g N A A 5 ",
"T T Y S Z ,.Z C 3.2.,.m.NXHXW._.NXZXp.'.ZX%Xx.NXHX`.&.KX9X!.'.JXLXu.z.NXZXk.~.ZXZXS.VXVX|.d.ZXNX_.b.NXNXB.2.2.6.x F F V S Y Y S ",
"T Y Y S V F Z z 6.2.,.B.NXVXT.].ZXmXe.}.#X#Xx.$XmX/.w.ZX9X|.^.%XNXw.k.NXHXx.H.DXmXp.|.=X|.y.NXNX`.U.VXZXY.<.9.2.C Z Z V S Y Y S ",
"N B B N d z d d v ^ j ..k.a.@.5.y.F.[ ;.a.;.[ #.-.@._ S.F.a.| &.0.e +.M.D.#.| *.*.[ ;.F.e.[ d.s.=.| a.p.<.j ^ ^ z z V V N B B B "
};
