/* XPM */
static char *_8f713f93c944d68dd0fee59a5ab44bceNDpYOdAT5wu0wt1[] = {
/* columns rows colors chars-per-pixel */
"64 64 236 2 ",
"   c #3D0C3C",
".  c #3C0836",
"X  c #440B3C",
"o  c #4B0C3C",
"O  c #470737",
"+  c #530E3B",
"@  c #580C3A",
"#  c #47113E",
"$  c #58133F",
"%  c #3B1443",
"&  c #470F42",
"*  c #560E42",
"=  c #4D1443",
"-  c #4D1946",
";  c #4C1B4C",
":  c #471648",
">  c #541444",
",  c #5C1444",
"<  c #541A46",
"1  c #53164A",
"2  c #5B154A",
"3  c #531B4C",
"4  c #5C1B4C",
"5  c #5C1B45",
"6  c #4C1D52",
"7  c #551E51",
"8  c #5B1E52",
"9  c #641546",
"0  c #631946",
"q  c #631C4C",
"w  c #6B1C4D",
"e  c #691747",
"r  c #721A4D",
"t  c #621E52",
"y  c #6C1D52",
"u  c #731D53",
"i  c #771F5B",
"p  c #5B214E",
"a  c #57234E",
"s  c #4D2354",
"d  c #542355",
"f  c #5C2354",
"g  c #552956",
"h  c #542558",
"j  c #5B2559",
"k  c #5C2A5B",
"l  c #5A2A58",
"z  c #542B57",
"x  c #63224D",
"c  c #6C224E",
"v  c #642454",
"b  c #6B2354",
"n  c #642A55",
"m  c #6B2956",
"M  c #632559",
"N  c #6C2659",
"B  c #632A5C",
"V  c #6B2B5C",
"C  c #722455",
"Z  c #732955",
"A  c #73265A",
"S  c #742B5B",
"D  c #7A2C5C",
"F  c #7B2657",
"G  c #64315E",
"H  c #6C315D",
"J  c #633156",
"K  c #74325E",
"L  c #7A315E",
"P  c #5C2C61",
"I  c #5D3263",
"U  c #5E3368",
"Y  c #662D61",
"T  c #6B2D62",
"R  c #692560",
"E  c #742D62",
"W  c #7A2E62",
"Q  c #643363",
"!  c #6C3364",
"~  c #6B3569",
"^  c #6C3C6C",
"/  c #673968",
"(  c #733364",
")  c #7B3364",
"_  c #743865",
"`  c #74356A",
"'  c #7B3569",
"]  c #743B6C",
"[  c #7B3B6B",
"{  c #7B3965",
"}  c #6E3E71",
"|  c #7C3D71",
" . c #753D71",
".. c #6C426D",
"X. c #7B426C",
"o. c #76406C",
"O. c #754372",
"+. c #7C4474",
"@. c #7C4975",
"#. c #7C4A7B",
"$. c #79477A",
"%. c #754B7B",
"&. c #832D5D",
"*. c #83325E",
"=. c #833464",
"-. c #8B3465",
";. c #823A66",
":. c #813569",
">. c #8B366B",
",. c #833C6B",
"<. c #8B3C6C",
"1. c #8A3A66",
"2. c #933B6D",
"3. c #97396C",
"4. c #833D71",
"5. c #8C3B72",
"6. c #993D72",
"7. c #842E62",
"8. c #A13F72",
"9. c #83426D",
"0. c #8C416E",
"q. c #834475",
"w. c #8A4473",
"e. c #8C4A76",
"r. c #81467A",
"t. c #844B7B",
"y. c #8B4C7C",
"u. c #874679",
"i. c #934474",
"p. c #934C7B",
"a. c #9D4C7D",
"s. c #974578",
"d. c #84517D",
"f. c #8B517D",
"g. c #95527F",
"h. c #9B527D",
"j. c #97416F",
"k. c #A44C7C",
"l. c #A64676",
"z. c #A4527E",
"x. c #A9517C",
"c. c #B34D7C",
"v. c #7C5184",
"b. c #854D82",
"n. c #8A4E81",
"m. c #954D82",
"M. c #9A4C82",
"N. c #855383",
"B. c #8C5383",
"V. c #8C5B8B",
"C. c #895887",
"Z. c #945384",
"A. c #9B5383",
"S. c #935A85",
"D. c #9B5B86",
"F. c #945589",
"G. c #9A558A",
"H. c #935B8B",
"J. c #9B5C8C",
"K. c #9B5E92",
"L. c #985C92",
"P. c #A44E80",
"I. c #AB4E82",
"U. c #A35484",
"Y. c #AB5384",
"T. c #A45A86",
"R. c #AD5985",
"E. c #A4558A",
"W. c #AC568A",
"Q. c #A45B8C",
"!. c #AC5B8C",
"~. c #B35485",
"^. c #B35C8C",
"/. c #B75989",
"(. c #A45D92",
"). c #AC5D92",
"_. c #AA5690",
"`. c #B35D92",
"'. c #B55D97",
"]. c #B04F82",
"[. c #8C608D",
"{. c #95648E",
"}. c #99638D",
"|. c #8B6494",
" X c #8D6999",
".X c #946393",
"XX c #9C6394",
"oX c #9C6B95",
"OX c #9B659A",
"+X c #936A9B",
"@X c #9C6B9B",
"#X c #956698",
"$X c #9A729B",
"%X c #A3618D",
"&X c #AC618E",
"*X c #B3628F",
"=X c #A36394",
"-X c #AC6393",
";X c #A36A96",
":X c #AB6A96",
">X c #A5669A",
",X c #AB669A",
"<X c #A46C9B",
"1X c #AB6B9C",
"2X c #B46394",
"3X c #BA6394",
"4X c #B46895",
"5X c #B36599",
"6X c #B36B9C",
"7X c #BA6B9B",
"8X c #BA6798",
"9X c #A4719D",
"0X c #AA719D",
"qX c #A47797",
"wX c #B2719E",
"eX c #BB709D",
"rX c #9D6DA2",
"tX c #9C73A2",
"yX c #9773A5",
"uX c #A46DA1",
"iX c #AA6EA1",
"pX c #B46DA1",
"aX c #A473A3",
"sX c #AC73A3",
"dX c #A579A4",
"fX c #AD79A5",
"gX c #A475A9",
"hX c #A37BAC",
"jX c #AB7BAB",
"kX c #AB76AA",
"lX c #B475A4",
"zX c #B47BAB",
"xX c #B577A7",
"cX c #B57CB1",
"vX c #C06898",
"bX c #B181AF",
/* pixels */
":.w @ =.=.=.-.*.=.S ( o f O.^ } ^ Q < ( ' ' ,.9.> q A S q + i.-.-.0.x < Z C b O ;.;.[ ' ' 4 Y ^ ^ ^ O.f O K ) =.*.*.=.-.=.e , ) ",
"5XA b 5X!.!.^.!.!.E.1XM  .jXrXrXrX@Xq.;X,X-X-X:X4 q.-X&XF.m !.^.2X2X' 9.-X-XG.> %X-X-X,X1Xr.H.gXrXtXkXO.v -XQ.T.&X!.Y.!.7X) t -X",
",X) b Q.!.).Q.E.(.G.>XM ] aXrXtXgX#X .>X>X=XQ.;X2 q.).J.Z.M E.W.Y.!.' q.(.E.Z.1 J.%X(.(.<Xr.C.uXtX+XaX] B K.G.Q.E.).!.E.(.E N ,X",
"4 o * t 2 2 2 t 4 4 8 X ; h h h k d 3 f 1 8 v v X 1 4 4 1 o q 9 9 9 > > q q 8 X v v v v M 3 ; Q h h j - = 3 4 4 t 4 2 , t * O t ",
"A.Q.G.Z.J.y.= B.S.{.H.H..XV.H.V..Xj ! S.S.S.S.J.f q.A.D.B.B.w.i.s.<.y.S.A.A.Z.4 S.S.F.F.f.o.g C.C.L.H.H.L.H.XXS.S.# u.J.f.J.=XZ.",
":X=X1X1X0X<X3 @XaXaX<XaX9X9X<XaXaX^ t.lX<XsX;X0Xf H.lX:XaX;XD.7X7XQ.XXsX-X:XsXa }.0X1XsXsXB.k jXaX<XaX<XaXaXaXkX<X- <XiX<X1X<X:X",
"y.B.B.B.#.O.& #.C.N.C.C.C.V.N.C.V.h k H.B.B.B.S.7 ] t.t.C.t.4.,.,.q.+.N.B.y.b.& N.S.n.n.B.] ; N.C.t.V.C.C.V.N.C.#.  $.t.n.B.B.B.",
"m < > v M 8 M M j j f = 1 f n f B 8 v t * > v 4 8 M N N 3 1 ' =.=.:.f = N v 8 f p p > * t v 8 k f f f 1 = f f f M M 8 M M < = n ",
"4XD C 4X`.`.!.'.'.W.8Xw =.4XT.T.).-X).2X1.7.3X!.2X).^.2Xi.w 3X/./.3XC ) 8X!.5X).!.2X-.&.vX^.).).&XT.5X=.F 8X_.`.'.W.`.).7X) c -X",
"4XD C !.!.Y.`.W.W.W.2XF 1.&XT.T.).Q.!.!.=.=.*X!.Q.!.`.`.w.w /./.~.^.L ) !.!.Q.).U.*X>.7.3X^.!.!.!.T.&X=.C `.`.^.W.2XW.!.!.D Z &X",
"b + > b 2 b V 8 B M v o > x v v f M v v > > v f k k v v - X S w w m : # n B k k n n > * q b v M v x v 2 o v v M v V v 4 b > O m ",
"p.A.p.y.y.q.X t.t.d.f.S.Z.Z.y.` 3 d.@.d.B.B.B.d.  #.B.B..XN.[ w.e.X.#.[.d.N.V.: d.d.B.F.y.y.4 ! f.e.y.B.B.d.t.B.t.X +.y.e.g.g.p.",
"3X^.2X2X6XQ.< ;X0X0X:X6X-X6XeXZ.! zX1X1X1X1X0X<X; XXlX1X<X<XG.4X2XT.}.sX0XsX<X; oX0XsX:X1XxXB K.6X6X:X-XwX:X:X;X;X$ J.:X4X2X2X2X",
"j.k.s.<.i.,.+ 9.e.e.p.g.p.p.p.' < t.t.F.Z.y.f.t.   .t.y.B.B.,.1.<.<.y.f.y.y.+.X d.f.F.y.y.y.> ] y.p.p.p.p.y.e.e.w.O ;.i.i.s.s.i.",
") , 9 =.D C C D D C N > m V T B k j f X 1 k B Q P P M M 3 X y.5.1.i.f = V M P P Q k B M 3   h j B B ! ( > b C C D C A C ) b + S ",
"pX( N 6X-X5X).).).5X).T G.sXiXuXuXuXzXB t.kX<X@XaXrXuXsXC.: 1X,X5X6XY ^ sXuXgXrX@XaXuXaX.Xj kX@X<X<XiX;XN E.-X2X-X).-X-X6X' v :X",
"=Xv v G.G.Q.G.K.E.E.G.R F.=XK.OXL.OXOXj #.#X#XOXOXOXL.>XO.  =X(.Q.,Xk Q @XL.L.OX#X@X#XOXV.6 #XOX;XJ.XXK.N A.E.G.J.J.Q.A.%XV 4 J.",
"b q 2 q b q 1 V b b V = f ! V B ~ Q Q d h k k k 7 Y B B g ; 8 2 q q - ; k B ~ 7 j Q k B h ; ~ B H V T k o b C b B 1 y b x 0 , A ",
"k.R.~.Y.W.s.+ g.T.T.;XX.J qX{.{.oX.XoX@XoXoXoXH.. {.;X;X.X{.p.U.U.p.S.oXXXJ.<X= #.@X.XoXoX$XoXoX{.{.@XQ ( -XQ.Q.G.* s.Y.Y.W.W.I.",
"/.^./.^.W.U.+ =X4X*XwXX.a qXoXoXoXaX9X<X<X<X<XF.# <X0X<X@X<XE.2X2XQ.}.9X<X1XzX> t.0X<X0X<X0X<X0X;X9XaXB ` wX-X:X1X2 M.W.2X^.'.`.",
"D A W W S S > B ) ) ' V p ( _ ( ` H ( ` ( ( ` T X Y ] ~ / G N A b m G / ~ ] ] X T ( ~ ~ ! ( E ( K _ ] f b ) ) K V = S D ) Z C D ",
"A.S ' J.A.J.~ 3 A.M.Z.G.J.Z.m.m.Z.v V Q.m.G.G.(.M | Z.y.~ = i.a.s.p.a l y.m.r.M J.Z.F.F.Z.,.q p.p.p.Z.G.A.A.p.A.f f (.A.D.X.b A.",
":XK [ :XQ.1X~ 8 -XQ.-XQ.Q.-XQ.!.Q.S K -XJ.J.Q.-Xb w.!.5Xe.q `.~./.3Xm ( 5X).p.q ).!.%X}.%X,.4 T.!.U.-XQ.E.-XE.-XB l 1XQ.=X9.m :X",
"c , b ) S K f O Z D A A C F F C D e 0 Z b x Z A e w r r $ e W.~.~.~.S + w r b 0 F C c x C w e Z F F A C C A C A = 3 W S K c , y ",
"W.F s.^.z.*X[ 0 !.Y.W.2.9 R.Y.Y.Y.^.W.!.D D !.P.Y.W.I.Y.0.e ^.~.~.R.c ;.W.P.U.U.Y.Y.&.F ^.Y.Y.W.Y.I.W.y >.^.W.!.N ' 5XE.!.a.u W.",
"^.&.P.!.!.&X[ q *X!.-Xw.Z !.!.!.!.!.!.5X<.:.!.).!.`.^.2Xp.b ^.~.].^.S 9.2X!.-XQ.!.3X1.:.2X!.`.!.^.!.).E 5.2X!.2Xt E 5X).!.Q.D '.",
"m > v V n n ; ; V m ( k < n v f M l M M 1 3 M M m v v v < > a.k.k.Y.p = N b v V v n = < M f M B v v B 3 f ( v H ; ; B v n v o v ",
"t.B.H.n.B.d.% +XOXXX#X.XV.V.H.V.V.g Q V.H.C.F.J.S.B.F.Z.! p E.l.k.!.V G F.Z.B.S.H.S.{.[.V.O.h C.V.V.V.V..XXXH.oX+X; O.B.d.f.J.t.",
":X1X<XsXlXOXh @XuXsXuXaXaX$XaX9XbX! t.zX1XsXxX:X;X1X=XlXf.5 3X/.R.4Xn { lX:XwX1X1X1X0X0XfXB.j zX@XaXtXtXaXuXsXuXtXd <XlXsX0X;X1X",
"[ q.B.+.+.o.  v.@.t.#.v.N.#.@.@.@.- k r.@.[ u.y.y.e.9.9.n o =.-.2.1.5 p ,.,.w.y.t.t.+.@.#.~ ; $.O.%.v.v.#.t.r.@.@.% ` | @.f.t.| ",
"] M & B f G P k ! M Y : ; Q j Q Q / / k I Q ~ f = ( [ ( _ _ C F u w S ( _ ' ( v a G B Q I I U I I l / 6 & T v T P Q Y f B X M ] ",
"zXH.f sXsX<XaXaXiXiXcX~ } bXkXaXhXgXhXhXtXtXjXV.f iX:X:X<X=XG.5X2X!.J.sX1X,XxXT #.jXjXtXhXhXhXgXgXgXbXO.B zX>XiXaXaXuXsXzXk B.cX",
"uXt.7 L.H.H.#XOXK.(.>XB Q @X.X#XrX#X+X+X|.|.+X@.1 J.J.J.H.}.y.A.A.g.V.XXG.Q.=XM  .#X|.|.+X X+XrXOX.X@X~ f XXG.K.OX.XXXXXH.3 t.<X",
"T 3 f Q k ~ G f E E E f 8 Y ~ k d ^ / / I Q I k 4 N W v ! < q C m m > B N A N 4 f Y I I / Q } j B ~ Q j 8 ( E ( k h ! M ~ B 3 Q ",
"oXf .X9X9XjXO.n 6X5X=XpX1XXX<Xt.B aX@X@X<X1X<X1XQ.M.-XQ.=X, i.^.~.Y.+ p.-X&XT.A.pX>XuX@XoXoX<XQ r.<XXX<X:X-X,X:XQ ~ sX<XaX@Xd #X",
"B.a y.H.B.{.^ f Q.A.Z.F.S.S.H.] d .XV.V.H.H.S.J.A.s.a.A.g.+ -.6.l.j.+ w.A.a.p.w.J.G.H.H.S.B.H.M ] S.H.J.F.A.G.J.n ! XXF.H.B.3 N.",
"V m V ! B f # G ' E | f f O.~ ~ I O./ ....Q ^ G > W W S V + =.&.F D , b D D K p M ] / ..../ ^ Q ~ ~ ^ j < [ V ( G & v m ! V T T ",
",X,X,X,X1XH.- <X,X,XsXQ ^ jX@XaXaXtXtXtXtX$XhXC.f 1X,X,Xy.v ).`.^.5X( [ 6X-X:X! $.gXyXyXtXtXtXaXkX$XdXO.B sX,X1X9X= Z.1X:X=X,X1X",
").(.6XQ.=XG.- L.>X1XuXQ ^ tXrX+X@XtXtX+X$X$XtX#.k >XG.:Xt.v -X).Q.6XT ` ,XJ.iX~ O.yXyX+XyXtXrXrX@X@XtX..B <X>X>X@X; F.=X(.1X(.-X",
"A C y C A 4 = n v v M 3 3 h g j j j g s z s z d : B v v # = N y y N 1 = v t M ; 6 P s z z g j P k l g a = B v v f = 4 b N b b b ",
"T.Z e T.h.A.D.K p.A.D.D.J.Z.S.S.H.f ! H.V.H.H.oX- t.J.S.{.f.i.6.2.<.F.H.F.D.B.- L.H..XV.H.O.1 H.F.D.S.S.Q.A.A.p.H J.h.A.%Xb 0 T.",
"eXD A 6X-X:X:Xq.T.6X6X:X1X6XwX1XzX( t.zX0X1XsXsXf H.sX<X9X0XA.8XvX!.J.fX0X;X;X3 <XiXiX<XzXS.M xX:XwX0X1X:X4X7X&XX.:X4X2X6X;.Z 4X",
"[ 2 , 4.' | t.~ | u.y.n.t.y.r.+.r.3 k r.$.b.b.#.: } b.+.%.@.( 4.,.[ O.%.@.@.O.  $.N.b.#.@.! - r.q.q.t.n.y.u.u.4.k t.4.' 4.4 * 4.",
"' S W ' S E & B ' ( ( B = ! T ( ` ( ` ] 3 3 T ( Y Q T T j ; u.>.=.,.l : V H H H T T 1 3 K ( V E ( V ! > v ( E ' ] X v W W ) :.W ",
"^.R.3X^.3X2X$ T.2X2X6Xg.m -X&X!.2X^.^.2X,.;.8X`.5X).^.8Xe.q 3X/./.vXZ L 8X^.^.*X2X7X<.1.4XR.^.3XT.&X-XZ i.7X2X2X%X, ^.3X^.^.~.3X",
"k.R.Y.k.k.s.@ h.!.Y.U.0.0 z.z.Y.k.Y.Y.R.D D I.P.k.P.k.Y.;.c ~.c.l./.Z Z W.x.x.k.k.Y.&.F R.x.Y.k.z.z.h.0 =.R.Y.R.h.+ i.k.z.Y.^.k.",
"0 0 9 C w y > , y w b b , C r r c $ @ w , 0 u u , q e e $ 5 ^.~./.3XS O 0 e 0 w y u y e b 9 * b w w c , w C w b 5 O b w A w 9 w ",
"Q.b 4.).E.-Xu., E.!.A.E.).W.Y.U.E.b ) E.E.!.W.).b ,.E.E.q.5 !.I.Y.^.N ( (.A.Q.E._._._.E.Q.,.2 G.U.W.E.).E.E.E.Q.m v ,X).Q.m.y E.",
"7XA w.6X-X:Xe.t 2X2X).-X!.!.2X).6XS ' 6X(.5X`.5XV y.,X5XA.c 2X^.^.7Xm [ 6X).`.).`.'.'.).pXu.t 1X-X!.!.!.-X!.).7X( V :X(.5XE.D '.",
"D 9 b ( L ;.2 o D C S ) :.L S S S > > ! E E E ' > M E N q + S D A D # = S A ) :.W W E E E 8 o V m A =.:.W W C A , o ;.A S S , D ",
"9.[ o { ;.) q.e.0.,.,.< 4 e.q.r.+.d.d.@.@.+.t.]   ..+.+.+.X.S D ) ) ] O.+.o.o.# G +.+.t.t.t.t.t.@.+.e.v > ,.:.5.0.,.;.;.9.> K 9.",
"0Xf.f lX6X:X:X1X-X:XzX! _ bXaX9XdX$XtXdXkXaXkX|.% hXfX9X9X<XJ.6X7XE.XXdX9XdXbX: N.bXaXaXaXaXaX@XaX9XbXo.B xX-X5X6X6X6X-XxXn r.fX",
"XX+.7 L.Z.J.=XH.J.J.OXP Q @XV.+X+X+X+X+X|.|.+Xv.% |..X.X@XH.m.M.M.m.H.@X.X[.+X: %.|.|.|. X+X@XrX+X|.@X~ j OXG.G.G.K.(.Z.=Xv ] XX",
"2 4 O t q , 1 8 4 f j 6 3 j d h h ; d h 6 6 s ; : d f v 3 1 A u i A 8 ; f 3 h : 6 s h h h h j & d d d d : h f 8 f = 2 q 4 O 2 q ",
"!.!.!.U.Y.a., A.Q.%XoX>X=X=X=XK.;Xv ` =X1XoXL.1XZ.F.Q.!.{ q !././.^.b m Q.Q.A.Z.<XXX;XoXXXJ.H.8 (.(.J.;X;XH.XX%XS.> a.W.U.!.W.W.",
"^.2X^.^.2X*X, =X6X-X0X<X-X6X:X1XlXV Z.lX,X1XiX1XA.,X`.7Xe.q 2XW.^.7Xm { 6X5X2XA.6X1X1X:XsXsX<X4 ,X6X6X:X<X<X:X1X=X, Y.2X3X!.3X^.",
"=.:.:.) D S O ( _ [ ] #.[ [ | ` ] & f `  . .| +.( ( :.) a = { ) ) ( 3 - [ W ) W q.| +.O.^ Q Q   ! [ ` +.@.] [ [ ( O C ) D :.) :.",
":.w , ,.) L ' [ ( ( ~ & > ' ' _ _ ] ] ` 4 3 ` ( ' ' W ' +.= v m m v a ] [ ) ) :.E ( 2 1 O.^ O.+.( ` _ 4 o ( ) ) ' [ ) :.<.q , S ",
"8XD C 7X*X^.2XQ.^.*X7XC 1.7X5X6X:X:X-XpX<.) 5X2X!.2X/.^.4Xx 0.4X3Xa.K wX!.^.3X^.5X7X;.;.xX-X5X5X6X4X7X<.c 8X2X`.!.8X^.^.7XL c 8X",
"!.Z w A.h.U.A.!.Y.k.W.w =.R.h.T.E.&XQ.Q.) D W.P.!.P.Y.I.U.0 1.z.k.j.S &Xk.Y.W.Y.U.T.L ) Q.Q.5XU.T.A.!.=.e Y.k.Y.T.h.U.a.A.S c &X",
"4 > = a < v = > c e b , 0 c x p q > 4 4 1 1 t v > + w e q + 0 9 9 , o > q w , , 4 a < < 4 4 > b x x b 0 $ b q v < # f a a < > 4 ",
"F.F.<X@X{.9XQ f E.U.E.).Q.A.J.Z.=X4 +.@X@X>XXX1Xa [ Q.A.G.T.E.!.E.!.H H Q.G.M.E ;XOX<XoXOXB.> G.Z.D.E.Q.-XE.G.J.Q k oX.X.X@XG.F.",
").G.iX<X;XfX~ V 4X^.W.^.~.W.^.!.5Xt B.kXXX<X<XsXa +.-X!.`.^.W.W.Y.2XA ' 5X!.).) ;X;X<XXXsXH.8 ,X&X&X!.Y.^.W.`.5X( l fX<X@XiXG.).",
"5.s.u.t.q.r.j f <.-.6.6.8.3.2.>.5.2 T #.#.B.t.B.3 V <.>.2.2.j.2.2.<.w b <.2.>.A y.Z.B.t.t.( 2 [ 1.1.6.6.6.3.2.<.v 3 t.+.t.n.u.5."
};
