/* XPM */
static char *xpm_[] = {
/* columns rows colors chars-per-pixel */
"64 64 256 2 ",
"   c #1B0019",
".  c #3C000C",
"X  c #360005",
"o  c #2C001C",
"O  c #270018",
"+  c #33001B",
"@  c #3C011D",
"#  c #380013",
"$  c #2C0007",
"%  c #1A0027",
"&  c #1A0336",
"*  c #2B0124",
"=  c #29042A",
"-  c #330124",
";  c #34032C",
":  c #3B042C",
">  c #3B0526",
",  c #2A0634",
"<  c #3C0D34",
"1  c #380737",
"2  c #3B1239",
"3  c #3E132F",
"4  c #4B000C",
"5  c #450009",
"6  c #550004",
"7  c #5B000B",
"8  c #570109",
"9  c #4C0113",
"0  c #44001B",
"q  c #4C011C",
"w  c #450114",
"e  c #540212",
"r  c #5B0113",
"t  c #55011C",
"y  c #5C031B",
"u  c #570B19",
"i  c #5B121D",
"p  c #64010C",
"a  c #680407",
"s  c #630114",
"d  c #6B0114",
"f  c #64031C",
"g  c #6C021B",
"h  c #6E0A1C",
"j  c #670A18",
"k  c #760719",
"l  c #681417",
"z  c #791619",
"x  c #710A0C",
"c  c #782819",
"v  c #4C0124",
"b  c #45072A",
"n  c #5B0523",
"m  c #570827",
"M  c #57132C",
"N  c #440C34",
"B  c #440B3B",
"V  c #480936",
"C  c #560B36",
"Z  c #4A143B",
"A  c #45153A",
"S  c #581739",
"D  c #49122A",
"F  c #620324",
"G  c #670926",
"H  c #750B25",
"J  c #681628",
"K  c #781729",
"L  c #650C34",
"P  c #671738",
"I  c #781934",
"U  c #740C31",
"Y  c #792639",
"T  c #74222E",
"R  c #2B0B43",
"E  c #3B1647",
"W  c #37154C",
"Q  c #3B234F",
"!  c #3E2C60",
"~  c #4A1343",
"^  c #481847",
"/  c #561846",
"(  c #461954",
")  c #4B1045",
"_  c #661845",
"`  c #741C46",
"'  c #6B1649",
"]  c #49244B",
"[  c #5A254A",
"{  c #462557",
"}  c #5A2856",
"|  c #503358",
" . c #672449",
".. c #782447",
"X. c #662956",
"o. c #782A57",
"O. c #683259",
"+. c #753458",
"@. c #773349",
"#. c #492865",
"$. c #572968",
"%. c #5A2B77",
"&. c #5B3477",
"*. c #5E356C",
"=. c #693666",
"-. c #753663",
";. c #642D79",
":. c #62327C",
">. c #643475",
",. c #70306A",
"<. c #754374",
"1. c #5E4072",
"2. c #8B131A",
"3. c #8D0C1B",
"4. c #872619",
"5. c #86162A",
"6. c #96172B",
"7. c #871B37",
"8. c #961A37",
"9. c #900E24",
"0. c #A4162C",
"q. c #A61B35",
"w. c #A91726",
"e. c #862527",
"r. c #882639",
"t. c #98273A",
"y. c #942F30",
"u. c #A7232C",
"i. c #A82639",
"p. c #B42937",
"a. c #A7363A",
"s. c #B8333D",
"d. c #B02F29",
"f. c #CE383D",
"g. c #B9473C",
"h. c #D64E3F",
"j. c #F64A3D",
"k. c #E8563B",
"l. c #ED4C3B",
"z. c #8E1D44",
"x. c #8B2B44",
"c. c #862746",
"v. c #982946",
"b. c #8A3448",
"n. c #9C334B",
"m. c #973548",
"M. c #892A54",
"N. c #883957",
"B. c #993856",
"V. c #922C52",
"C. c #A42B43",
"Z. c #A72A48",
"A. c #B72A48",
"S. c #A73649",
"D. c #B73748",
"F. c #A82D52",
"G. c #A83855",
"H. c #B73A56",
"J. c #B92C53",
"K. c #903B68",
"L. c #B03D63",
"P. c #C6384A",
"I. c #CE3B4F",
"U. c #C13F61",
"Y. c #9A4758",
"T. c #924253",
"R. c #B94549",
"E. c #A84559",
"W. c #B3435C",
"Q. c #B94758",
"!. c #B9545A",
"~. c #AF4E4C",
"^. c #994566",
"/. c #8F5171",
"(. c #A94766",
"). c #B84965",
"_. c #AA5467",
"`. c #B95668",
"'. c #A95876",
"]. c #BA5B75",
"[. c #B24D74",
"{. c #BA6669",
"}. c #BA6875",
"|. c #C9474A",
" X c #DC444B",
".X c #D74849",
"XX c #D95549",
"oX c #C3445C",
"OX c #C74957",
"+X c #DC4C59",
"@X c #D94854",
"#X c #C75559",
"$X c #DA5759",
"%X c #C85249",
"&X c #EB4C4C",
"*X c #E74A49",
"=X c #F34C45",
"-X c #F44C4D",
";X c #FB4C4C",
":X c #F74847",
">X c #E95649",
",X c #F3534C",
"<X c #FB514C",
"1X c #F55646",
"2X c #EB4D54",
"3X c #E64C57",
"4X c #F44C53",
"5X c #F84D55",
"6X c #E45354",
"7X c #EC5354",
"8X c #E4545B",
"9X c #EC535B",
"0X c #EC5B5C",
"qX c #E65B57",
"wX c #F25254",
"eX c #FB5253",
"rX c #F3535B",
"tX c #F65758",
"yX c #D46356",
"uX c #E8645D",
"iX c #ED6756",
"pX c #C54965",
"aX c #C65567",
"sX c #D85965",
"dX c #CC5571",
"fX c #E35A63",
"gX c #E85564",
"hX c #F45A62",
"jX c #E75872",
"kX c #C66668",
"lX c #D86866",
"zX c #C76675",
"xX c #D66A77",
"cX c #D57579",
"vX c #E76667",
"bX c #F36669",
"nX c #EB7969",
"mX c #F9776A",
"MX c #E86576",
"NX c #E77877",
"BX c #F87478",
"VX c #FE8C7C",
"CX c #FB8775",
"ZX c #EF8675",
"AX c #5B3382",
"SX c #663685",
"DX c #793C8C",
"FX c #763D91",
"GX c #622F82",
"HX c #794494",
"JX c #944F8B",
"KX c #D37486",
"LX c #EA7883",
"PX c #CD5D85",
"IX c #F38C86",
"UX c #DD868B",
/* pixels */
":.:.%.:.;.*.|   - ; R 1 1 ; * * o -   % & & & R W R E $.%.GX%.%.AXAXGX;.$.) R R R & & & & % 3 + ; = = ; - - ; = % #.>.;.;.%.&.&.",
"%.;.GXAX&.&.Q   V X./ / ) / X./  .-.3 = % R #.&.&.>.=.<.GXFXFXHXHXFXDX;.DX,.*.*.&.#.& & & 2 -. . .X./ / / / X.B % { ;.;.:.:.&.%.",
"SXGXAX%.GXSX{ % C K.) / _ X.M.` c.'.2   R #.&.:.;.;.,.HX%.HXHXDXFXHXDX;.>.=.;.;.%.%.#.R % 3 '.r...M...P / ) -.B % ! SXGX%.&.AXSX",
"GX%.&.AXAXAXQ % ) o._ / _ ' M.z.8.[.A , #.&.&.;.;.;.=.<.%.JXFXDXDXDXJX;.<.=.>.;.;.;.;.} = 3 _.Y r.` ..P _ ' o.) % Q :.:.>.%.%.AX",
"%.$.$.&.AXAX{ & ) o.L _ _ ` c.7.r.(.Z ( %.#.&.;.;.:.=.<.#.:.SXFXFX,.:.$.<.*.&.&.GXGX$.$.Q 3 (.7.z.c.o.P C _ o.) % ! :.:.$.$.#.%.",
"( W E ^ #.#.! % ) ,._ _ / ` M...r.'.N ^ $.$.;.>.&.>.=.<.*.>.SXSXDX>.>.$.HX*.>.&.;.%.$.$.] 2 ].x.` M...S / _ ,.~ % { } ( ( ^ W Q ",
"% % < ~ 2 ~ A ; : / Z Z N D N S M O.: 2 ^ W ^ W Q W Q ( E ( W W W E Q W Q Q Q Q ( ( ) ^ 2 = X.C / Z D < ~ Z / ; ; A D V ^ 2 & % ",
"Q * A +.O.+.O.-.D - = > m Z O * = O [ -.=.,.=.1 , , & % = 1 1 1 1 R , , % , & , 1 =.=.+.=.} o : * * C M < = ; ^ +.O.o.+.-.^ = Q ",
"Z < 1 B b b B B Z Z 3 S dXPXb , ) ) ) / ) / ~ B B 2 E , 2 B ~ B ~ E ) R ; A 1 2 A Z S S S / b B , - PXdX_ V Z N < N > > N b 3 Z ",
"X.X.X.X.} X.X./ _ P S J MXPX> ~ X.` c.' P ` ' ...... .b B X.X.X.X.} X.V b  .+.P ..Y P ..` ` ..X.A - xXgXI P P S [ [ } [ X.X. . .",
"[ X.} / Z V Z N.(.H.E.D.bXbXw +.[.pXD.oXpXoX).oXdXdXPXC V O.=.O.+.O.,.C L dXdXdXU.pXpXW.L.).H.`.O.0 MXbXR.R.a.W.@.Z A ] ~ X. ._ ",
"N Z : o o $ $ N.`.dXsXlXXX#X9 M G.A.p.p.p.i.i.A.P.D.B.L @ D > D v b < + G W.H.P.p.i.q.H.G.Z.C.m.M 5 $XvXlXlXsXaXN.o O O O V V Z ",
"O o @ 0 @ b # 0 v m z x 4.c X X 0 t r 6 7 p l 6 p j M w $ X u 9 m v o + 0 u j p k k j 4 9 9 r p 5 8 c l 6 e G V v @ v > > > O * ",
"3 /.E.m.m.v.c.Y.+.J NXlXZXZX~._./.0 E.zXkXZXZXkX{._.w '.{.kXIXcXS.V._ S # Y.~.#XNXUXn.x.T.0 b.cXlXVXZX{.kX'.v ^.B.c.r.n.v.Y./.> ",
"J kX$X*X3X.X|.R.v.I OX|.qX>XnX!.T.M S.+XbX>XqXbXsXS.G E.#XiXiX9Xf.P.W.x.4 ZXkX0XiX7X@XpXB.y n.oX0XiXk.iXOXG.L B.Q.XX X2X*X$XkXM ",
"h #X&X;X;XeXhXD.U r.OXu.7XwX9Xa.x.u t.p.6X7XrX6Xp.t.H e.D.7X=X=X7X8XQ.5.7 #XXX:X:X*X9XgXz.f t.q.2X>XiX>Xp.v.F I .XwX;X;X5X0XR.x ",
"x $XrX:X;X5X@X6.r.K sX3.w.p.q.8.E.f Z.0.p.J.A.p.9.D.k n.6.I.2X,X7X+XD.r.s aX7X=X;X2XfXi.v.g A.i.6.i.P.i.9.D.F B.6.3X5X;X5XhXH.H ",
"H W.sXvX3X+Xa.G.b.I KXG.H.v.F.(._.n W.H.F.v.v.G.pXG.f _.G.C.P.|.D.S.n.c.t ].fX6X@X|.S.n.(.y G.Q.S.v.z.F.H.).n (.G.s.XX6X+XsXW.G ",
"; b M i J u r l 9 w ..S P L C C B + P U J M m G n I v @.o.o.I n P _ ..S > C G k p H y P S # S P P ' ' L P _ @ v G s a l J M : - ",
", * D i J }.}.y.Y.L + V v C L C S D F I J _.E.I J G b + v v b C m v 9 w + # @.r.t.Y.`.m.r.@.Z + v n G G m J u T.m._.cXc u S - ; ",
"[ @ zX$XuXmXmXvXNXx.m N.z.q.q.C.zXt.n.sX%XmXmXbXiXNX_.. ).H.Z.Z.A.A.D.sX}.9 !.ZXCXmXmXCXmXNXP M G.5.q.Z.q.jX~.kXlXmXmXnXyX`.P S ",
"[ m a.P.>X*X&Xf.R.y.n b.D.I.rX9XvXy.k Q.,Xl.j.j.l.6Xm.5 t.D.+X*X*X4X2X3XxX8 y.u.XXk.l.l.*Xw.J m 8.I.I.3XeXhX4.g.d.>Xk.*X.Xi.J S ",
"S u F.0.I.+X@X6.Q.t.F n.3X5X-X4XqXg.5.C.0Xl.1Xj.=X0Xm.9 7.I.rX<X;X:X;X3X#Xp m.6.OX+X6X Xp.Z.` M C.gX5X5X2XqXg.!.6.f.+XoX8.F.P S ",
"[ m U.Z.z.8.8.v.xXr.f W.6X4X;XwXfXy.V.t.s.tX,XtX2XlXY.. t.|.7X,X=XtX2X+XQ.j E.G.8.8.i.t.z.dXP G H.gX3X5X*XvXa.kXZ.i.8.7.F.[.P S ",
"A N K.V.V.v.M.M.B.P J cXsX8XfXsXxXJ Y (.n.S.OXaX#X`. .X {.aX#XOX#XOXD.H.).F M.V.V.B...B.B.^.D P NX$XsX$X$XNXJ b.v.x.z.V.V.K.Z ] ",
"; > q e G H G F t 9 u T z 3.2.9.z e 7 r p 8 r 6 p 7 u 9 K z d p f f 5.7.7.r 6 e r 6 9 4 e 4 u l 4.2.2.2.k h r s g H U f 9 0 @ + ",
"KXt I x.6.A.i.vXvXsX_.5 t.5.q.0.p.fX$X|.|.Q.h aX#XXXVXCXD.a.D.G.y B.5.0.u.$X$X%X%X~.l !.%XyXZXZXg.u.6.R.m M NXqXsXp.p.6.V.J u }.",
"T.H I E.OXI.*XwX,XuXaXl t.Q.@X X&XtX7X$X0Xa.K xX6XtX>X>X@X@XR.v.F B.sX3X.XtX,X&XyXh.x lX>X>X>XiX*X X+XQ.M T yX=X4XI.I.OXW.J l T.",
"V.h h D.iXj.<X=Xj.-XQ.d i.6XwX;X;X;X-X3XsX3.z #XwX:X:X=X-X0XOX5.G r.fXwX=X=X;X4X8Xq.z sX6X=X=X=X;XrXgXC.m I uX=X;XeX2XvXS.G H b.",
"(.G K Q.>X1X&X4X,X0XW.g a.XX7X-X;X-XrX+Xt.C.s R.3X5X5XeXwX+Xi.x.J n.6..X7XrXhXgXfXi.H H.8XwXrX5X2X3Xu.v.Y I vX&X2X&X9XOXr.I U (.",
"'.n m.xXQ.OXsXsX#X`.V.t zXQ.OXOXsXsXQ.t.v.E.J E.Q.OXfXfXOXS.t.B.F (.m.m.Q.pX).W.S.E.J `.!.OXOXoXD.a.i.).P m Q.sX#XsXQ.t.Y.I F [.",
"s 7 h H k g g f a p 4 y e.z k k k p k 3.5.h s K d k k k d 5.7.k p h J s r r 6 7 a z p K j p p p j 5.9.t.G e h g s g h H 5.f s F ",
".XuXfXp.s.i.(.y R.$XyXiXCXuX|.#Xr.z vXp.s.p.A.Z.D.!.e v.5.i.i.@XnXXX|.#Xe y.kX$XuXVXvXd.D.R.d !.#XXXiXmXmXyXcXf K v.e.i.i.sXbX*X",
"&XtXwX*X@XOXV.f $XiX1Xk.k.XX$XOXK r.bX*X&X&X X3XP.C.y b.oX3XI.rX,X>XqXD.u Y.uX>X,Xl.>X.X|.y.z kXqX>X1X1Xk.XXS.F I W.+X.X*X9X-X;X",
":X:XeX4XgXOXr.G |.7Xl.j.:XwXgXZ.I T tX:X;XeXhXjXD.v.n m. X;X5X-X&XhX8XC.s m.qX:X:XeXrXgXH.8.s #X6X<X=X=X1X%Xc.U I U.4X;X;X;X;X,X",
"9XrX9X Xs.5.G.d #XqX7X7X*X3Xq.t.b.T vXwX2XhXI.P.6.W.n B.@XeXrX8X8XI.6.Z.J m.bX&XqX9XI.P.6.F.H kXqX7XrX7X$X6.F.L x.oX9X;XeX&X3XXX",
"W.G.G.S.S.E.(.F x.W.W.S.S.t.A.)...m E.G.G.S.V.7.V.m.t ].OXR.Q.R.S.a.S.W.m P E.~.~.n.D.Z.H.E.9 Y.!.OXoXH.Z.V._.q b.{.H.P.#XsX).S.",
"F e r s h 5.U g s r w m r 5.6.6.e.i 8 e 9 e r 5.H H 7 K k p s r h k 2.y.K f s s 5 4 s 5.6.k r s a d G e f H h H e.K 3.k d s r u ",
"`.j r.i.u.p.P.I.uXlXm Y v.t.q.$XVXZX$XNXT b.t.0.q.OXbXqX.X+XE.K $X$XqXBXBXR.D.Q.9 T.8.q.i.P.bXgX*X$XW.f yXyXiXmXIXXXp.P._.4 B.t.",
"m.s 5.Q.3X*X5X=X>XuXG P R.+X X&Xk.k.>Xg.K x.|.3X X2X,X,XqX+X5.r.vX>X1X>X&X.X+Xr.y @.OX@X3X4X5X;X-X@Xr.h $XXX1X1X1X.X*XP.x.t n.oX",
"x.y K R.gX5X5X=X=X$Xd G |.hX5X;Xk.l.qXs.U r. X;X;X;X;X5XhXP.I 5.8X&X1X=XwXhXA.t.n r.@XwXeX;X;X4XrXOX7.h XXk.j.1X1X>X0XOXI y i.U.",
"B.m ..r.+X3XhX9XqXsXf x.oXgX9XrXwX0XP.8.Y m.8XeX4XtX4X2XP.6.m.r.vX9X6X6X Xi.8.L.L B.sX3XrXwX4XrXI.5.B.f sXqX,X&X6X|.D.3.E.e F.sX",
"'.v ..G.t.D.pX).`.E.# Y.`.S.Q.aXaXD.v.W.T ~.~.S.Q.pXpXa.v.).M.9 G.v.m.b.x.v.E.B.5 '.L.G.Q.pX#Xa.t.E.^.0 B._.W.E.S.S.v.G.E.X _._.",
"b m G K e.z 6 6 9 . . u p 6 8 r e g H k a y.5.8 p j u e d d K j f g w X t y 6 6 z r.d 7 n r 6 p g n t 9 4 4 . 5 4 7 5.a.z l l 5 ",
"e Y.NXmXIXmXg.g.i N.#X6.i.8.9.x...e xXBXZXCXCXiXnX#X6 {.lXuXCXmXs.Z.c.P 4 kXZXnXVXCXnXnXkXe 7.G.8.t.8.p.d.#XJ b.~.g.VXVXnXUXy.i ",
"J ~.R.XX>X>XyX~.T E.sX X@X@XOXH.c.m a..X>Xk.k.iXXXa.i r.!.iXk.l.f.P.E.Y e ~.R.>X>Xk.>X%XT.u x.Q.pX+X@X3X XbXe.m.!.lXXXh.%XR.x.b.",
"J ~.D.s.qXqXyX4.K Q.hX-X&XeXhXOXY m Z.t.$X0X>X0Xw.S.F c.R.fX=X=X;XrXpXI F S.i.gXqX8X8Xs.t.G 7.H.rX4XeX;X;X3X5.M.C.$X0XqXa.R.m.r.",
"i Y.).9.q.p.6.C.7.#X3X=X-X3X9Xi.Y v (.6.i.p.f.q.8.H.f B.7.D.7X4XwX9XA.7.F (.8.q.A.P.q.5.(.t z.t.3X<X&X4X4X9XH L.q.6.i.u.3.`.b.P ",
"D Y.zXH.S.Z.G.[.I E.bX9X9XqXOXn.T.Z (.H.G.v.v.H.).).t [.W.C.H.Q.F.n.L.b.u '.L.G.Z.z.H.(._.m b.S.H.gXfX8XgXjXF ^.(.L.v.G.E.zXb.S ",
"w M k k k z g f 5 T C.t.t.6.5.Y P . K d j k p 8 s f 0 Y ..7.H y G U I F w P m U G g d 7 m 5 G r.5.5.t.t.v.7.9 t G g h l d 5.D D ",
"+ u y.4.y.g.y.c T 4 # q 9 y F n u e f e.z y.%Xg.4.T S O > q G I H H k G m # q 4 x #X%Xa.m.m 5 m y n t w 0 . u T z 2.y.4.z K m O ",
"S @.LXnXCXCXZXZXZXS D -...I V.v.{.Y.Y UXNXCXVXCXZXUX/.@ N.B.v.Z.D.fX#XxX}.J PXzXlXZXCXlXLXY Y.{.t.v.7...+.D J UXNXIXVXVXZXIXY [ ",
"S c.v.I.2X2X@XOXn.P C c.F.I.+X8XlXa.K C.+X*X X&X$Xt.@.# z.Q.$X*X3X5X7XXXR.K v.U.uXXX6XD.!.H a.$XgX.XI.F.c.m U m..XXX&X*XXXD.T J ",
"P c.Z.p.rXrX+Xq.G.U F V.gXrX&X&X$XR.6.8.f.5X5X5XP.C.N.5 8.P.=X<X4X5X:X,X|.2.Z.p.3X2X X3.aXc R.uX&X;XrXgXv.G I C.D.tXrX5XP.q.7.P ",
"P r.OXw.0.0.0.q.).K h D.2X4X<X*XqXR.v.L.q.6.q.0.q.G.N.X v.|.wX=X5X:X<X7XOXk U.q.0.0.q.q.zXe.!.XX=X:X*X8XF.F 5.W.6.0.A.q.w.U.x.P ",
"S Y OXH.F.K.F.F.Q.k K xXhX2X7XqXlXy.9.H.Z.Z.z.F.F.G.N.X `.lXD.|.+XgX.XsXt.H F.F.F.Z.J.A.#Xa y.vX$XqXtXfXxXJ U ).F.G.c.B.G.)...S ",
"o > D v b N V m G 7 z a.6.6.r.5.H H d g H g 5.H d y m # M b 0 v m n 4 q 0 v n y G H H H k a H K I r.6.8.G.G v L V B A < b C 1 , ",
"] < ; A E 2 % | '.B.T.T.R.).Y.5 H ).`.Q.).dXpXU.aX].(.V * ^ } ( / ~ [ > b ^.PXdX).pXU.U.pXpX(.G X B.).H.m.B.^./.} = 2 2 ~ ; , { ",
"( 1 / =.} ] = 2 X._ Y E.MXBXE.4 7.G.S.D.A.A.J.J.jXoXG.b / } / } / X.[ [ m V.[.jXJ.A.P.J.A.F.L.7.4 E.LXBX!.I Y  .A = ] } -._ N ~ ",
"1 1 B - , = = * : v q (.NXLXY.w L V.v.v.F.L.J.J.A.F.B.V - < 1 B 1 B 1 > v K.L.F.J.J.J.F.F.v.V.L q Y.LXBX_.9 0 : * = * - b V ; 1 ",
"E % ; b N < < A N N o  .N.N. .- - > + o V ' ' _ ` S : = ; A N B N 2 2 ; * N Z ` P ` ' C - - ; ; -  .N.T. .+ v b 2 2 N N b - % R ",
"| = O.O.[ X.O.} ,.O.; B 1 : 1 ~ ) 1 2 ^ A < E B V N ] = [ -.O.O.=.=.=.} * ] ~ B V N N A E E 2 B ~ ; 1 1 < : O.-.O.} O.O.[ O.2 | ",
"^ 2 O.3 ) ^ ) B / } R / B / / ) / X.~ ^ / ^ ~ ^ / ^ /.1 A A ^ ~ 2 2 ^ / < /.~ ^ ^ ^ ^ ~ ~ / X.) / B / / / R } [ A ~ A ~ N | 2 Q ",
"* O 3 ; , 1 1 1 1 1 1 ) ) ' X.o.o.K.2 , + o 1 = 1 N Z * ; = , , , 1 = ; > S - < ; , , , 1 V K.o.X.X._ / ) E R , , ; ; ; > < * = "
};
