/* XPM */
static char *_6655913e5c24dfac946233857cacbc7VuFs9OA04Hv1xCrR[] = {
/* columns rows colors chars-per-pixel */
"64 64 238 2 ",
"   c #322B4A",
".  c #3C2E51",
"X  c #2A3C56",
"o  c #363351",
"O  c #3B3455",
"+  c #3B3C56",
"@  c #393859",
"#  c #30354E",
"$  c #422F55",
"%  c #493E5D",
"&  c #45375A",
"*  c #523A5C",
"=  c #493F61",
"-  c #513F61",
";  c #3D445B",
":  c #36405B",
">  c #38535E",
",  c #2E4A58",
"<  c #3B4A65",
"1  c #384564",
"2  c #3C5B62",
"3  c #3B5467",
"4  c #3E5571",
"5  c #3F6666",
"6  c #41465D",
"7  c #48485E",
"8  c #52445E",
"9  c #4E4363",
"0  c #444C63",
"q  c #494D64",
"w  c #444A6A",
"e  c #4A496A",
"r  c #534464",
"t  c #594666",
"y  c #534B65",
"u  c #554C6A",
"i  c #5B4C6B",
"p  c #574768",
"a  c #465166",
"s  c #4C5364",
"d  c #46536A",
"f  c #4D536B",
"g  c #435D6A",
"h  c #4C5B6E",
"j  c #425D66",
"k  c #52556C",
"l  c #5B536F",
"z  c #53596D",
"x  c #565167",
"c  c #594E71",
"v  c #4D5B73",
"b  c #4A5973",
"n  c #5C5272",
"m  c #545B74",
"M  c #5B5B76",
"N  c #5C5C7A",
"B  c #545774",
"V  c #624D72",
"C  c #645474",
"Z  c #635A75",
"A  c #645B7B",
"S  c #6B5C7C",
"D  c #6A5677",
"F  c #6A5777",
"G  c #436564",
"H  c #426A66",
"J  c #44656B",
"K  c #49656C",
"L  c #466A6B",
"P  c #4A6C6C",
"I  c #486766",
"U  c #4C736E",
"Y  c #45726C",
"T  c #4D6573",
"R  c #4D6C72",
"E  c #486774",
"W  c #546475",
"Q  c #5A6275",
"!  c #516C75",
"~  c #54647A",
"^  c #5B637C",
"/  c #546C7A",
"(  c #5B6A7E",
")  c #5A6875",
"_  c #4D7372",
"`  c #4E7A74",
"'  c #487574",
"]  c #527474",
"[  c #537A75",
"{  c #597B76",
"}  c #55747A",
"|  c #5A747B",
" . c #557C7A",
".. c #5A7C7C",
"X. c #587573",
"o. c #51706E",
"O. c #6B617D",
"+. c #66687B",
"@. c #72627D",
"#. c #62727D",
"$. c #637B7E",
"%. c #56817C",
"&. c #5B827D",
"*. c #588177",
"=. c #62837E",
"-. c #6E5C82",
";. c #655E80",
":. c #705D82",
">. c #5C6682",
",. c #5D6B82",
"<. c #556B82",
"1. c #5C7482",
"2. c #5D7C82",
"3. c #557681",
"4. c #646482",
"5. c #6C6383",
"6. c #636D84",
"7. c #646E89",
"8. c #6C6C8A",
"9. c #6D6A83",
"0. c #746383",
"q. c #736A85",
"w. c #7A6986",
"e. c #7A678A",
"r. c #766D8B",
"t. c #7B6C8B",
"y. c #796684",
"u. c #637385",
"i. c #627C84",
"p. c #657389",
"a. c #6B738C",
"s. c #657C8A",
"d. c #6A7C8D",
"f. c #6B7383",
"g. c #7C728D",
"h. c #76758B",
"j. c #7E6A92",
"k. c #6C7D92",
"l. c #6B7B95",
"z. c #7D7492",
"x. c #777993",
"c. c #836F92",
"v. c #827494",
"b. c #837996",
"n. c #847499",
"m. c #837A99",
"M. c #8A789C",
"N. c #826F8F",
"B. c #5D8383",
"V. c #5E8985",
"C. c #5C8287",
"Z. c #638483",
"A. c #698586",
"S. c #648A85",
"D. c #698A86",
"F. c #65838B",
"G. c #6A848D",
"H. c #648B8A",
"J. c #6B8C8C",
"K. c #718D8E",
"L. c #72868F",
"P. c #67918B",
"I. c #6C938D",
"U. c #6F998F",
"Y. c #71938E",
"T. c #719A8F",
"R. c #6C8492",
"E. c #6D8B93",
"W. c #6E859A",
"Q. c #6F8A99",
"!. c #648391",
"~. c #728493",
"^. c #7A8597",
"/. c #728B95",
"(. c #738499",
"). c #7A859B",
"_. c #748C9B",
"`. c #7A8C9B",
"'. c #788F95",
"]. c #6D9492",
"[. c #6E9A94",
"{. c #6F9598",
"}. c #729494",
"|. c #749B95",
" X c #799C96",
".X c #74939A",
"XX c #79949D",
"oX c #759C9A",
"OX c #7A9C9B",
"+X c #799596",
"@X c #73A096",
"#X c #76A19C",
"$X c #7BA29D",
"%X c #7CA297",
"&X c #7D8DA1",
"*X c #7688A1",
"=X c #7C94A2",
"-X c #7C9DA1",
";X c #7A93A6",
":X c #77A4A0",
">X c #7DA4A2",
",X c #7DA8A4",
"<X c #7EA3A9",
"1X c #829B9E",
"2X c #84899D",
"3X c #81A29E",
"4X c #878DA7",
"5X c #8295A4",
"6X c #829CA4",
"7X c #8495A8",
"8X c #849CAA",
"9X c #899CAB",
"0X c #899BA7",
"qX c #849CB2",
"wX c #82A4A4",
"eX c #84A9A4",
"rX c #8AABA6",
"tX c #82A5AA",
"yX c #8CA4AD",
"uX c #86ABAB",
"iX c #8AADAA",
"pX c #88A6A4",
"aX c #90AAAD",
"sX c #90A0AD",
"dX c #8BB1AC",
"fX c #86B0AA",
"gX c #8CA4B2",
"hX c #8AA9B5",
"jX c #92A5B3",
"kX c #94A9B5",
"lX c #95A8BA",
"zX c #93B3B7",
"xX c #8EB0B1",
"cX c #9BABC3",
"vX c #9BB8C6",
"bX c #A2B1C6",
"nX c #A5B5CB",
"mX c #A6B7D2",
/* pixels */
"0.S z 0X|.|.J...eX|.oXH.J.3X|.OXi.+X|.|.oX .#X|.oX].~.7X5X^.8.r.8.7.7X=X/./.-XoX:X .|.OXOX|...$XoX|.}...eX|.|.]...$X}.OXR.^ 0.@.",
"w.q.s yXoXOXJ.[ eXU.:XB.=.eX}.$X{ +X3X|.$X` $X@X[.oXG.5X`.d.8.A N B `.`.i.G.tX}.:X[  X3X|.OX] wXoX|.oX] eX|.$XI.] eX|.OXR.^ g.y.",
"t.g.z kXOX$X}.&.iX|.,XH.J.rX|.>XZ.OXeX|.:X .eX$X#X>X/.5X`.~.a.4.^ m &X=Xs./.uXoX:X&.3X3X|.wX{ eX$X$X>X..dX X>X}.{ dX|.>XQ.( b.t.",
"i y 6 ~...&.] R S.[ %._ ] =.[ &.P Z.&. .B.H S. . . .! u./ / f k f 0 ,./ T | Z. .B.H Z...{ &.P Z.[  ...G S.[  .[ P S.[ B./ a l t ",
"D l q `.Z.H.B. .|.S.H.B.Z.Y.S.I.} J.S.S.I._ I.S.P.V.i./.G.s.6.a.a.^ k.R.i.A.].H.H._ J.D.S.S.] I.H.H.J.] |.S.H.H.] }.Z.J.2.B A C ",
"t.r.f jXOX$X}...iX|.>XH.D.rX|.>X2.oXeXoX,X .wX$XoXoXG.0X.XF.R.).(.6.`.=Xs.}.,XoX>X .OXpXOXwX{ wX$XoXOX} iX|.>X].{ iX|.wXQ.^ b.e.",
"t.r.f jXOX$X}...iX|.,XH.J.rX|.wX2.oXeX|.:X .wX$XoXOX~.0X.XF.R.(.x.,.`.=Xs.}.tXoX:X .OX3X|.$X{ eX$X#X-X..iXOX>X{...iX|.>XQ.>.m.t.",
"D l 0 /.2.B. ._ J. .B.` { D...V.R H.Z.%.V.P J.&.&...| i.} } T ~ ~ h 1.1.E 1.H.%.V.L Z.=.&.&.P J.&.&.B.L I.{ &..._ J.{ Z.1.f A V ",
"D u 6 /.2.Z.2.] J.&.V. .{ D.Z.V._ H.S.&.S.P J.=.B.B.1.~.F.i.( `.(.( s.F.i...S.B.V._ =.D.B.B.] S.B.B.B._ I.&.&.B._ I.B.Z.1.v n C ",
"t.r.z kXOX$X}...dX|.,XH.J.rX|.eXB.oXeX|.,X..eXOX$XOXG.5X.XF.`.nXbXs.E..XF.E.uX#X>X .3X3XOX>X{ eX$XoX-X..iXOX>X{. .iX|.wX`.>.z.e.",
"t.r.z jXOX$X}...iXI.,XV.D.rX}.wX2.oXeX|.,X .wX XoXoX~.6XXXF.`.cXbXs.Q.-Xs.Q.uX{.>X .OX3XoXOX{ eX$XoXOX .iX|.$X].{ xX|.wX/.^ b.e.",
"S Z q `.Z.H.B.] }.S.P. .=.}.S.J.] J.J.S.J._ }.D.S.V.i.s.| ! ~ k.d.T / 1.R 2.{.V.I.U Y.D.Z.I.P }.S.H.S.] |.S.S.S.] }.Z.J.2.b O.D ",
"i y ; ~...B. .P Z. .%._ ] Z.{ { L Z.{ *. .H =.*.%. .| u.2.1.( p.6.~ 1.2.! { V. .%.P ..=. . .P Z.[ %...L S.{  . .P Z.{ Z./ a u t ",
"t.g.z kXoX$X}.Z.iX|.>XH.Y.rXOXwXZ.OX3X$X>XB.eX$X#X$X/.0X=XR.R.(.(.f.XX-XE.}.wXoX>X*.pX$XoXeX..eX$X$X>X2.iX%X>X|.Z.iX|.OX/.6.b.t.",
"t.q.s jX|.|.J.[ eXI.oXB.S.3XI.$X{ }.%XY.oX_ $X|.[.{.s.=X/.s.d.x.d.( `./.i.F.>X|.oX]  XOX|.oX] $X|.|.oX_ eXY.$XH.[ eX}.OXQ.^ z.t.",
"D x f gXwXwX}.Z.iXOX,X].}.iXOXeXZ.-XeXOXwXB.uX>X>XoX`.9X_.R.~ ~ m ~ =XXXG./.uXOXuXB.pXpX>XwXB.uXwXOXwX2.xXoXwXoXB.xXOXwX`.B C V ",
"t.r.0 / E J J 2 ! K J 5 K R J E 2 R L K K g R K J E g T J , (.cXlXs.3 K > K ! J E j W W J L 2 R K H E g ! J K J g R K E 3 B z.0.",
"S A ; R.2.H.i.} Q.B.F.3.2.E.C.F._ F.J.F.F.! R.F.F.C.1.W.E.F.;XcXlX&Xs.R.F.s.F.F.R.! G.R.F.F.R J.F.F.F.E Q.F.F.F.R /.2.G.s.~ 5.S ",
"t x 7 zX-XeX}...iXOXuXH.K.aXOXeXF.OXwX$X<XB.wXwXOX-X/.8XQ./.s.~.p._.8X.XF.}.uX-XtX2.-XwX:X,X..rX$X,X>X .dX$X$XoX&.xX|.wX/.a y 8 ",
"g.@.s aXI.|.D.{ eXI.$X*.=.pXI.$X..+XOX|.#X_ $X X|.|.A.6XE.F.W W ~ ! .X.X{ A.wX{.$X[ oX#XoXoXX.3XT.|.oX_ eX|.|.I.] eXY. XG.) z.g.",
"g.q.z jXOX>X}.=.iX|.>XH.J.rX|.>X..3X3X$X$X .eX%X$XOX~.9XXXJ.5XnXmXQ.E.XXZ.}.eX|.$X&.$X$X#X$X=.pX%XOXOX2.iX X$X|...rXOXpX~.6.v.0.",
"C Z 0 `.F.Z...] I.B.H. .{ ].B.S.P D.=.&.S.H P.*.*.Z.#.f.| ! _.hXhX!.3.| T $.J.&.V.Y S.S.&.S.P J.Z.&.Z.P I.&.Z...] }...Z.u.B S D ",
"i u ; `.B.V.&.] I.%.V._ [ I.*.V._ S.Z.&.H.P P.&.&.Z.#.d.s.s.E 3 4 4 s.R.#.#.A.Z.S.L S.D.Z.S.L J.B.&.V.P ].&.V. .U }.&.Z.1.a u t ",
"v.q.z jXoX>X}.&.dX|.,XS.J.iX|.,XB.oXeX$X>X{ wX$X$XoX~.9XXX_.g 1 1 4 ;X5Xd.~.yXOXwX..6XwXOX>X..wX$X#XOX .fX@X#X|.&.uXOXwX/.>.z.t.",
"e.r.s jX}.:X].{ eX|.#XS.Z.rX].,X2.oX>X].$X .3X XoXE.Q.-XE.Q.v w w 1 (.&Xs.J.wX+XwX{ OXwX}.:X[ wX$XoXoX_ fXU.#X]. .uX].>XR.^ z.0.",
"e.5.m 0X}.oXS.[ >X].[.B.D.OX].}...+XoX}.oX_ $XI.P.#X2./..X~.B O O @ *X=X2.J.wX].}. .}.OX].{...wX].}.}...$XI.].I.[ OX}.+XG.( q.0.",
"- 8 ; i._ Y U U  ._  .H P ..} } K | ] [ ] L  .U ' ' R s.8X0Xn $ . % 4X9XR.E.L ' ` H  .] U ] R | } | | j Z.U U _ ] { P ] ! 0 r * ",
"t.r.f yX$X$X$XOX|.oXoXJ.A.6X.XXXi.XXwXK.+X2.$X$X#X>X! f.#.+.Z C S % +.u.| OX,X#X#X%.].OX+XE.OXyX'.'.`.| iX|.OXOXOX$X XOX/.M g.w.",
"w.q.s aX|.[.|. X X XOXD.$.1XG./.| 6X'.'./.! -XOX{.-Xh +.+.Z w.n.v.t.l f.7 W uX{.>X ..X}./.E.XX6XK.}./.K rX}.|.|.|.|.T.|.J.) z.@.",
"t.O.z 0X].|.|.}.}.].oXZ.u.5X~.`.! /.XXG.&X/ 9XXX6X5XM g.9.h.m.9 9 b.g.z.x Q sX_.=X| =X`./.F.R.6XG.~.R.T wX}.|.[.oXI.@X|.J.) r.q.",
"p % ; s._ ` } K F.E.Q.R.( a.,.l.v _.gXE.3 < Q z z x p n.g.M   9 r O n z.0.r Z k m f v 3 W.gX`./ d.p.7.~ =XG.!.2.L _ _ ] / ; 9 - ",
"n.r.N gX<X<X.X2 tXzXhXlX7.7.v p.~ qXvX;XX < B o O & j.j.m.+ c -.-.c % m.c.t.$ O o w w X _.vX8X,.p.b >.,.lXgXvXtX> 6XtX-X&X7.n.j.",
"-.A e 5XE.J.E.2 -XhX8XqX6.6.~ p.v qXvXQ.X < 0 # # o -.n.m.% $ :.:.& % b.v.A   o # : < X _.vX8X~ s.~ >.>.gX8XgX=X> E.J./.k.B 5.S ",
"C n ; (.}  .2.| 2.Z.F.1.) k.,.1.T s.Q.F.T <.p.m W ^ 9 j.r.5.n $ & V e.r.5.= 4.v h ~ k.v 2.E.s.1.u.p.p.d /.i.2.1.| |  .1./ h A i ",
"n.z.M jX-X,X-XwX>XOXtXF.d.9XXX;X1..XXXXX`.8XlX9X9X9XN z.h.q.M.0.e.M.r.z.N 7.lX0XyX9XvX=X/.E.XXkX/.XX&X/ hX-XtX-X>X>XOXtX`.>.m.t.",
"r r ; s. .[ ] ] [ ] C.R ! | ! ! 2 1.] ! ! } G.} } 1.a f q + A c.v.i 7 q + v s.} } | F.! P [ | | ! } T g 2...} } _  .[ } ! 0 9 r ",
"0.O.f 5X}.[.].[ $XI.{.V.A.1X}.-X2.OXOX+X+X} OX|.{.{.s.`.^.^.n - r & 2X`.d.d.-X{.oX .E.6XoX}...6XOX}.XX..,XH.{.H.` eXJ.oXR.h 9.@.",
"t.q.z kX|.|.]...eX|.:XH.D.iX}.OXB.}.OX}.wX[ $X|.[.oXQ.0XG.`.M O O + ^.`.d./.,X[.$X[ OX-X}.$X| pX|.OXXX} eX|.oX|...eX|.$XR.6.g.w.",
"N.O.k gXoX$X]...eX@X:XH.S.rXoX,X2.OXeX|.$X{ eX%X#X[.J.=X/.~.^ @ @ ; ~._.F.E.eX@X@X*.>XwXOX3X..wX$X$X-X .dX|.#X]. .iX|.wXR.^ z.w.",
"p 8 6 s.]  ._ P *.` ` Y ] &. . .L 2.[ [ [ H &.` ` [ R | ! R d w w < T } g  .B.Y [ H ..[ [ [ P Z.[ ` [ P &.[  ._ P Z.U  ./ 0 u 8 ",
"0.A k 7X}.|.D.{ $XU.[.V.S.OX].oX..}.|.I.oX[ |.T.I.{.s.;XQ..Xb X X d _..XR.F.oXI.|. .}.|.|.|...OX|.].{. .,XI.[.I.[ 3XY.OXR.m 5.@.",
"t.r.z kXOXOX]...eX|.>XV.S.rX|.:X..+XwX|.$X[ 3X X|.OXd.7X/.!.l.W.*X<.W..Xs.Q.uX|.$X . X3X|.$X .wX#XoXOX} eX|.$X].{ iX|.-X(.>.z.e.",
"c.r.f jXOX$X}...iX|.,XH.J.rX|.>XZ.-XwXoX:X&.eXOX X+X~.7X`.!.qXmXmX*XQ..Xs./.tX|.$X&.6XwX|.>X..uX#X#X-X..eXoX$X}.{ iXOX-XR.^ z.N.",
"t y 6 ~.}  .] R Z._  ._ ] =.]  .K 2. .[  .5 =.X.[ ! ( 6./ J <.l.l.v T / T ! .. .{ G $.{ [  .G B.[ [ } 5 Z.[ [ ] P Z.] ../ f u r ",
"0.A f 5X].|.A...OXI.{.V.A. XI.}...}.}.I.oX .OX}.}./.~.`.~.k.,.>.>.^ (._.R.R.oX].|. .}.}.I.I.{ OX].I.]. .$XP.].J.| OXJ..Xd.B 5.:.",
"e.r.z kXOXOX/...eX|.:XB.Z.rX|.$X{ }.wX|.:X_ >XOXoXoXR.7X=XR.p.^ N m &X=Xs.R.uX{.$X[ OX>X|.$X] wX$X|.OX] iX|.>X].| aX}.wX`.^ m.e.",
"g.h.f jXOX$X}...iX|.,XS.J.rX|.wXB.OXeX|.>X..eX$X#X#XR.5X`.d.a.4.A M ).`.s./.uXoX,X&.>XwX|.3X{ rX$XOX>X .iX|.>X}.{ aX|.wX/.^ z.t.",
"y y ; G.[ [ ] _ Z._  ._ ] =.]  .P Z.{ [  .L Z.[  .` } 1./ ) B c u q ( 1.T | C.` %.5 B. .[ { I Z.[  . .K S.[ [ ] U Z.] { / a y r ",
"S Z f 5XJ.].Z. . XP.].B.Z.+XJ.]...J.I.P.oX_ |.I.].H.F._./.~.4.5.4.N ).`.d.G.oXP.[.` ].].].I.[ |.I.P.].] OXJ.}.S.[ OXI.}.d.m S S ",
"t.r.f jXOX$X}...eX|.>XV.D.rX|.>X..OXeX|.:X .wXOX|.}.R.7X`.d.8.;.N B &X`.s.E.tXoX:X .OX$XoX>X{ wXoX$XOX} iX XOX]. .iX|.$XE.^ z.t.",
"e.r.f jXoX$X}...eX|.,XH.D.rX|.>Xi.OXeX|.$X&.pX$X$XoX/.8X/.R.h.;.M ^ &X`.s..XuXoX>X&.$X3X|.>X..eXoX$XOX..iX XoX|...dX|.>X_.( b.t.",
"i u 6 ~...&.} P S.[  ._ ] =.[ &.K i. .[  .H Z.{  .` ! 1.R / f f q 0 ( / T } B. .&.5 &.{  ...I Z. .[ ..L S.[  .[ L S.[ ../ a i i ",
"S Z f =XJ.I.Z.{ OXS.].B.Z.}.J.]...E.I.S.{.` }.J.I.H.F.`.Q.G.a.4X4Xu.~./.s.J.oXP.].[ Y.Y.I.I.[ |.I.H.].} OXD.].S.[ |.S.].s.m S S ",
"t.r.f jXOX$X}...iX|.>XV.D.rX}.>X..|.eX|.,X] 3X X|.oXF.;X.Xi.).nXbXa./.=X2.E.tX{.>X .OX3XoX$X[ wXoX#X-X_ iX|.$X].] uX|.$XE.^ z.t.",
"t.g.z jXoXOX}.2.iX|.,XH.J.rX|.>XB.OXeX|.,X..pXOX$X:XE.-X.Xs.&XnXcXd._.=Xi.}.uXoX>X..1X3XoX>X..eX#X$X-X .dX X$X|...dX|.>X_.( b.t.",
"i u 6 ~. ...} _ Z.[  ._ ] =.[ &.P Z.{ [ ..L A.{ [ ] } 2._ R W p.p.h ! } T | 2. ...I Z.{ [ &.L Z. .[ ..P S.[  .[ P S.] { / a i t ",
"S A f 5XJ.].Z.{ OXP.].B.Z.+XJ.].{ E.I.I.}.] }.Y.I.S.F.XX].F.p.d.a.1.Q.Q.G.Z.OXJ.}.] K.Y.].I.[ }.].H.E. .OXD.].S. .|.H.}.s.m S S ",
"t.r.f jXOX$X}...eX|.>XV.D.rX|.>X..oXwX|.:X .wXOX|.oXG.-X.Xs.k.x.k.,./.XXi.G.tX{.>X{  X3XoX>X} wXoX$XOX} iX|.OX]. .uX|.$XE.^ v.e.",
"g.z.z kXOX$X}.B.iX|.,XH.J.rX|.>XZ.OXeX|.:X&.rXOX$X:XE.6X.XF.(.).).u._.=Xs./.uXoX>X&.3X3X|.>X{ eX#X$X-X .dX X$X}...dX|.>X/.( b.t.",
"i u ; R. ...] P S.[ B._ ] Z.[ &.P i.*.[ B.H Z.{  .[ ! 1.} ! B ^ ^ h / | T } B. .B.H =... .&.I Z.*. ...K S.[ &.[ P S.[ &./ a i t ",
"S A z 5XJ.].F...OXP.].V.D.+XJ.]...}.I.P.{.[ |.I.].J.G.XXQ.R.7.8.9.^ `.`.G.G.oX].[.[ Y.I.].].{ |.I.P.]. .OXD.].H.{ oXH.}.G.W O.S ",
"e.r.f jXOX$X}...uX|.>XH.D.rX|.>Xi.OXwX|.:X .wX$X|.oXR.;X.Xk.8.A N B &X=Xs.E.tX[.>X .OX3XoX>X{ wXoX$XOX} iX|.$X}. .uX|.>X~.^ v.e.",
"t.g.z jXOX$X}.2.iX|.,XH.J.rX|.>XZ.OXeX|.>X .wX$XoX-XE.5X`.k.h.5.A B &X&Xs..XuXoX>X%.$X$XoX>X..eXoX$X-X .dX|.$X}.{ dX|.>X/.( b.t.",
"i u 6 R.}  .] P Z.`  ._ ] =.]  .P i. .`  .H S.[  . .! ,.T W k c e q >.~ g | B.` %.H &.[ [  .I Z.[ [ ..K S.[  ._ L S._ ../ a l i "
};
